<?xml version="1.0" encoding="UTF-8" standalone="no"?>
<svg viewBox="0 0 501.969 281.102"
 xmlns="http://www.w3.org/2000/svg" xmlns:xlink="http://www.w3.org/1999/xlink"  version="1.2" baseProfile="tiny">
<title>Plot Document</title>
<desc>Generated with Qt</desc>
<defs>
</defs>
<g fill="none" stroke="black" stroke-width="1" fill-rule="evenodd" stroke-linecap="square" stroke-linejoin="bevel" >

<g fill="none" stroke="#000000" stroke-opacity="1" stroke-width="1" stroke-linecap="square" stroke-linejoin="bevel" transform="matrix(0.885417,0,0,0.885417,0,0)"
font-family="Sans Serif" font-size="10.625" font-weight="400" font-style="normal" 
>
</g>

<g fill="none" stroke="#000000" stroke-opacity="1" stroke-width="1" stroke-linecap="square" stroke-linejoin="bevel" transform="matrix(0.885417,0,0,0.885417,0,0)"
font-family="Sans Serif" font-size="10.625" font-weight="400" font-style="normal" 
>
</g>

<g fill="#ffffff" fill-opacity="1" stroke="none" transform="matrix(0.885417,0,0,0.885417,0,0)"
font-family="Sans Serif" font-size="10.625" font-weight="400" font-style="normal" 
>
<rect x="35" y="44" width="520" height="229"/>
</g>

<g fill="none" stroke="#000000" stroke-opacity="1" stroke-width="1" stroke-linecap="square" stroke-linejoin="bevel" transform="matrix(0.885417,0,0,0.885417,0,0)"
font-family="Sans Serif" font-size="10.625" font-weight="400" font-style="normal" 
>
</g>

<g fill="none" stroke="#000000" stroke-opacity="1" stroke-width="1" stroke-linecap="square" stroke-linejoin="bevel" transform="matrix(0.885417,0,0,0.885417,0,0)"
font-family="Sans Serif" font-size="10.625" font-weight="400" font-style="normal" 
>
</g>

<g fill="none" stroke="#ff0000" stroke-opacity="1" stroke-width="1" stroke-linecap="square" stroke-linejoin="bevel" transform="matrix(0.885417,0,0,0.885417,0,0)"
font-family="Sans Serif" font-size="10.625" font-weight="400" font-style="normal" 
>
<polyline fill="none" vector-effect="none" points="35,196 35.519,196 36.038,196 36.557,196 37.076,196 37.595,196 38.114,196 38.633,196 39.152,196 39.671,196 40.19,196 40.709,196 41.228,196 41.747,196 42.266,196 42.785,196 43.304,196 43.823,196 44.342,196 44.861,196 45.38,196 45.899,196 46.418,196 46.937,196 47.456,196 47.975,196 48.494,196 49.013,196 49.532,196 50.051,196 50.57,196 51.089,196 51.608,196 52.127,196 52.646,196 53.165,196 53.684,196 54.203,196 54.722,196 55.241,196 55.76,196 56.279,196 56.798,196 57.317,196 57.836,196 58.355,196 58.874,196 59.393,196 59.912,196 60.431,196 60.95,196 61.469,196 61.988,196 62.507,196 63.026,196 63.545,196 64.064,196 64.583,196 65.102,196 65.621,196 66.14,196 66.659,196 67.178,196 67.697,196 68.216,196 68.735,196 69.254,196 69.773,196 70.292,196 70.811,196 71.33,196 71.849,196 72.368,196 72.887,196 73.406,196 73.925,196 74.444,196 74.963,196 75.482,196 76.001,196 76.52,196 77.039,196 77.558,196 78.077,196 78.596,196 79.115,196 79.634,196 80.153,196 80.672,196 81.191,196 81.71,196 82.229,196 82.748,196 83.267,196 83.786,196 84.305,196 84.824,196 85.343,196 85.862,196 86.381,196 86.9,196 87.419,196 87.938,196 88.457,196 88.976,196 89.495,196 90.014,196 90.533,196 91.052,196 91.571,196 92.09,196 92.609,196 93.128,196 93.647,196 94.166,196 94.685,196 95.204,196 95.723,196 96.242,196 96.761,196 97.28,196 97.799,196 98.318,196 98.837,196 99.356,196 99.875,196 100.394,196 100.913,196 101.432,196 101.951,196 102.47,196 102.989,196 103.508,196 104.027,196 104.546,196 105.065,196 105.584,196 106.103,196 106.622,196 107.141,196 107.66,196 108.179,196 108.698,196 109.217,196 109.736,196 110.255,196 110.774,196 111.293,196 111.812,196 112.331,196 112.85,196 113.369,196 113.888,196 114.407,196 114.926,196 115.445,196 115.964,196 116.483,196 117.002,196 117.521,196 118.04,196 118.559,196 119.078,196 119.597,196 120.116,196 120.635,196 121.154,196 121.673,196 122.192,196 122.711,196 123.23,196 123.749,196 124.268,196 124.787,196 125.306,196 125.825,196 126.344,196 126.863,196 127.382,196 127.901,196 128.42,196 128.939,196 129.458,196 129.977,196 130.496,196 131.015,196 131.534,196 132.053,196 132.572,196 133.091,196 133.61,196 134.129,196 134.648,196 135.167,196 135.686,196 136.205,196 136.724,196 137.243,196 137.762,196 138.281,196 138.8,196 139.319,196 139.838,196 140.357,196 140.876,196 141.395,196 141.914,196 142.433,196 142.952,196 143.471,196 143.99,196 144.509,196 145.028,196 145.547,196 146.066,196 146.585,196 147.104,196 147.623,196 148.142,196 148.661,196 149.18,196 149.699,196 150.218,196 150.737,196 151.256,196 151.775,196 152.294,196 152.813,196 153.332,196 153.851,196 154.37,196 154.889,196 155.408,196 155.927,196 156.446,196 156.965,196 157.484,196 158.003,196 158.522,196 159.041,196 159.56,196 160.079,196 160.598,196 161.117,196 161.636,196 162.155,196 162.674,196 163.193,196 163.712,196 164.231,196 164.75,196 165.269,196 165.788,196 166.307,196 166.826,196 167.345,196 167.864,196 168.383,196 168.902,196 169.421,196 169.94,196 170.459,196 170.978,196 171.497,196 172.016,196 172.535,196 173.054,196 173.573,196 174.092,196 174.611,196 175.13,196 175.649,196 176.168,196 176.687,196 177.206,196 177.725,196 178.244,196 178.763,196 179.282,196 179.801,196 180.32,196 180.839,196 181.358,196 181.877,196 182.396,196 182.915,196 183.434,196 183.953,196 184.472,196 184.991,196 185.51,196 186.029,196 186.548,196 187.067,196 187.586,196 188.105,196 188.624,196 189.143,196 189.662,196 190.181,196 190.7,196 191.219,196 191.738,196 192.257,196 192.776,196 193.295,196 193.814,196 194.333,196 194.852,196 195.371,196 195.89,196 196.409,196 196.928,196 197.447,196 197.966,196 198.485,196 199.004,196 199.523,196 200.042,196 200.561,196 201.08,196 201.599,196 202.118,196 202.637,196 203.156,196 203.675,196 204.194,196 204.713,196 205.232,196 205.232,196 205.751,196 206.27,196 206.27,196 206.789,196 207.308,196 207.308,196 207.827,196 208.346,196 208.346,196 208.865,196 209.384,196 209.384,196 209.903,196 210.422,196 210.422,196 210.941,196 211.46,196 211.46,196 211.979,196 212.498,196 212.498,196 213.017,196 213.536,196 213.536,196 214.055,196 214.574,196 214.574,196 215.093,196 215.612,196 215.612,196 216.131,196 216.65,196 216.65,196 217.169,196 217.688,196 217.688,196 218.207,196 218.726,196 218.726,196 219.245,196 219.764,196 219.764,196 220.283,196 220.802,196 220.802,196 221.321,196 221.84,196 221.84,196 222.359,196 222.878,196 222.878,196 223.397,196 223.916,196 223.916,196 224.435,196 224.954,196 224.954,196 225.473,196 225.992,196 225.992,196 226.511,196 227.03,196 227.03,196 227.549,196 228.068,196 228.068,196 228.587,196 229.106,196 229.106,196 229.625,196 230.144,196 230.144,196 230.663,196 231.182,196 231.182,196 231.701,196 232.22,196 232.22,196 232.739,196 233.258,196 233.258,196 233.777,196 234.296,196 234.296,196 234.815,196 235.334,196 235.334,196 235.853,196 236.372,196 236.372,196 236.891,196 237.41,196 237.41,196 237.929,196 238.448,196 238.448,196 238.967,196 239.486,196 239.486,196 240.005,196 240.524,196 240.524,196 241.043,196 241.562,196 241.562,196 242.081,196 242.6,196 242.6,196 242.6,196 242.6,44 243.119,44 243.638,44 243.638,44 244.157,44 244.676,44 244.676,44 245.195,44 245.714,44 245.714,44 246.233,44 246.752,44 246.752,44 247.271,44 247.79,44 247.79,44 248.309,44 248.828,44 248.828,44 249.347,44 249.866,44 249.866,44 250.385,44 250.904,44 250.904,44 251.423,44 251.942,44 251.942,44 252.461,44 252.98,44 252.98,44 253.499,44 254.018,44 254.018,44 254.537,44 255.056,44 255.056,44 255.575,44 256.094,44 256.094,44 256.613,44 257.132,44 257.132,44 257.651,44 258.17,44 258.17,44 258.689,44 259.208,44 259.208,44 259.727,44 260.246,44 260.246,44 260.765,44 261.284,44 261.284,44 261.803,44 262.322,44 262.322,44 262.841,44 263.36,44 263.36,44 263.879,44 264.398,44 264.398,44 264.917,44 265.436,44 265.436,44 265.955,44 266.474,44 266.474,44 266.993,44 267.512,44 267.512,44 268.031,44 268.55,44 268.55,44 269.069,44 269.588,44 269.588,44 270.107,44 270.626,44 270.626,44 271.145,44 271.664,44 271.664,44 272.183,44 272.702,44 272.702,44 273.221,44 273.74,44 273.74,44 274.259,44 274.778,44 274.778,44 275.297,44 275.816,44 275.816,44 276.335,44 276.854,44 276.854,44 277.373,44 277.892,44 277.892,44 278.411,44 278.93,44 278.93,44 279.449,44 279.968,44 279.968,44 280.487,44 281.006,44 281.006,44 281.525,44 282.044,44 282.044,44 282.563,44 283.082,44 283.082,44 283.601,44 284.12,44 284.12,44 284.639,44 285.158,44 285.158,44 285.677,44 286.196,44 286.196,44 286.715,44 287.234,44 287.234,44 287.753,44 288.272,44 288.272,44 288.791,44 289.31,44 289.31,44 289.829,44 290.348,44 290.348,44 290.867,44 291.386,44 291.386,44 291.905,44 292.424,44 292.424,44 292.943,44 293.462,44 293.462,44 293.981,44 294.5,44 294.5,44 295.019,44 295.538,44 295.538,44 296.057,44 296.576,44 296.576,44 297.095,44 297.614,44 297.614,44 298.133,44 298.652,44 298.652,44 299.171,44 299.69,44 299.69,44 300.209,44 300.728,44 300.728,44 301.247,44 301.766,44 301.766,44 302.285,44 302.804,44 302.804,44 303.323,44 303.842,44 303.842,44 304.361,44 304.88,44 304.88,44 305.399,44 305.918,44 305.918,44 306.437,44 306.956,44 306.956,44 307.475,44 307.994,44 307.994,44 308.513,44 309.032,44 309.032,44 309.551,44 310.07,44 310.07,44 310.589,44 311.108,44 311.108,44 311.627,44 312.146,44 312.146,44 312.665,44 313.184,44 313.184,44 313.703,44 314.222,44 314.222,44 314.741,44 315.26,44 315.26,44 315.779,44 316.298,44 316.298,44 316.817,44 317.336,44 317.336,44 317.855,44 318.374,44 318.374,44 318.893,44 319.412,44 319.412,44 319.931,44 320.45,44 320.45,44 320.969,44 321.488,44 321.488,44 322.007,44 322.526,44 322.526,44 323.045,44 323.564,44 323.564,44 324.083,44 324.602,44 324.602,44 325.121,44 325.64,44 325.64,44 326.159,44 326.678,44 326.678,44 327.197,44 327.716,44 327.716,44 328.235,44 328.754,44 328.754,44 329.273,44 329.792,44 329.792,44 330.311,44 330.83,44 330.83,44 331.349,44 331.868,44 331.868,44 332.387,44 332.906,44 332.906,44 333.425,44 333.944,44 333.944,44 334.463,44 334.982,44 334.982,44 335.501,44 336.02,44 336.02,44 336.539,44 337.058,44 337.058,44 337.577,44 338.096,44 338.096,44 338.615,44 339.134,44 339.134,44 339.653,44 340.172,44 340.172,44 340.691,44 341.21,44 341.21,44 341.729,44 342.248,44 342.248,44 342.767,44 343.286,44 343.286,44 343.805,44 344.324,44 344.324,44 344.843,44 345.362,44 345.362,44 345.881,44 346.4,44 346.4,44 346.4,44 346.4,196 346.919,196 347.438,196 347.438,196 347.957,196 348.476,196 348.476,196 348.995,196 349.514,196 349.514,196 350.033,196 350.552,196 350.552,196 351.071,196 351.59,196 351.59,196 352.109,196 352.628,196 352.628,196 353.147,196 353.666,196 353.666,196 354.185,196 354.704,196 354.704,196 355.223,196 355.742,196 355.742,196 356.261,196 356.78,196 356.78,196 357.299,196 357.818,196 357.818,196 358.337,196 358.856,196 358.856,196 359.375,196 359.894,196 359.894,196 360.413,196 360.932,196 360.932,196 361.451,196 361.97,196 361.97,196 362.489,196 363.008,196 363.008,196 363.527,196 364.046,196 364.046,196 364.565,196 365.084,196 365.084,196 365.603,196 366.122,196 366.122,196 366.641,196 367.16,196 367.16,196 367.679,196 368.198,196 368.198,196 368.717,196 369.236,196 369.236,196 369.755,196 370.274,196 370.274,196 370.793,196 371.312,196 371.312,196 371.831,196 372.35,196 372.35,196 372.869,196 373.388,196 373.388,196 373.907,196 374.426,196 374.426,196 374.945,196 375.464,196 375.464,196 375.983,196 376.502,196 376.502,196 377.021,196 377.54,196 377.54,196 378.059,196 378.578,196 378.578,196 379.097,196 379.616,196 379.616,196 380.135,196 380.654,196 380.654,196 381.173,196 381.692,196 381.692,196 382.211,196 382.73,196 382.73,196 383.249,196 383.768,196 383.768,196 384.287,196 384.806,196 384.806,196 385.325,196 385.844,196 385.844,196 386.363,196 386.882,196 386.882,196 387.401,196 387.92,196 387.92,196 388.439,196 388.958,196 388.958,196 389.477,196 389.996,196 389.996,196 390.515,196 391.034,196 391.034,196 391.553,196 392.072,196 392.072,196 392.591,196 393.11,196 393.11,196 393.629,196 394.148,196 394.148,196 394.667,196 395.186,196 395.186,196 395.705,196 396.224,196 396.224,196 396.743,196 397.262,196 397.262,196 397.781,196 398.3,196 398.3,196 398.819,196 399.338,196 399.338,196 399.857,196 400.376,196 400.376,196 400.895,196 401.414,196 401.414,196 401.933,196 402.452,196 402.452,196 402.971,196 403.49,196 403.49,196 404.009,196 404.528,196 404.528,196 405.047,196 405.566,196 405.566,196 406.085,196 406.604,196 406.604,196 407.123,196 407.642,196 407.642,196 408.161,196 408.68,196 409.199,196 409.718,196 410.237,196 410.756,196 411.275,196 411.794,196 412.313,196 412.832,196 413.351,196 413.87,196 414.389,196 414.908,196 415.427,196 415.946,196 416.465,196 416.984,196 417.503,196 418.022,196 418.541,196 419.06,196 419.579,196 420.098,196 420.617,196 421.136,196 421.655,196 422.174,196 422.693,196 423.212,196 423.731,196 424.25,196 424.769,196 425.288,196 425.807,196 426.326,196 426.845,196 427.364,196 427.883,196 428.402,196 428.921,196 429.44,196 429.959,196 430.478,196 430.997,196 431.516,196 432.035,196 432.554,196 433.073,196 433.592,196 434.111,196 434.63,196 435.149,196 435.668,196 436.187,196 436.706,196 437.225,196 437.744,196 438.263,196 438.782,196 439.301,196 439.82,196 440.339,196 440.858,196 441.377,196 441.896,196 442.415,196 442.934,196 443.453,196 443.972,196 443.972,196 444.491,196 445.01,196 445.01,196 445.529,196 446.048,196 446.048,196 446.567,196 447.086,196 447.086,196 447.605,196 448.124,196 448.124,196 448.643,196 449.162,196 449.162,196 449.681,196 450.2,196 450.2,196 450.719,196 451.238,196 451.238,196 451.757,196 452.276,196 452.276,196 452.795,196 453.314,196 453.314,196 453.833,196 454.352,196 454.352,196 454.871,196 455.39,196 455.39,196 455.909,196 456.428,196 456.428,196 456.947,196 457.466,196 457.466,196 457.985,196 458.504,196 458.504,196 459.023,196 459.542,196 459.542,196 460.061,196 460.58,196 460.58,196 461.099,196 461.618,196 461.618,196 462.137,196 462.656,196 462.656,196 463.175,196 463.694,196 463.694,196 464.213,196 464.732,196 464.732,196 465.251,196 465.77,196 465.77,196 466.289,196 466.808,196 466.808,196 467.327,196 467.846,196 467.846,196 468.365,196 468.884,196 468.884,196 469.403,196 469.922,196 469.922,196 470.441,196 470.96,196 470.96,196 471.479,196 471.998,196 471.998,196 472.517,196 473.036,196 473.036,196 473.555,196 474.074,196 474.074,196 474.593,196 475.112,196 475.112,196 475.631,196 476.15,196 476.15,196 476.669,196 477.188,196 477.188,196 477.707,196 478.226,196 478.226,196 478.745,196 479.264,196 479.264,196 479.783,196 480.302,196 480.302,196 480.821,196 481.34,196 481.34,196 481.859,196 482.378,196 482.378,196 482.897,196 483.416,196 483.416,196 483.935,196 484.454,196 484.454,196 484.973,196 485.492,196 485.492,196 486.011,196 486.53,196 486.53,196 487.049,196 487.568,196 487.568,196 488.087,196 488.606,196 488.606,196 489.125,196 489.644,196 489.644,196 490.163,196 490.682,196 490.682,196 491.201,196 491.72,196 491.72,196 492.239,196 492.758,196 492.758,196 493.277,196 493.796,196 493.796,196 494.315,196 494.834,196 494.834,196 495.353,196 495.872,196 495.872,196 496.391,196 496.91,196 496.91,196 497.429,196 497.948,196 497.948,196 498.467,196 498.986,196 498.986,196 499.505,196 500.024,196 500.024,196 500.543,196 501.062,196 501.062,196 501.581,196 502.1,196 502.1,196 502.619,196 503.138,196 503.138,196 503.657,196 504.176,196 504.176,196 504.695,196 505.214,196 505.214,196 505.733,196 506.252,196 506.252,196 506.771,196 507.29,196 507.29,196 507.809,196 508.328,196 508.328,196 508.847,196 509.366,196 509.366,196 509.885,196 510.404,196 510.404,196 510.923,196 511.442,196 511.442,196 511.961,196 512.48,196 512.48,196 512.999,196 513.518,196 513.518,196 514.037,196 514.556,196 514.556,196 515.075,196 515.594,196 515.594,196 516.113,196 516.632,196 516.632,196 517.151,196 517.67,196 517.67,196 518.189,196 518.708,196 518.708,196 519.227,196 519.746,196 519.746,196 520.265,196 520.784,196 520.784,196 521.303,196 521.822,196 521.822,196 522.341,196 522.86,196 522.86,196 523.379,196 523.898,196 523.898,196 524.417,196 524.936,196 524.936,196 525.455,196 525.974,196 525.974,196 526.493,196 527.012,196 527.012,196 527.531,196 528.05,196 528.05,196 528.569,196 529.088,196 529.088,196 529.607,196 530.126,196 530.126,196 530.645,196 531.164,196 531.164,196 531.683,196 532.202,196 532.202,196 532.721,196 533.24,196 533.24,196 533.759,196 534.278,196 534.278,196 534.797,196 535.316,196 535.316,196 535.835,196 536.354,196 536.354,196 536.873,196 537.392,196 537.392,196 537.911,196 538.43,196 538.43,196 538.949,196 539.468,196 539.468,196 539.987,196 540.506,196 540.506,196 541.025,196 541.544,196 541.544,196 542.063,196 542.582,196 542.582,196 543.101,196 543.62,196 543.62,196 544.139,196 544.658,196 544.658,196 545.177,196 545.696,196 545.696,196 546.215,196 546.734,196 546.734,196 547.253,196 547.772,196 547.772,196 548.291,196 548.81,196 548.81,196 549.329,196 549.848,196 549.848,196 550.367,196 550.886,196 550.886,196 551.405,196 551.924,196 551.924,196 552.443,196 552.962,196 552.962,196 553.481,196 554,196 554,196 " />
</g>

<g fill="none" stroke="#000000" stroke-opacity="1" stroke-width="1" stroke-linecap="square" stroke-linejoin="bevel" transform="matrix(0.885417,0,0,0.885417,0,0)"
font-family="Sans Serif" font-size="10.625" font-weight="400" font-style="normal" 
>
</g>

<g fill="none" stroke="#000000" stroke-opacity="1" stroke-width="1" stroke-linecap="square" stroke-linejoin="bevel" transform="matrix(0.885417,0,0,0.885417,0,0)"
font-family="Sans Serif" font-size="10.625" font-weight="400" font-style="normal" 
>
</g>

<g fill="none" stroke="#000000" stroke-opacity="1" stroke-width="1" stroke-linecap="square" stroke-linejoin="bevel" transform="matrix(0.885417,0,0,0.885417,0,0)"
font-family="Sans Serif" font-size="10.625" font-weight="400" font-style="normal" 
>
</g>

<g fill="none" stroke="#0000ff" stroke-opacity="1" stroke-width="1" stroke-linecap="square" stroke-linejoin="bevel" transform="matrix(0.885417,0,0,0.885417,0,0)"
font-family="Sans Serif" font-size="10.625" font-weight="400" font-style="normal" 
>
<polyline fill="none" vector-effect="none" points="35,272 35.519,269.697 36.038,267.465 36.557,265.301 37.076,263.203 37.595,261.168 38.114,259.196 38.633,257.284 39.152,255.43 39.671,253.632 40.19,251.889 40.709,250.2 41.228,248.561 41.747,246.973 42.266,245.433 42.785,243.94 43.304,242.492 43.823,241.089 44.342,239.728 44.861,238.408 45.38,237.129 45.899,235.888 46.418,234.685 46.937,233.519 47.456,232.388 47.975,231.292 48.494,230.229 49.013,229.198 49.532,228.198 50.051,227.229 50.57,226.289 51.089,225.378 51.608,224.495 52.127,223.638 52.646,222.807 53.165,222.002 53.684,221.22 54.203,220.463 54.722,219.728 55.241,219.016 55.76,218.326 56.279,217.656 56.798,217.007 57.317,216.377 57.836,215.766 58.355,215.174 58.874,214.6 59.393,214.043 59.912,213.503 60.431,212.979 60.95,212.471 61.469,211.979 61.988,211.501 62.507,211.038 63.026,210.589 63.545,210.153 64.064,209.731 64.583,209.321 65.102,208.924 65.621,208.538 66.14,208.165 66.659,207.802 67.178,207.451 67.697,207.11 68.216,206.779 68.735,206.459 69.254,206.148 69.773,205.846 70.292,205.553 70.811,205.27 71.33,204.994 71.849,204.727 72.368,204.469 72.887,204.217 73.406,203.974 73.925,203.738 74.444,203.509 74.963,203.286 75.482,203.071 76.001,202.862 76.52,202.659 77.039,202.462 77.558,202.271 78.077,202.086 78.596,201.906 79.115,201.732 79.634,201.563 80.153,201.399 80.672,201.24 81.191,201.086 81.71,200.936 82.229,200.791 82.748,200.65 83.267,200.514 83.786,200.381 84.305,200.253 84.824,200.128 85.343,200.007 85.862,199.89 86.381,199.776 86.9,199.665 87.419,199.558 87.938,199.454 88.457,199.353 88.976,199.255 89.495,199.16 90.014,199.068 90.533,198.978 91.052,198.892 91.571,198.808 92.09,198.726 92.609,198.647 93.128,198.57 93.647,198.495 94.166,198.423 94.685,198.352 95.204,198.284 95.723,198.218 96.242,198.154 96.761,198.091 97.28,198.031 97.799,197.972 98.318,197.915 98.837,197.86 99.356,197.806 99.875,197.754 100.394,197.704 100.913,197.655 101.432,197.607 101.951,197.561 102.47,197.516 102.989,197.473 103.508,197.43 104.027,197.389 104.546,197.35 105.065,197.311 105.584,197.273 106.103,197.237 106.622,197.202 107.141,197.167 107.66,197.134 108.179,197.102 108.698,197.07 109.217,197.04 109.736,197.01 110.255,196.982 110.774,196.954 111.293,196.927 111.812,196.901 112.331,196.875 112.85,196.85 113.369,196.826 113.888,196.803 114.407,196.78 114.926,196.758 115.445,196.737 115.964,196.716 116.483,196.696 117.002,196.677 117.521,196.658 118.04,196.639 118.559,196.621 119.078,196.604 119.597,196.587 120.116,196.571 120.635,196.555 121.154,196.539 121.673,196.524 122.192,196.51 122.711,196.495 123.23,196.482 123.749,196.468 124.268,196.455 124.787,196.443 125.306,196.43 125.825,196.419 126.344,196.407 126.863,196.396 127.382,196.385 127.901,196.374 128.42,196.364 128.939,196.354 129.458,196.344 129.977,196.335 130.496,196.326 131.015,196.317 131.534,196.308 132.053,196.3 132.572,196.291 133.091,196.284 133.61,196.276 134.129,196.268 134.648,196.261 135.167,196.254 135.686,196.247 136.205,196.24 136.724,196.234 137.243,196.228 137.762,196.221 138.281,196.215 138.8,196.21 139.319,196.204 139.838,196.199 140.357,196.193 140.876,196.188 141.395,196.183 141.914,196.178 142.433,196.173 142.952,196.169 143.471,196.164 143.99,196.16 144.509,196.156 145.028,196.151 145.547,196.147 146.066,196.144 146.585,196.14 147.104,196.136 147.623,196.132 148.142,196.129 148.661,196.126 149.18,196.122 149.699,196.119 150.218,196.116 150.737,196.113 151.256,196.11 151.775,196.107 152.294,196.104 152.813,196.102 153.332,196.099 153.851,196.096 154.37,196.094 154.889,196.091 155.408,196.089 155.927,196.087 156.446,196.085 156.965,196.082 157.484,196.08 158.003,196.078 158.522,196.076 159.041,196.074 159.56,196.072 160.079,196.07 160.598,196.069 161.117,196.067 161.636,196.065 162.155,196.064 162.674,196.062 163.193,196.06 163.712,196.059 164.231,196.057 164.75,196.056 165.269,196.054 165.788,196.053 166.307,196.052 166.826,196.05 167.345,196.049 167.864,196.048 168.383,196.047 168.902,196.046 169.421,196.044 169.94,196.043 170.459,196.042 170.978,196.041 171.497,196.04 172.016,196.039 172.535,196.038 173.054,196.037 173.573,196.036 174.092,196.035 174.611,196.035 175.13,196.034 175.649,196.033 176.168,196.032 176.687,196.031 177.206,196.031 177.725,196.03 178.244,196.029 178.763,196.028 179.282,196.028 179.801,196.027 180.32,196.026 180.839,196.026 181.358,196.025 181.877,196.024 182.396,196.024 182.915,196.023 183.434,196.023 183.953,196.022 184.472,196.022 184.991,196.021 185.51,196.021 186.029,196.02 186.548,196.02 187.067,196.019 187.586,196.019 188.105,196.018 188.624,196.018 189.143,196.017 189.662,196.017 190.181,196.017 190.7,196.016 191.219,196.016 191.738,196.015 192.257,196.015 192.776,196.015 193.295,196.014 193.814,196.014 194.333,196.014 194.852,196.013 195.371,196.013 195.89,196.013 196.409,196.013 196.928,196.012 197.447,196.012 197.966,196.012 198.485,196.011 199.004,196.011 199.523,196.011 200.042,196.011 200.561,196.01 201.08,196.01 201.599,196.01 202.118,196.01 202.637,196.009 203.156,196.009 203.675,196.009 204.194,196.009 204.713,196.009 205.232,196.008 205.232,196.008 205.751,196.008 206.27,196.008 206.27,196.008 206.789,196.008 207.308,196.008 207.308,196.008 207.827,196.008 208.346,196.007 208.346,196.007 208.865,196.007 209.384,196.007 209.384,196.007 209.903,196.007 210.422,196.007 210.422,196.007 210.941,196.007 211.46,196.006 211.46,196.006 211.979,196.006 212.498,196.006 212.498,196.006 213.017,196.006 213.536,196.006 213.536,196.006 214.055,196.006 214.574,196.006 214.574,196.006 215.093,196.005 215.612,196.005 215.612,196.005 216.131,196.005 216.65,196.005 216.65,196.005 217.169,196.005 217.688,196.005 217.688,196.005 218.207,196.005 218.726,196.005 218.726,196.005 219.245,196.005 219.764,196.004 219.764,196.004 220.283,196.004 220.802,196.004 220.802,196.004 221.321,196.004 221.84,196.004 221.84,196.004 222.359,196.004 222.878,196.004 222.878,196.004 223.397,196.004 223.916,196.004 223.916,196.004 224.435,196.004 224.954,196.004 224.954,196.004 225.473,196.004 225.992,196.003 225.992,196.003 226.511,196.003 227.03,196.003 227.03,196.003 227.549,196.003 228.068,196.003 228.068,196.003 228.587,196.003 229.106,196.003 229.106,196.003 229.625,196.003 230.144,196.003 230.144,196.003 230.663,196.003 231.182,196.003 231.182,196.003 231.701,196.003 232.22,196.003 232.22,196.003 232.739,196.003 233.258,196.003 233.258,196.003 233.777,196.002 234.296,196.002 234.296,196.002 234.815,196.002 235.334,196.002 235.334,196.002 235.853,196.002 236.372,196.002 236.372,196.002 236.891,196.002 237.41,196.002 237.41,196.002 237.929,196.002 238.448,196.002 238.448,196.002 238.967,196.002 239.486,196.002 239.486,196.002 240.005,196.002 240.524,196.002 240.524,196.002 241.043,196.002 241.562,196.002 241.562,196.002 242.081,196.002 242.6,196.002 242.6,196.002 242.6,196.002 243.119,196.002 243.638,194.497 243.638,194.497 244.157,193.022 244.676,191.576 244.676,191.576 245.195,190.158 245.714,188.769 245.714,188.769 246.233,187.407 246.752,186.073 246.752,186.073 247.271,184.764 247.79,183.482 247.79,183.482 248.309,182.225 248.828,180.993 248.828,180.993 249.347,179.785 249.866,178.601 249.866,178.601 250.385,177.441 250.904,176.303 250.904,176.303 251.423,175.188 251.942,174.095 251.942,174.095 252.461,173.024 252.98,171.974 252.98,171.974 253.499,170.945 254.018,169.936 254.018,169.936 254.537,168.948 255.056,167.978 255.056,167.978 255.575,167.028 256.094,166.097 256.094,166.097 256.613,165.184 257.132,164.289 257.132,164.289 257.651,163.412 258.17,162.553 258.17,162.553 258.689,161.71 259.208,160.884 259.208,160.884 259.727,160.075 260.246,159.281 260.246,159.281 260.765,158.503 261.284,157.741 261.284,157.741 261.803,156.994 262.322,156.261 262.322,156.261 262.841,155.543 263.36,154.839 263.36,154.839 263.879,154.149 264.398,153.473 264.398,153.473 264.917,152.81 265.436,152.161 265.436,152.161 265.955,151.524 266.474,150.9 266.474,150.9 266.993,150.288 267.512,149.688 267.512,149.688 268.031,149.1 268.55,148.524 268.55,148.524 269.069,147.959 269.588,147.405 269.588,147.405 270.107,146.863 270.626,146.331 270.626,146.331 271.145,145.809 271.664,145.298 271.664,145.298 272.183,144.797 272.702,144.306 272.702,144.306 273.221,143.825 273.74,143.353 273.74,143.353 274.259,142.891 274.778,142.438 274.778,142.438 275.297,141.993 275.816,141.558 275.816,141.558 276.335,141.131 276.854,140.712 276.854,140.712 277.373,140.302 277.892,139.9 277.892,139.9 278.411,139.506 278.93,139.12 278.93,139.12 279.449,138.741 279.968,138.37 279.968,138.37 280.487,138.006 281.006,137.65 281.006,137.65 281.525,137.3 282.044,136.958 282.044,136.958 282.563,136.622 283.082,136.293 283.082,136.293 283.601,135.97 284.12,135.654 284.12,135.654 284.639,135.344 285.158,135.04 285.158,135.04 285.677,134.742 286.196,134.45 286.196,134.45 286.715,134.164 287.234,133.884 287.234,133.884 287.753,133.609 288.272,133.339 288.272,133.339 288.791,133.075 289.31,132.816 289.31,132.816 289.829,132.563 290.348,132.314 290.348,132.314 290.867,132.07 291.386,131.831 291.386,131.831 291.905,131.597 292.424,131.367 292.424,131.367 292.943,131.142 293.462,130.921 293.462,130.921 293.981,130.705 294.5,130.493 294.5,130.493 295.019,130.285 295.538,130.082 295.538,130.082 296.057,129.882 296.576,129.686 296.576,129.686 297.095,129.495 297.614,129.307 297.614,129.307 298.133,129.122 298.652,128.942 298.652,128.942 299.171,128.765 299.69,128.591 299.69,128.591 300.209,128.421 300.728,128.254 300.728,128.254 301.247,128.091 301.766,127.931 301.766,127.931 302.285,127.773 302.804,127.62 302.804,127.62 303.323,127.469 303.842,127.321 303.842,127.321 304.361,127.176 304.88,127.034 304.88,127.034 305.399,126.894 305.918,126.758 305.918,126.758 306.437,126.624 306.956,126.493 306.956,126.493 307.475,126.364 307.994,126.238 307.994,126.238 308.513,126.115 309.032,125.994 309.032,125.994 309.551,125.875 310.07,125.759 310.07,125.759 310.589,125.645 311.108,125.533 311.108,125.533 311.627,125.423 312.146,125.316 312.146,125.316 312.665,125.211 313.184,125.108 313.184,125.108 313.703,125.006 314.222,124.907 314.222,124.907 314.741,124.81 315.26,124.715 315.26,124.715 315.779,124.621 316.298,124.53 316.298,124.53 316.817,124.44 317.336,124.352 317.336,124.352 317.855,124.266 318.374,124.182 318.374,124.182 318.893,124.099 319.412,124.018 319.412,124.018 319.931,123.938 320.45,123.86 320.45,123.86 320.969,123.784 321.488,123.709 321.488,123.709 322.007,123.635 322.526,123.563 322.526,123.563 323.045,123.493 323.564,123.424 323.564,123.424 324.083,123.356 324.602,123.289 324.602,123.289 325.121,123.224 325.64,123.16 325.64,123.16 326.159,123.098 326.678,123.036 326.678,123.036 327.197,122.976 327.716,122.917 327.716,122.917 328.235,122.86 328.754,122.803 328.754,122.803 329.273,122.748 329.792,122.693 329.792,122.693 330.311,122.64 330.83,122.588 330.83,122.588 331.349,122.536 331.868,122.486 331.868,122.486 332.387,122.437 332.906,122.389 332.906,122.389 333.425,122.341 333.944,122.295 333.944,122.295 334.463,122.249 334.982,122.205 334.982,122.205 335.501,122.161 336.02,122.118 336.02,122.118 336.539,122.077 337.058,122.035 337.058,122.035 337.577,121.995 338.096,121.956 338.096,121.956 338.615,121.917 339.134,121.879 339.134,121.879 339.653,121.842 340.172,121.805 340.172,121.805 340.691,121.769 341.21,121.734 341.21,121.734 341.729,121.7 342.248,121.666 342.248,121.666 342.767,121.633 343.286,121.601 343.286,121.601 343.805,121.569 344.324,121.538 344.324,121.538 344.843,121.508 345.362,121.478 345.362,121.478 345.881,121.449 346.4,121.42 346.4,121.42 346.4,121.42 346.919,121.392 347.438,121.364 347.438,121.364 347.957,121.337 348.476,121.311 348.476,121.311 348.995,121.285 349.514,121.259 349.514,121.259 350.033,121.235 350.552,121.21 350.552,121.21 351.071,121.186 351.59,121.163 351.59,121.163 352.109,121.14 352.628,121.117 352.628,121.117 353.147,121.095 353.666,121.073 353.666,121.073 354.185,121.052 354.704,121.031 354.704,121.031 355.223,121.011 355.742,120.991 355.742,120.991 356.261,120.971 356.78,120.952 356.78,120.952 357.299,120.933 357.818,120.915 357.818,120.915 358.337,120.896 358.856,120.879 358.856,120.879 359.375,120.861 359.894,120.844 359.894,120.844 360.413,120.828 360.932,120.811 360.932,120.811 361.451,120.795 361.97,120.779 361.97,120.779 362.489,120.764 363.008,120.749 363.008,120.749 363.527,120.734 364.046,120.719 364.046,120.719 364.565,120.705 365.084,120.691 365.084,120.691 365.603,120.678 366.122,120.664 366.122,120.664 366.641,120.651 367.16,120.638 367.16,120.638 367.679,120.625 368.198,120.613 368.198,120.613 368.717,120.601 369.236,120.589 369.236,120.589 369.755,120.577 370.274,120.566 370.274,120.566 370.793,120.555 371.312,120.544 371.312,120.544 371.831,120.533 372.35,120.522 372.35,120.522 372.869,120.512 373.388,120.502 373.388,120.502 373.907,120.492 374.426,120.482 374.426,120.482 374.945,120.473 375.464,120.463 375.464,120.463 375.983,120.454 376.502,120.445 376.502,120.445 377.021,120.436 377.54,120.428 377.54,120.428 378.059,120.419 378.578,120.411 378.578,120.411 379.097,120.403 379.616,120.395 379.616,120.395 380.135,120.387 380.654,120.379 380.654,120.379 381.173,120.372 381.692,120.364 381.692,120.364 382.211,120.357 382.73,120.35 382.73,120.35 383.249,120.343 383.768,120.336 383.768,120.336 384.287,120.33 384.806,120.323 384.806,120.323 385.325,120.317 385.844,120.311 385.844,120.311 386.363,120.304 386.882,120.298 386.882,120.298 387.401,120.292 387.92,120.287 387.92,120.287 388.439,120.281 388.958,120.275 388.958,120.275 389.477,120.27 389.996,120.265 389.996,120.265 390.515,120.259 391.034,120.254 391.034,120.254 391.553,120.249 392.072,120.244 392.072,120.244 392.591,120.239 393.11,120.235 393.11,120.235 393.629,120.23 394.148,120.226 394.148,120.226 394.667,120.221 395.186,120.217 395.186,120.217 395.705,120.212 396.224,120.208 396.224,120.208 396.743,120.204 397.262,120.2 397.262,120.2 397.781,120.196 398.3,120.192 398.3,120.192 398.819,120.188 399.338,120.185 399.338,120.185 399.857,120.181 400.376,120.177 400.376,120.177 400.895,120.174 401.414,120.17 401.414,120.17 401.933,120.167 402.452,120.164 402.452,120.164 402.971,120.161 403.49,120.157 403.49,120.157 404.009,120.154 404.528,120.151 404.528,120.151 405.047,120.148 405.566,120.145 405.566,120.145 406.085,120.142 406.604,120.14 406.604,120.14 407.123,120.137 407.642,120.134 407.642,120.134 408.161,120.131 408.68,120.129 409.199,120.126 409.718,120.124 410.237,120.121 410.756,120.119 411.275,120.117 411.794,120.114 412.313,120.112 412.832,120.11 413.351,120.108 413.87,120.105 414.389,120.103 414.908,120.101 415.427,120.099 415.946,120.097 416.465,120.095 416.984,120.094 417.503,120.092 418.022,120.09 418.541,120.088 419.06,120.086 419.579,120.085 420.098,120.083 420.617,120.081 421.136,120.08 421.655,120.078 422.174,120.077 422.693,120.075 423.212,120.074 423.731,120.072 424.25,120.071 424.769,120.069 425.288,120.068 425.807,120.067 426.326,120.065 426.845,120.064 427.364,120.063 427.883,120.061 428.402,120.06 428.921,120.059 429.44,120.058 429.959,120.057 430.478,120.056 430.997,120.055 431.516,120.053 432.035,120.052 432.554,120.051 433.073,120.05 433.592,120.049 434.111,120.086 434.63,120.166 435.149,120.287 435.668,120.447 436.187,120.643 436.706,120.875 437.225,121.14 437.744,121.437 438.263,121.762 438.782,122.116 439.301,122.497 439.82,122.902 440.339,123.33 440.858,123.781 441.377,124.252 441.896,124.742 442.415,125.25 442.934,125.776 442.934,125.776 443.453,126.316 443.972,126.872 443.972,126.872 444.491,127.441 445.01,128.023 445.01,128.023 445.529,128.616 446.048,129.221 446.048,129.221 446.567,129.834 447.086,130.457 447.086,130.457 447.605,131.088 448.124,131.726 448.124,131.726 448.643,132.371 449.162,133.021 449.162,133.021 449.681,133.677 450.2,134.337 450.2,134.337 450.719,135.002 451.238,135.669 451.238,135.669 451.757,136.34 452.276,137.012 452.276,137.012 452.795,137.687 453.314,138.362 453.314,138.362 453.833,139.039 454.352,139.716 454.352,139.716 454.871,140.392 455.39,141.069 455.39,141.069 455.909,141.744 456.428,142.418 456.428,142.418 456.947,143.09 457.466,143.761 457.466,143.761 457.985,144.43 458.504,145.096 458.504,145.096 459.023,145.76 459.542,146.42 459.542,146.42 460.061,147.078 460.58,147.731 460.58,147.731 461.099,148.381 461.618,149.028 461.618,149.028 462.137,149.67 462.656,150.308 462.656,150.308 463.175,150.941 463.694,151.57 463.694,151.57 464.213,152.194 464.732,152.813 464.732,152.813 465.251,153.427 465.77,154.037 465.77,154.037 466.289,154.64 466.808,155.239 466.808,155.239 467.327,155.832 467.846,156.42 467.846,156.42 468.365,157.002 468.884,157.578 468.884,157.578 469.403,158.149 469.922,158.714 469.922,158.714 470.441,159.273 470.96,159.826 470.96,159.826 471.479,160.373 471.998,160.915 471.998,160.915 472.517,161.45 473.036,161.98 473.036,161.98 473.555,162.503 474.074,163.021 474.074,163.021 474.593,163.532 475.112,164.038 475.112,164.038 475.631,164.537 476.15,165.03 476.15,165.03 476.669,165.517 477.188,165.999 477.188,165.999 477.707,166.474 478.226,166.943 478.226,166.943 478.745,167.407 479.264,167.864 479.264,167.864 479.783,168.315 480.302,168.761 480.302,168.761 480.821,169.201 481.34,169.635 481.34,169.635 481.859,170.062 482.378,170.485 482.378,170.485 482.897,170.901 483.416,171.312 483.416,171.312 483.935,171.717 484.454,172.117 484.454,172.117 484.973,172.51 485.492,172.899 485.492,172.899 486.011,173.282 486.53,173.659 486.53,173.659 487.049,174.031 487.568,174.398 487.568,174.398 488.087,174.759 488.606,175.115 488.606,175.115 489.125,175.466 489.644,175.811 489.644,175.811 490.163,176.152 490.682,176.487 490.682,176.487 491.201,176.818 491.72,177.143 491.72,177.143 492.239,177.464 492.758,177.78 492.758,177.78 493.277,178.09 493.796,178.397 493.796,178.397 494.315,178.698 494.834,178.995 494.834,178.995 495.353,179.287 495.872,179.575 495.872,179.575 496.391,179.858 496.91,180.137 496.91,180.137 497.429,180.411 497.948,180.681 497.948,180.681 498.467,180.947 498.986,181.209 498.986,181.209 499.505,181.466 500.024,181.719 500.024,181.719 500.543,181.968 501.062,182.214 501.062,182.214 501.581,182.455 502.1,182.692 502.1,182.692 502.619,182.926 503.138,183.156 503.138,183.156 503.657,183.382 504.176,183.604 504.176,183.604 504.695,183.823 505.214,184.038 505.214,184.038 505.733,184.249 506.252,184.457 506.252,184.457 506.771,184.662 507.29,184.863 507.29,184.863 507.809,185.061 508.328,185.256 508.328,185.256 508.847,185.447 509.366,185.635 509.366,185.635 509.885,185.82 510.404,186.002 510.404,186.002 510.923,186.181 511.442,186.357 511.442,186.357 511.961,186.529 512.48,186.699 512.48,186.699 512.999,186.866 513.518,187.031 513.518,187.031 514.037,187.192 514.556,187.35 514.556,187.35 515.075,187.506 515.594,187.66 515.594,187.66 516.113,187.81 516.632,187.958 516.632,187.958 517.151,188.104 517.67,188.247 517.67,188.247 518.189,188.387 518.708,188.525 518.708,188.525 519.227,188.661 519.746,188.794 519.746,188.794 520.265,188.925 520.784,189.054 520.784,189.054 521.303,189.18 521.822,189.304 521.822,189.304 522.341,189.426 522.86,189.546 522.86,189.546 523.379,189.664 523.898,189.78 523.898,189.78 524.417,189.894 524.936,190.005 524.936,190.005 525.455,190.115 525.974,190.223 525.974,190.223 526.493,190.329 527.012,190.433 527.012,190.433 527.531,190.535 528.05,190.636 528.05,190.636 528.569,190.734 529.088,190.831 529.088,190.831 529.607,190.926 530.126,191.02 530.126,191.02 530.645,191.111 531.164,191.202 531.164,191.202 531.683,191.29 532.202,191.377 532.202,191.377 532.721,191.462 533.24,191.546 533.24,191.546 533.759,191.628 534.278,191.709 534.278,191.709 534.797,191.789 535.316,191.867 535.316,191.867 535.835,191.943 536.354,192.019 536.354,192.019 536.873,192.092 537.392,192.165 537.392,192.165 537.911,192.236 538.43,192.306 538.43,192.306 538.949,192.375 539.468,192.442 539.468,192.442 539.987,192.508 540.506,192.573 540.506,192.573 541.025,192.637 541.544,192.7 541.544,192.7 542.063,192.761 542.582,192.822 542.582,192.822 543.101,192.881 543.62,192.939 543.62,192.939 544.139,192.996 544.658,193.052 544.658,193.052 545.177,193.107 545.696,193.161 545.696,193.161 546.215,193.214 546.734,193.267 546.734,193.267 547.253,193.318 547.772,193.368 547.772,193.368 548.291,193.417 548.81,193.466 548.81,193.466 549.329,193.513 549.848,193.56 549.848,193.56 550.367,193.605 550.886,193.65 550.886,193.65 551.405,193.694 551.924,193.738 551.924,193.738 552.443,193.78 552.962,193.822 552.962,193.822 553.481,193.863 554,193.903 554,193.903 " />
</g>

<g fill="none" stroke="#000000" stroke-opacity="1" stroke-width="1" stroke-linecap="square" stroke-linejoin="bevel" transform="matrix(0.885417,0,0,0.885417,0,0)"
font-family="Sans Serif" font-size="10.625" font-weight="400" font-style="normal" 
>
</g>

<g fill="none" stroke="#000000" stroke-opacity="1" stroke-width="1" stroke-linecap="square" stroke-linejoin="bevel" transform="matrix(0.885417,0,0,0.885417,0,0)"
font-family="Sans Serif" font-size="10.625" font-weight="400" font-style="normal" 
>
</g>

<g fill="none" stroke="#000000" stroke-opacity="1" stroke-width="1" stroke-linecap="square" stroke-linejoin="bevel" transform="matrix(0.885417,0,0,0.885417,0,0)"
font-family="Sans Serif" font-size="10.625" font-weight="400" font-style="normal" 
>
</g>

<g fill="none" stroke="#000000" stroke-opacity="1" stroke-width="1" stroke-linecap="square" stroke-linejoin="bevel" transform="matrix(0.885417,0,0,0.885417,0,0)"
font-family="Sans Serif" font-size="10.625" font-weight="400" font-style="normal" 
>
</g>

<g fill="none" stroke="#000000" stroke-opacity="1" stroke-width="1" stroke-linecap="square" stroke-linejoin="bevel" transform="matrix(0.885417,0,0,0.885417,32.7604,1.77083)"
font-family="Sans Serif" font-size="10.625" font-weight="400" font-style="normal" 
>
</g>

<g fill="none" stroke="#ff0000" stroke-opacity="1" stroke-width="1" stroke-linecap="butt" stroke-linejoin="bevel" transform="matrix(1,0,0,1,0,0)"
font-family="Sans Serif" font-size="10.625" font-weight="400" font-style="normal" 
>
<path vector-effect="none" fill-rule="evenodd" d="M32.7604,15.0521 L59.3229,15.0521"/>
</g>

<g fill="none" stroke="#000000" stroke-opacity="1" stroke-width="1" stroke-linecap="square" stroke-linejoin="bevel" transform="matrix(0.885417,0,0,0.885417,32.7604,1.77083)"
font-family="Sans Serif" font-size="10.625" font-weight="400" font-style="normal" 
>
</g>

<g fill="none" stroke="#000000" stroke-opacity="1" stroke-width="1" stroke-linecap="square" stroke-linejoin="bevel" transform="matrix(0.885417,0,0,0.885417,0,0)"
font-family="Sans Serif" font-size="10.625" font-weight="400" font-style="normal" 
>
</g>

<g fill="none" stroke="#000000" stroke-opacity="1" stroke-width="1" stroke-linecap="square" stroke-linejoin="bevel" transform="matrix(0.885417,0,0,0.885417,0,0)"
font-family="Sans Serif" font-size="12" font-weight="400" font-style="normal" 
>
</g>

<g fill="none" stroke="#000000" stroke-opacity="1" stroke-width="1" stroke-linecap="square" stroke-linejoin="bevel" transform="matrix(0.885417,0,0,0.885417,0,0)"
font-family="Sans Serif" font-size="12" font-weight="400" font-style="normal" 
>
<text fill="#000000" fill-opacity="1" stroke="none" xml:space="preserve" x="71" y="21" font-family="Sans Serif" font-size="12" font-weight="400" font-style="normal" 
 >w</text>
</g>

<g fill="none" stroke="#000000" stroke-opacity="1" stroke-width="1" stroke-linecap="square" stroke-linejoin="bevel" transform="matrix(0.885417,0,0,0.885417,0,0)"
font-family="Sans Serif" font-size="10.625" font-weight="400" font-style="normal" 
>
</g>

<g fill="none" stroke="#000000" stroke-opacity="1" stroke-width="1" stroke-linecap="square" stroke-linejoin="bevel" transform="matrix(0.885417,0,0,0.885417,0,0)"
font-family="Sans Serif" font-size="10.625" font-weight="400" font-style="normal" 
>
</g>

<g fill="none" stroke="#000000" stroke-opacity="1" stroke-width="1" stroke-linecap="square" stroke-linejoin="bevel" transform="matrix(0.885417,0,0,0.885417,0,0)"
font-family="Sans Serif" font-size="10.625" font-weight="400" font-style="normal" 
>
</g>

<g fill="none" stroke="#000000" stroke-opacity="1" stroke-width="1" stroke-linecap="square" stroke-linejoin="bevel" transform="matrix(0.885417,0,0,0.885417,0,0)"
font-family="Sans Serif" font-size="10.625" font-weight="400" font-style="normal" 
>
</g>

<g fill="none" stroke="#000000" stroke-opacity="1" stroke-width="1" stroke-linecap="square" stroke-linejoin="bevel" transform="matrix(0.885417,0,0,0.885417,82.3438,1.77083)"
font-family="Sans Serif" font-size="10.625" font-weight="400" font-style="normal" 
>
</g>

<g fill="none" stroke="#0000ff" stroke-opacity="1" stroke-width="1" stroke-linecap="butt" stroke-linejoin="bevel" transform="matrix(1,0,0,1,0,0)"
font-family="Sans Serif" font-size="10.625" font-weight="400" font-style="normal" 
>
<path vector-effect="none" fill-rule="evenodd" d="M82.3438,15.0521 L108.906,15.0521"/>
</g>

<g fill="none" stroke="#000000" stroke-opacity="1" stroke-width="1" stroke-linecap="square" stroke-linejoin="bevel" transform="matrix(0.885417,0,0,0.885417,82.3438,1.77083)"
font-family="Sans Serif" font-size="10.625" font-weight="400" font-style="normal" 
>
</g>

<g fill="none" stroke="#000000" stroke-opacity="1" stroke-width="1" stroke-linecap="square" stroke-linejoin="bevel" transform="matrix(0.885417,0,0,0.885417,0,0)"
font-family="Sans Serif" font-size="10.625" font-weight="400" font-style="normal" 
>
</g>

<g fill="none" stroke="#000000" stroke-opacity="1" stroke-width="1" stroke-linecap="square" stroke-linejoin="bevel" transform="matrix(0.885417,0,0,0.885417,0,0)"
font-family="Sans Serif" font-size="12" font-weight="400" font-style="normal" 
>
</g>

<g fill="none" stroke="#000000" stroke-opacity="1" stroke-width="1" stroke-linecap="square" stroke-linejoin="bevel" transform="matrix(0.885417,0,0,0.885417,0,0)"
font-family="Sans Serif" font-size="12" font-weight="400" font-style="normal" 
>
<text fill="#000000" fill-opacity="1" stroke="none" xml:space="preserve" x="127" y="21" font-family="Sans Serif" font-size="12" font-weight="400" font-style="normal" 
 >y</text>
</g>

<g fill="none" stroke="#000000" stroke-opacity="1" stroke-width="1" stroke-linecap="square" stroke-linejoin="bevel" transform="matrix(0.885417,0,0,0.885417,0,0)"
font-family="Sans Serif" font-size="10.625" font-weight="400" font-style="normal" 
>
</g>

<g fill="none" stroke="#000000" stroke-opacity="1" stroke-width="1" stroke-linecap="square" stroke-linejoin="bevel" transform="matrix(0.885417,0,0,0.885417,0,0)"
font-family="Sans Serif" font-size="10.625" font-weight="400" font-style="normal" 
>
</g>

<g fill="none" stroke="#000000" stroke-opacity="1" stroke-width="1" stroke-linecap="square" stroke-linejoin="bevel" transform="matrix(0.885417,0,0,0.885417,0,0)"
font-family="Sans Serif" font-size="10.625" font-weight="400" font-style="normal" 
>
</g>

<g fill="none" stroke="#000000" stroke-opacity="1" stroke-width="1" stroke-linecap="square" stroke-linejoin="bevel" transform="matrix(0,-0.885417,0.885417,0,0,245.26)"
font-family="DejaVu Sans" font-size="11.8056" font-weight="400" font-style="normal" 
>
</g>

<g fill="none" stroke="#000000" stroke-opacity="1" stroke-width="1" stroke-linecap="square" stroke-linejoin="bevel" transform="matrix(0,-0.885417,0.885417,0,0,245.26)"
font-family="DejaVu Sans" font-size="12.9861" font-weight="400" font-style="normal" 
>
</g>

<g fill="none" stroke="#000000" stroke-opacity="1" stroke-width="1" stroke-linecap="square" stroke-linejoin="bevel" transform="matrix(0,-0.885417,0.885417,0,0,245.26)"
font-family="DejaVu Sans" font-size="12.9861" font-weight="400" font-style="normal" 
>
</g>

<g fill="none" stroke="#000000" stroke-opacity="1" stroke-width="1" stroke-linecap="square" stroke-linejoin="bevel" transform="matrix(0,-0.885417,0.885417,0,0,245.26)"
font-family="DejaVu Sans" font-size="11.8056" font-weight="400" font-style="normal" 
>
</g>

<g fill="none" stroke="#000000" stroke-opacity="1" stroke-width="1" stroke-linecap="square" stroke-linejoin="bevel" transform="matrix(0.885417,0,0,0.885417,0,0)"
font-family="Sans Serif" font-size="10.625" font-weight="400" font-style="normal" 
>
</g>

<g fill="none" stroke="#000000" stroke-opacity="1" stroke-width="1" stroke-linecap="square" stroke-linejoin="bevel" transform="matrix(0.885417,0,0,0.885417,0,0)"
font-family="DejaVu Sans" font-size="11.8056" font-weight="400" font-style="normal" 
>
</g>

<g fill="none" stroke="#000000" stroke-opacity="1" stroke-width="1" stroke-linecap="square" stroke-linejoin="bevel" transform="matrix(0.885417,0,0,0.885417,0,0)"
font-family="DejaVu Sans" font-size="11.8056" font-weight="400" font-style="normal" 
>
</g>

<g fill="none" stroke="#000000" stroke-opacity="1" stroke-width="1" stroke-linecap="square" stroke-linejoin="bevel" transform="matrix(0.885417,0,0,0.885417,0,0)"
font-family="DejaVu Sans" font-size="11.8056" font-weight="400" font-style="normal" 
>
</g>

<g fill="none" stroke="#000000" stroke-opacity="1" stroke-width="1" stroke-linecap="square" stroke-linejoin="bevel" transform="matrix(0.885417,0,0,0.885417,11.2752,236.406)"
font-family="DejaVu Sans" font-size="11.8056" font-weight="400" font-style="normal" 
>
</g>

<g fill="none" stroke="#000000" stroke-opacity="1" stroke-width="1" stroke-linecap="square" stroke-linejoin="bevel" transform="matrix(0.885417,0,0,0.885417,11.2752,236.406)"
font-family="DejaVu Sans" font-size="13" font-weight="400" font-style="normal" 
>
</g>

<g fill="none" stroke="#000000" stroke-opacity="1" stroke-width="1" stroke-linecap="square" stroke-linejoin="bevel" transform="matrix(0.885417,0,0,0.885417,11.2752,236.406)"
font-family="DejaVu Sans" font-size="13" font-weight="400" font-style="normal" 
>
</g>

<g fill="none" stroke="#000000" stroke-opacity="1" stroke-width="1" stroke-linecap="square" stroke-linejoin="bevel" transform="matrix(0.885417,0,0,0.885417,11.2752,236.406)"
font-family="DejaVu Sans" font-size="13" font-weight="400" font-style="normal" 
>
<text fill="#000000" fill-opacity="1" stroke="none" xml:space="preserve" x="0" y="10" font-family="DejaVu Sans" font-size="13" font-weight="400" font-style="normal" 
 >0</text>
</g>

<g fill="none" stroke="#000000" stroke-opacity="1" stroke-width="1" stroke-linecap="square" stroke-linejoin="bevel" transform="matrix(0.885417,0,0,0.885417,11.2752,236.406)"
font-family="DejaVu Sans" font-size="13" font-weight="400" font-style="normal" 
>
</g>

<g fill="none" stroke="#000000" stroke-opacity="1" stroke-width="1" stroke-linecap="square" stroke-linejoin="bevel" transform="matrix(0.885417,0,0,0.885417,11.2752,236.406)"
font-family="DejaVu Sans" font-size="11.8056" font-weight="400" font-style="normal" 
>
</g>

<g fill="none" stroke="#000000" stroke-opacity="1" stroke-width="1" stroke-linecap="square" stroke-linejoin="bevel" transform="matrix(0.885417,0,0,0.885417,11.2752,236.406)"
font-family="DejaVu Sans" font-size="11.8056" font-weight="400" font-style="normal" 
>
</g>

<g fill="none" stroke="#000000" stroke-opacity="1" stroke-width="1" stroke-linecap="square" stroke-linejoin="bevel" transform="matrix(0.885417,0,0,0.885417,0,0)"
font-family="DejaVu Sans" font-size="11.8056" font-weight="400" font-style="normal" 
>
</g>

<g fill="none" stroke="#000000" stroke-opacity="1" stroke-width="1" stroke-linecap="square" stroke-linejoin="bevel" transform="matrix(0.885417,0,0,0.885417,0.304362,202.76)"
font-family="DejaVu Sans" font-size="11.8056" font-weight="400" font-style="normal" 
>
</g>

<g fill="none" stroke="#000000" stroke-opacity="1" stroke-width="1" stroke-linecap="square" stroke-linejoin="bevel" transform="matrix(0.885417,0,0,0.885417,0.304362,202.76)"
font-family="DejaVu Sans" font-size="13" font-weight="400" font-style="normal" 
>
</g>

<g fill="none" stroke="#000000" stroke-opacity="1" stroke-width="1" stroke-linecap="square" stroke-linejoin="bevel" transform="matrix(0.885417,0,0,0.885417,0.304362,202.76)"
font-family="DejaVu Sans" font-size="13" font-weight="400" font-style="normal" 
>
<text fill="#000000" fill-opacity="1" stroke="none" xml:space="preserve" x="0" y="10" font-family="DejaVu Sans" font-size="13" font-weight="400" font-style="normal" 
 >0.5</text>
</g>

<g fill="none" stroke="#000000" stroke-opacity="1" stroke-width="1" stroke-linecap="square" stroke-linejoin="bevel" transform="matrix(0.885417,0,0,0.885417,0.304362,202.76)"
font-family="DejaVu Sans" font-size="11.8056" font-weight="400" font-style="normal" 
>
</g>

<g fill="none" stroke="#000000" stroke-opacity="1" stroke-width="1" stroke-linecap="square" stroke-linejoin="bevel" transform="matrix(0.885417,0,0,0.885417,0.304362,202.76)"
font-family="DejaVu Sans" font-size="11.8056" font-weight="400" font-style="normal" 
>
</g>

<g fill="none" stroke="#000000" stroke-opacity="1" stroke-width="1" stroke-linecap="square" stroke-linejoin="bevel" transform="matrix(0.885417,0,0,0.885417,0,0)"
font-family="DejaVu Sans" font-size="11.8056" font-weight="400" font-style="normal" 
>
</g>

<g fill="none" stroke="#000000" stroke-opacity="1" stroke-width="1" stroke-linecap="square" stroke-linejoin="bevel" transform="matrix(0.885417,0,0,0.885417,11.2752,169.115)"
font-family="DejaVu Sans" font-size="11.8056" font-weight="400" font-style="normal" 
>
</g>

<g fill="none" stroke="#000000" stroke-opacity="1" stroke-width="1" stroke-linecap="square" stroke-linejoin="bevel" transform="matrix(0.885417,0,0,0.885417,11.2752,169.115)"
font-family="DejaVu Sans" font-size="13" font-weight="400" font-style="normal" 
>
</g>

<g fill="none" stroke="#000000" stroke-opacity="1" stroke-width="1" stroke-linecap="square" stroke-linejoin="bevel" transform="matrix(0.885417,0,0,0.885417,11.2752,169.115)"
font-family="DejaVu Sans" font-size="13" font-weight="400" font-style="normal" 
>
</g>

<g fill="none" stroke="#000000" stroke-opacity="1" stroke-width="1" stroke-linecap="square" stroke-linejoin="bevel" transform="matrix(0.885417,0,0,0.885417,11.2752,169.115)"
font-family="DejaVu Sans" font-size="13" font-weight="400" font-style="normal" 
>
<text fill="#000000" fill-opacity="1" stroke="none" xml:space="preserve" x="0" y="10" font-family="DejaVu Sans" font-size="13" font-weight="400" font-style="normal" 
 >1</text>
</g>

<g fill="none" stroke="#000000" stroke-opacity="1" stroke-width="1" stroke-linecap="square" stroke-linejoin="bevel" transform="matrix(0.885417,0,0,0.885417,11.2752,169.115)"
font-family="DejaVu Sans" font-size="13" font-weight="400" font-style="normal" 
>
</g>

<g fill="none" stroke="#000000" stroke-opacity="1" stroke-width="1" stroke-linecap="square" stroke-linejoin="bevel" transform="matrix(0.885417,0,0,0.885417,11.2752,169.115)"
font-family="DejaVu Sans" font-size="11.8056" font-weight="400" font-style="normal" 
>
</g>

<g fill="none" stroke="#000000" stroke-opacity="1" stroke-width="1" stroke-linecap="square" stroke-linejoin="bevel" transform="matrix(0.885417,0,0,0.885417,11.2752,169.115)"
font-family="DejaVu Sans" font-size="11.8056" font-weight="400" font-style="normal" 
>
</g>

<g fill="none" stroke="#000000" stroke-opacity="1" stroke-width="1" stroke-linecap="square" stroke-linejoin="bevel" transform="matrix(0.885417,0,0,0.885417,0,0)"
font-family="DejaVu Sans" font-size="11.8056" font-weight="400" font-style="normal" 
>
</g>

<g fill="none" stroke="#000000" stroke-opacity="1" stroke-width="1" stroke-linecap="square" stroke-linejoin="bevel" transform="matrix(0.885417,0,0,0.885417,0.304362,135.469)"
font-family="DejaVu Sans" font-size="11.8056" font-weight="400" font-style="normal" 
>
</g>

<g fill="none" stroke="#000000" stroke-opacity="1" stroke-width="1" stroke-linecap="square" stroke-linejoin="bevel" transform="matrix(0.885417,0,0,0.885417,0.304362,135.469)"
font-family="DejaVu Sans" font-size="13" font-weight="400" font-style="normal" 
>
</g>

<g fill="none" stroke="#000000" stroke-opacity="1" stroke-width="1" stroke-linecap="square" stroke-linejoin="bevel" transform="matrix(0.885417,0,0,0.885417,0.304362,135.469)"
font-family="DejaVu Sans" font-size="13" font-weight="400" font-style="normal" 
>
<text fill="#000000" fill-opacity="1" stroke="none" xml:space="preserve" x="0" y="10" font-family="DejaVu Sans" font-size="13" font-weight="400" font-style="normal" 
 >1.5</text>
</g>

<g fill="none" stroke="#000000" stroke-opacity="1" stroke-width="1" stroke-linecap="square" stroke-linejoin="bevel" transform="matrix(0.885417,0,0,0.885417,0.304362,135.469)"
font-family="DejaVu Sans" font-size="11.8056" font-weight="400" font-style="normal" 
>
</g>

<g fill="none" stroke="#000000" stroke-opacity="1" stroke-width="1" stroke-linecap="square" stroke-linejoin="bevel" transform="matrix(0.885417,0,0,0.885417,0.304362,135.469)"
font-family="DejaVu Sans" font-size="11.8056" font-weight="400" font-style="normal" 
>
</g>

<g fill="none" stroke="#000000" stroke-opacity="1" stroke-width="1" stroke-linecap="square" stroke-linejoin="bevel" transform="matrix(0.885417,0,0,0.885417,0,0)"
font-family="DejaVu Sans" font-size="11.8056" font-weight="400" font-style="normal" 
>
</g>

<g fill="none" stroke="#000000" stroke-opacity="1" stroke-width="1" stroke-linecap="square" stroke-linejoin="bevel" transform="matrix(0.885417,0,0,0.885417,11.2752,101.823)"
font-family="DejaVu Sans" font-size="11.8056" font-weight="400" font-style="normal" 
>
</g>

<g fill="none" stroke="#000000" stroke-opacity="1" stroke-width="1" stroke-linecap="square" stroke-linejoin="bevel" transform="matrix(0.885417,0,0,0.885417,11.2752,101.823)"
font-family="DejaVu Sans" font-size="13" font-weight="400" font-style="normal" 
>
</g>

<g fill="none" stroke="#000000" stroke-opacity="1" stroke-width="1" stroke-linecap="square" stroke-linejoin="bevel" transform="matrix(0.885417,0,0,0.885417,11.2752,101.823)"
font-family="DejaVu Sans" font-size="13" font-weight="400" font-style="normal" 
>
</g>

<g fill="none" stroke="#000000" stroke-opacity="1" stroke-width="1" stroke-linecap="square" stroke-linejoin="bevel" transform="matrix(0.885417,0,0,0.885417,11.2752,101.823)"
font-family="DejaVu Sans" font-size="13" font-weight="400" font-style="normal" 
>
<text fill="#000000" fill-opacity="1" stroke="none" xml:space="preserve" x="0" y="10" font-family="DejaVu Sans" font-size="13" font-weight="400" font-style="normal" 
 >2</text>
</g>

<g fill="none" stroke="#000000" stroke-opacity="1" stroke-width="1" stroke-linecap="square" stroke-linejoin="bevel" transform="matrix(0.885417,0,0,0.885417,11.2752,101.823)"
font-family="DejaVu Sans" font-size="13" font-weight="400" font-style="normal" 
>
</g>

<g fill="none" stroke="#000000" stroke-opacity="1" stroke-width="1" stroke-linecap="square" stroke-linejoin="bevel" transform="matrix(0.885417,0,0,0.885417,11.2752,101.823)"
font-family="DejaVu Sans" font-size="11.8056" font-weight="400" font-style="normal" 
>
</g>

<g fill="none" stroke="#000000" stroke-opacity="1" stroke-width="1" stroke-linecap="square" stroke-linejoin="bevel" transform="matrix(0.885417,0,0,0.885417,11.2752,101.823)"
font-family="DejaVu Sans" font-size="11.8056" font-weight="400" font-style="normal" 
>
</g>

<g fill="none" stroke="#000000" stroke-opacity="1" stroke-width="1" stroke-linecap="square" stroke-linejoin="bevel" transform="matrix(0.885417,0,0,0.885417,0,0)"
font-family="DejaVu Sans" font-size="11.8056" font-weight="400" font-style="normal" 
>
</g>

<g fill="none" stroke="#000000" stroke-opacity="1" stroke-width="1" stroke-linecap="square" stroke-linejoin="bevel" transform="matrix(0.885417,0,0,0.885417,0.304362,68.1771)"
font-family="DejaVu Sans" font-size="11.8056" font-weight="400" font-style="normal" 
>
</g>

<g fill="none" stroke="#000000" stroke-opacity="1" stroke-width="1" stroke-linecap="square" stroke-linejoin="bevel" transform="matrix(0.885417,0,0,0.885417,0.304362,68.1771)"
font-family="DejaVu Sans" font-size="13" font-weight="400" font-style="normal" 
>
</g>

<g fill="none" stroke="#000000" stroke-opacity="1" stroke-width="1" stroke-linecap="square" stroke-linejoin="bevel" transform="matrix(0.885417,0,0,0.885417,0.304362,68.1771)"
font-family="DejaVu Sans" font-size="13" font-weight="400" font-style="normal" 
>
<text fill="#000000" fill-opacity="1" stroke="none" xml:space="preserve" x="0" y="10" font-family="DejaVu Sans" font-size="13" font-weight="400" font-style="normal" 
 >2.5</text>
</g>

<g fill="none" stroke="#000000" stroke-opacity="1" stroke-width="1" stroke-linecap="square" stroke-linejoin="bevel" transform="matrix(0.885417,0,0,0.885417,0.304362,68.1771)"
font-family="DejaVu Sans" font-size="11.8056" font-weight="400" font-style="normal" 
>
</g>

<g fill="none" stroke="#000000" stroke-opacity="1" stroke-width="1" stroke-linecap="square" stroke-linejoin="bevel" transform="matrix(0.885417,0,0,0.885417,0.304362,68.1771)"
font-family="DejaVu Sans" font-size="11.8056" font-weight="400" font-style="normal" 
>
</g>

<g fill="none" stroke="#000000" stroke-opacity="1" stroke-width="1" stroke-linecap="square" stroke-linejoin="bevel" transform="matrix(0.885417,0,0,0.885417,0,0)"
font-family="DejaVu Sans" font-size="11.8056" font-weight="400" font-style="normal" 
>
</g>

<g fill="none" stroke="#000000" stroke-opacity="1" stroke-width="1" stroke-linecap="square" stroke-linejoin="bevel" transform="matrix(0.885417,0,0,0.885417,11.2752,34.5312)"
font-family="DejaVu Sans" font-size="11.8056" font-weight="400" font-style="normal" 
>
</g>

<g fill="none" stroke="#000000" stroke-opacity="1" stroke-width="1" stroke-linecap="square" stroke-linejoin="bevel" transform="matrix(0.885417,0,0,0.885417,11.2752,34.5312)"
font-family="DejaVu Sans" font-size="13" font-weight="400" font-style="normal" 
>
</g>

<g fill="none" stroke="#000000" stroke-opacity="1" stroke-width="1" stroke-linecap="square" stroke-linejoin="bevel" transform="matrix(0.885417,0,0,0.885417,11.2752,34.5312)"
font-family="DejaVu Sans" font-size="13" font-weight="400" font-style="normal" 
>
</g>

<g fill="none" stroke="#000000" stroke-opacity="1" stroke-width="1" stroke-linecap="square" stroke-linejoin="bevel" transform="matrix(0.885417,0,0,0.885417,11.2752,34.5312)"
font-family="DejaVu Sans" font-size="13" font-weight="400" font-style="normal" 
>
<text fill="#000000" fill-opacity="1" stroke="none" xml:space="preserve" x="0" y="10" font-family="DejaVu Sans" font-size="13" font-weight="400" font-style="normal" 
 >3</text>
</g>

<g fill="none" stroke="#000000" stroke-opacity="1" stroke-width="1" stroke-linecap="square" stroke-linejoin="bevel" transform="matrix(0.885417,0,0,0.885417,11.2752,34.5312)"
font-family="DejaVu Sans" font-size="13" font-weight="400" font-style="normal" 
>
</g>

<g fill="none" stroke="#000000" stroke-opacity="1" stroke-width="1" stroke-linecap="square" stroke-linejoin="bevel" transform="matrix(0.885417,0,0,0.885417,11.2752,34.5312)"
font-family="DejaVu Sans" font-size="11.8056" font-weight="400" font-style="normal" 
>
</g>

<g fill="none" stroke="#000000" stroke-opacity="1" stroke-width="1" stroke-linecap="square" stroke-linejoin="bevel" transform="matrix(0.885417,0,0,0.885417,11.2752,34.5312)"
font-family="DejaVu Sans" font-size="11.8056" font-weight="400" font-style="normal" 
>
</g>

<g fill="none" stroke="#000000" stroke-opacity="1" stroke-width="1" stroke-linecap="square" stroke-linejoin="bevel" transform="matrix(0.885417,0,0,0.885417,0,0)"
font-family="DejaVu Sans" font-size="11.8056" font-weight="400" font-style="normal" 
>
</g>

<g fill="none" stroke="#000000" stroke-opacity="1" stroke-width="1" stroke-linecap="square" stroke-linejoin="bevel" transform="matrix(0.885417,0,0,0.885417,0,0)"
font-family="DejaVu Sans" font-size="11.8056" font-weight="400" font-style="normal" 
>
</g>

<g fill="none" stroke="#000000" stroke-opacity="1" stroke-width="1" stroke-linecap="butt" stroke-linejoin="bevel" transform="matrix(0.885417,0,0,0.885417,0,0)"
font-family="DejaVu Sans" font-size="11.8056" font-weight="400" font-style="normal" 
>
<polyline fill="none" vector-effect="non-scaling-stroke" points="34,264.4 30,264.4 " />
<polyline fill="none" vector-effect="non-scaling-stroke" points="34,256.8 30,256.8 " />
<polyline fill="none" vector-effect="non-scaling-stroke" points="34,249.2 30,249.2 " />
<polyline fill="none" vector-effect="non-scaling-stroke" points="34,241.6 30,241.6 " />
<polyline fill="none" vector-effect="non-scaling-stroke" points="34,226.4 30,226.4 " />
<polyline fill="none" vector-effect="non-scaling-stroke" points="34,218.8 30,218.8 " />
<polyline fill="none" vector-effect="non-scaling-stroke" points="34,211.2 30,211.2 " />
<polyline fill="none" vector-effect="non-scaling-stroke" points="34,203.6 30,203.6 " />
<polyline fill="none" vector-effect="non-scaling-stroke" points="34,188.4 30,188.4 " />
<polyline fill="none" vector-effect="non-scaling-stroke" points="34,180.8 30,180.8 " />
<polyline fill="none" vector-effect="non-scaling-stroke" points="34,173.2 30,173.2 " />
<polyline fill="none" vector-effect="non-scaling-stroke" points="34,165.6 30,165.6 " />
<polyline fill="none" vector-effect="non-scaling-stroke" points="34,150.4 30,150.4 " />
<polyline fill="none" vector-effect="non-scaling-stroke" points="34,142.8 30,142.8 " />
<polyline fill="none" vector-effect="non-scaling-stroke" points="34,135.2 30,135.2 " />
<polyline fill="none" vector-effect="non-scaling-stroke" points="34,127.6 30,127.6 " />
<polyline fill="none" vector-effect="non-scaling-stroke" points="34,112.4 30,112.4 " />
<polyline fill="none" vector-effect="non-scaling-stroke" points="34,104.8 30,104.8 " />
<polyline fill="none" vector-effect="non-scaling-stroke" points="34,97.2 30,97.2 " />
<polyline fill="none" vector-effect="non-scaling-stroke" points="34,89.6 30,89.6 " />
<polyline fill="none" vector-effect="non-scaling-stroke" points="34,74.4 30,74.4 " />
<polyline fill="none" vector-effect="non-scaling-stroke" points="34,66.8 30,66.8 " />
<polyline fill="none" vector-effect="non-scaling-stroke" points="34,59.2 30,59.2 " />
<polyline fill="none" vector-effect="non-scaling-stroke" points="34,51.6 30,51.6 " />
<polyline fill="none" vector-effect="non-scaling-stroke" points="34,272 26,272 " />
<polyline fill="none" vector-effect="non-scaling-stroke" points="34,234 26,234 " />
<polyline fill="none" vector-effect="non-scaling-stroke" points="34,196 26,196 " />
<polyline fill="none" vector-effect="non-scaling-stroke" points="34,158 26,158 " />
<polyline fill="none" vector-effect="non-scaling-stroke" points="34,120 26,120 " />
<polyline fill="none" vector-effect="non-scaling-stroke" points="34,82 26,82 " />
<polyline fill="none" vector-effect="non-scaling-stroke" points="34,44 26,44 " />
</g>

<g fill="none" stroke="#000000" stroke-opacity="1" stroke-width="1" stroke-linecap="square" stroke-linejoin="bevel" transform="matrix(0.885417,0,0,0.885417,0,0)"
font-family="DejaVu Sans" font-size="11.8056" font-weight="400" font-style="normal" 
>
</g>

<g fill="none" stroke="#000000" stroke-opacity="1" stroke-width="1" stroke-linecap="butt" stroke-linejoin="bevel" transform="matrix(0.885417,0,0,0.885417,0,0)"
font-family="DejaVu Sans" font-size="11.8056" font-weight="400" font-style="normal" 
>
<polyline fill="none" vector-effect="non-scaling-stroke" points="34,44 34,272 " />
</g>

<g fill="none" stroke="#000000" stroke-opacity="1" stroke-width="1" stroke-linecap="square" stroke-linejoin="bevel" transform="matrix(0.885417,0,0,0.885417,0,0)"
font-family="DejaVu Sans" font-size="11.8056" font-weight="400" font-style="normal" 
>
</g>

<g fill="none" stroke="#000000" stroke-opacity="1" stroke-width="1" stroke-linecap="square" stroke-linejoin="bevel" transform="matrix(0.885417,0,0,0.885417,0,0)"
font-family="DejaVu Sans" font-size="11.8056" font-weight="400" font-style="normal" 
>
</g>

<g fill="none" stroke="#000000" stroke-opacity="1" stroke-width="1" stroke-linecap="square" stroke-linejoin="bevel" transform="matrix(0.885417,0,0,0.885417,0,0)"
font-family="Sans Serif" font-size="10.625" font-weight="400" font-style="normal" 
>
</g>

<g fill="none" stroke="#000000" stroke-opacity="1" stroke-width="1" stroke-linecap="square" stroke-linejoin="bevel" transform="matrix(0.885417,0,0,0.885417,26.5625,263.854)"
font-family="DejaVu Sans" font-size="11.8056" font-weight="400" font-style="normal" 
>
</g>

<g fill="none" stroke="#000000" stroke-opacity="1" stroke-width="1" stroke-linecap="square" stroke-linejoin="bevel" transform="matrix(0.885417,0,0,0.885417,26.5625,263.854)"
font-family="DejaVu Sans" font-size="12.9861" font-weight="400" font-style="normal" 
>
</g>

<g fill="none" stroke="#000000" stroke-opacity="1" stroke-width="1" stroke-linecap="square" stroke-linejoin="bevel" transform="matrix(0.885417,0,0,0.885417,26.5625,263.854)"
font-family="DejaVu Sans" font-size="15" font-weight="400" font-style="normal" 
>
</g>

<g fill="none" stroke="#000000" stroke-opacity="1" stroke-width="1" stroke-linecap="square" stroke-linejoin="bevel" transform="matrix(0.885417,0,0,0.885417,26.5625,263.854)"
font-family="DejaVu Sans" font-size="15" font-weight="400" font-style="normal" 
>
<text fill="#000000" fill-opacity="1" stroke="none" xml:space="preserve" x="239.438" y="15" font-family="DejaVu Sans" font-size="15" font-weight="400" font-style="normal" 
 >time (s)</text>
</g>

<g fill="none" stroke="#000000" stroke-opacity="1" stroke-width="1" stroke-linecap="square" stroke-linejoin="bevel" transform="matrix(0.885417,0,0,0.885417,26.5625,263.854)"
font-family="DejaVu Sans" font-size="12.9861" font-weight="400" font-style="normal" 
>
</g>

<g fill="none" stroke="#000000" stroke-opacity="1" stroke-width="1" stroke-linecap="square" stroke-linejoin="bevel" transform="matrix(0.885417,0,0,0.885417,26.5625,263.854)"
font-family="DejaVu Sans" font-size="11.8056" font-weight="400" font-style="normal" 
>
</g>

<g fill="none" stroke="#000000" stroke-opacity="1" stroke-width="1" stroke-linecap="square" stroke-linejoin="bevel" transform="matrix(0.885417,0,0,0.885417,0,0)"
font-family="Sans Serif" font-size="10.625" font-weight="400" font-style="normal" 
>
</g>

<g fill="none" stroke="#000000" stroke-opacity="1" stroke-width="1" stroke-linecap="square" stroke-linejoin="bevel" transform="matrix(0.885417,0,0,0.885417,0,0)"
font-family="DejaVu Sans" font-size="11.8056" font-weight="400" font-style="normal" 
>
</g>

<g fill="none" stroke="#000000" stroke-opacity="1" stroke-width="1" stroke-linecap="square" stroke-linejoin="bevel" transform="matrix(0.885417,0,0,0.885417,0,0)"
font-family="DejaVu Sans" font-size="11.8056" font-weight="400" font-style="normal" 
>
</g>

<g fill="none" stroke="#000000" stroke-opacity="1" stroke-width="1" stroke-linecap="square" stroke-linejoin="bevel" transform="matrix(0.885417,0,0,0.885417,0,0)"
font-family="DejaVu Sans" font-size="11.8056" font-weight="400" font-style="normal" 
>
</g>

<g fill="none" stroke="#000000" stroke-opacity="1" stroke-width="1" stroke-linecap="square" stroke-linejoin="bevel" transform="matrix(0.885417,0,0,0.885417,27.3303,253.229)"
font-family="DejaVu Sans" font-size="11.8056" font-weight="400" font-style="normal" 
>
</g>

<g fill="none" stroke="#000000" stroke-opacity="1" stroke-width="1" stroke-linecap="square" stroke-linejoin="bevel" transform="matrix(0.885417,0,0,0.885417,27.3303,253.229)"
font-family="DejaVu Sans" font-size="13" font-weight="400" font-style="normal" 
>
</g>

<g fill="none" stroke="#000000" stroke-opacity="1" stroke-width="1" stroke-linecap="square" stroke-linejoin="bevel" transform="matrix(0.885417,0,0,0.885417,27.3303,253.229)"
font-family="DejaVu Sans" font-size="13" font-weight="400" font-style="normal" 
>
</g>

<g fill="none" stroke="#000000" stroke-opacity="1" stroke-width="1" stroke-linecap="square" stroke-linejoin="bevel" transform="matrix(0.885417,0,0,0.885417,27.3303,253.229)"
font-family="DejaVu Sans" font-size="13" font-weight="400" font-style="normal" 
>
<text fill="#000000" fill-opacity="1" stroke="none" xml:space="preserve" x="0" y="10" font-family="DejaVu Sans" font-size="13" font-weight="400" font-style="normal" 
 >0</text>
</g>

<g fill="none" stroke="#000000" stroke-opacity="1" stroke-width="1" stroke-linecap="square" stroke-linejoin="bevel" transform="matrix(0.885417,0,0,0.885417,27.3303,253.229)"
font-family="DejaVu Sans" font-size="13" font-weight="400" font-style="normal" 
>
</g>

<g fill="none" stroke="#000000" stroke-opacity="1" stroke-width="1" stroke-linecap="square" stroke-linejoin="bevel" transform="matrix(0.885417,0,0,0.885417,27.3303,253.229)"
font-family="DejaVu Sans" font-size="11.8056" font-weight="400" font-style="normal" 
>
</g>

<g fill="none" stroke="#000000" stroke-opacity="1" stroke-width="1" stroke-linecap="square" stroke-linejoin="bevel" transform="matrix(0.885417,0,0,0.885417,27.3303,253.229)"
font-family="DejaVu Sans" font-size="11.8056" font-weight="400" font-style="normal" 
>
</g>

<g fill="none" stroke="#000000" stroke-opacity="1" stroke-width="1" stroke-linecap="square" stroke-linejoin="bevel" transform="matrix(0.885417,0,0,0.885417,0,0)"
font-family="DejaVu Sans" font-size="11.8056" font-weight="400" font-style="normal" 
>
</g>

<g fill="none" stroke="#000000" stroke-opacity="1" stroke-width="1" stroke-linecap="square" stroke-linejoin="bevel" transform="matrix(0.885417,0,0,0.885417,115.577,253.229)"
font-family="DejaVu Sans" font-size="11.8056" font-weight="400" font-style="normal" 
>
</g>

<g fill="none" stroke="#000000" stroke-opacity="1" stroke-width="1" stroke-linecap="square" stroke-linejoin="bevel" transform="matrix(0.885417,0,0,0.885417,115.577,253.229)"
font-family="DejaVu Sans" font-size="13" font-weight="400" font-style="normal" 
>
</g>

<g fill="none" stroke="#000000" stroke-opacity="1" stroke-width="1" stroke-linecap="square" stroke-linejoin="bevel" transform="matrix(0.885417,0,0,0.885417,115.577,253.229)"
font-family="DejaVu Sans" font-size="13" font-weight="400" font-style="normal" 
>
<text fill="#000000" fill-opacity="1" stroke="none" xml:space="preserve" x="0" y="10" font-family="DejaVu Sans" font-size="13" font-weight="400" font-style="normal" 
 >20</text>
</g>

<g fill="none" stroke="#000000" stroke-opacity="1" stroke-width="1" stroke-linecap="square" stroke-linejoin="bevel" transform="matrix(0.885417,0,0,0.885417,115.577,253.229)"
font-family="DejaVu Sans" font-size="11.8056" font-weight="400" font-style="normal" 
>
</g>

<g fill="none" stroke="#000000" stroke-opacity="1" stroke-width="1" stroke-linecap="square" stroke-linejoin="bevel" transform="matrix(0.885417,0,0,0.885417,115.577,253.229)"
font-family="DejaVu Sans" font-size="11.8056" font-weight="400" font-style="normal" 
>
</g>

<g fill="none" stroke="#000000" stroke-opacity="1" stroke-width="1" stroke-linecap="square" stroke-linejoin="bevel" transform="matrix(0.885417,0,0,0.885417,0,0)"
font-family="DejaVu Sans" font-size="11.8056" font-weight="400" font-style="normal" 
>
</g>

<g fill="none" stroke="#000000" stroke-opacity="1" stroke-width="1" stroke-linecap="square" stroke-linejoin="bevel" transform="matrix(0.885417,0,0,0.885417,207.484,253.229)"
font-family="DejaVu Sans" font-size="11.8056" font-weight="400" font-style="normal" 
>
</g>

<g fill="none" stroke="#000000" stroke-opacity="1" stroke-width="1" stroke-linecap="square" stroke-linejoin="bevel" transform="matrix(0.885417,0,0,0.885417,207.484,253.229)"
font-family="DejaVu Sans" font-size="13" font-weight="400" font-style="normal" 
>
</g>

<g fill="none" stroke="#000000" stroke-opacity="1" stroke-width="1" stroke-linecap="square" stroke-linejoin="bevel" transform="matrix(0.885417,0,0,0.885417,207.484,253.229)"
font-family="DejaVu Sans" font-size="13" font-weight="400" font-style="normal" 
>
<text fill="#000000" fill-opacity="1" stroke="none" xml:space="preserve" x="0" y="10" font-family="DejaVu Sans" font-size="13" font-weight="400" font-style="normal" 
 >40</text>
</g>

<g fill="none" stroke="#000000" stroke-opacity="1" stroke-width="1" stroke-linecap="square" stroke-linejoin="bevel" transform="matrix(0.885417,0,0,0.885417,207.484,253.229)"
font-family="DejaVu Sans" font-size="11.8056" font-weight="400" font-style="normal" 
>
</g>

<g fill="none" stroke="#000000" stroke-opacity="1" stroke-width="1" stroke-linecap="square" stroke-linejoin="bevel" transform="matrix(0.885417,0,0,0.885417,207.484,253.229)"
font-family="DejaVu Sans" font-size="11.8056" font-weight="400" font-style="normal" 
>
</g>

<g fill="none" stroke="#000000" stroke-opacity="1" stroke-width="1" stroke-linecap="square" stroke-linejoin="bevel" transform="matrix(0.885417,0,0,0.885417,0,0)"
font-family="DejaVu Sans" font-size="11.8056" font-weight="400" font-style="normal" 
>
</g>

<g fill="none" stroke="#000000" stroke-opacity="1" stroke-width="1" stroke-linecap="square" stroke-linejoin="bevel" transform="matrix(0.885417,0,0,0.885417,299.39,253.229)"
font-family="DejaVu Sans" font-size="11.8056" font-weight="400" font-style="normal" 
>
</g>

<g fill="none" stroke="#000000" stroke-opacity="1" stroke-width="1" stroke-linecap="square" stroke-linejoin="bevel" transform="matrix(0.885417,0,0,0.885417,299.39,253.229)"
font-family="DejaVu Sans" font-size="13" font-weight="400" font-style="normal" 
>
</g>

<g fill="none" stroke="#000000" stroke-opacity="1" stroke-width="1" stroke-linecap="square" stroke-linejoin="bevel" transform="matrix(0.885417,0,0,0.885417,299.39,253.229)"
font-family="DejaVu Sans" font-size="13" font-weight="400" font-style="normal" 
>
<text fill="#000000" fill-opacity="1" stroke="none" xml:space="preserve" x="0" y="10" font-family="DejaVu Sans" font-size="13" font-weight="400" font-style="normal" 
 >60</text>
</g>

<g fill="none" stroke="#000000" stroke-opacity="1" stroke-width="1" stroke-linecap="square" stroke-linejoin="bevel" transform="matrix(0.885417,0,0,0.885417,299.39,253.229)"
font-family="DejaVu Sans" font-size="11.8056" font-weight="400" font-style="normal" 
>
</g>

<g fill="none" stroke="#000000" stroke-opacity="1" stroke-width="1" stroke-linecap="square" stroke-linejoin="bevel" transform="matrix(0.885417,0,0,0.885417,299.39,253.229)"
font-family="DejaVu Sans" font-size="11.8056" font-weight="400" font-style="normal" 
>
</g>

<g fill="none" stroke="#000000" stroke-opacity="1" stroke-width="1" stroke-linecap="square" stroke-linejoin="bevel" transform="matrix(0.885417,0,0,0.885417,0,0)"
font-family="DejaVu Sans" font-size="11.8056" font-weight="400" font-style="normal" 
>
</g>

<g fill="none" stroke="#000000" stroke-opacity="1" stroke-width="1" stroke-linecap="square" stroke-linejoin="bevel" transform="matrix(0.885417,0,0,0.885417,391.296,253.229)"
font-family="DejaVu Sans" font-size="11.8056" font-weight="400" font-style="normal" 
>
</g>

<g fill="none" stroke="#000000" stroke-opacity="1" stroke-width="1" stroke-linecap="square" stroke-linejoin="bevel" transform="matrix(0.885417,0,0,0.885417,391.296,253.229)"
font-family="DejaVu Sans" font-size="13" font-weight="400" font-style="normal" 
>
</g>

<g fill="none" stroke="#000000" stroke-opacity="1" stroke-width="1" stroke-linecap="square" stroke-linejoin="bevel" transform="matrix(0.885417,0,0,0.885417,391.296,253.229)"
font-family="DejaVu Sans" font-size="13" font-weight="400" font-style="normal" 
>
<text fill="#000000" fill-opacity="1" stroke="none" xml:space="preserve" x="0" y="10" font-family="DejaVu Sans" font-size="13" font-weight="400" font-style="normal" 
 >80</text>
</g>

<g fill="none" stroke="#000000" stroke-opacity="1" stroke-width="1" stroke-linecap="square" stroke-linejoin="bevel" transform="matrix(0.885417,0,0,0.885417,391.296,253.229)"
font-family="DejaVu Sans" font-size="11.8056" font-weight="400" font-style="normal" 
>
</g>

<g fill="none" stroke="#000000" stroke-opacity="1" stroke-width="1" stroke-linecap="square" stroke-linejoin="bevel" transform="matrix(0.885417,0,0,0.885417,391.296,253.229)"
font-family="DejaVu Sans" font-size="11.8056" font-weight="400" font-style="normal" 
>
</g>

<g fill="none" stroke="#000000" stroke-opacity="1" stroke-width="1" stroke-linecap="square" stroke-linejoin="bevel" transform="matrix(0.885417,0,0,0.885417,0,0)"
font-family="DejaVu Sans" font-size="11.8056" font-weight="400" font-style="normal" 
>
</g>

<g fill="none" stroke="#000000" stroke-opacity="1" stroke-width="1" stroke-linecap="square" stroke-linejoin="bevel" transform="matrix(0.885417,0,0,0.885417,479.543,253.229)"
font-family="DejaVu Sans" font-size="11.8056" font-weight="400" font-style="normal" 
>
</g>

<g fill="none" stroke="#000000" stroke-opacity="1" stroke-width="1" stroke-linecap="square" stroke-linejoin="bevel" transform="matrix(0.885417,0,0,0.885417,479.543,253.229)"
font-family="DejaVu Sans" font-size="13" font-weight="400" font-style="normal" 
>
</g>

<g fill="none" stroke="#000000" stroke-opacity="1" stroke-width="1" stroke-linecap="square" stroke-linejoin="bevel" transform="matrix(0.885417,0,0,0.885417,479.543,253.229)"
font-family="DejaVu Sans" font-size="13" font-weight="400" font-style="normal" 
>
<text fill="#000000" fill-opacity="1" stroke="none" xml:space="preserve" x="0" y="10" font-family="DejaVu Sans" font-size="13" font-weight="400" font-style="normal" 
 >100</text>
</g>

<g fill="none" stroke="#000000" stroke-opacity="1" stroke-width="1" stroke-linecap="square" stroke-linejoin="bevel" transform="matrix(0.885417,0,0,0.885417,479.543,253.229)"
font-family="DejaVu Sans" font-size="11.8056" font-weight="400" font-style="normal" 
>
</g>

<g fill="none" stroke="#000000" stroke-opacity="1" stroke-width="1" stroke-linecap="square" stroke-linejoin="bevel" transform="matrix(0.885417,0,0,0.885417,479.543,253.229)"
font-family="DejaVu Sans" font-size="11.8056" font-weight="400" font-style="normal" 
>
</g>

<g fill="none" stroke="#000000" stroke-opacity="1" stroke-width="1" stroke-linecap="square" stroke-linejoin="bevel" transform="matrix(0.885417,0,0,0.885417,0,0)"
font-family="DejaVu Sans" font-size="11.8056" font-weight="400" font-style="normal" 
>
</g>

<g fill="none" stroke="#000000" stroke-opacity="1" stroke-width="1" stroke-linecap="square" stroke-linejoin="bevel" transform="matrix(0.885417,0,0,0.885417,0,0)"
font-family="DejaVu Sans" font-size="11.8056" font-weight="400" font-style="normal" 
>
</g>

<g fill="none" stroke="#000000" stroke-opacity="1" stroke-width="1" stroke-linecap="butt" stroke-linejoin="bevel" transform="matrix(0.885417,0,0,0.885417,0,0)"
font-family="DejaVu Sans" font-size="11.8056" font-weight="400" font-style="normal" 
>
<polyline fill="none" vector-effect="non-scaling-stroke" points="60.95,273 60.95,277 " />
<polyline fill="none" vector-effect="non-scaling-stroke" points="112.85,273 112.85,277 " />
<polyline fill="none" vector-effect="non-scaling-stroke" points="164.75,273 164.75,277 " />
<polyline fill="none" vector-effect="non-scaling-stroke" points="216.65,273 216.65,277 " />
<polyline fill="none" vector-effect="non-scaling-stroke" points="268.55,273 268.55,277 " />
<polyline fill="none" vector-effect="non-scaling-stroke" points="320.45,273 320.45,277 " />
<polyline fill="none" vector-effect="non-scaling-stroke" points="372.35,273 372.35,277 " />
<polyline fill="none" vector-effect="non-scaling-stroke" points="424.25,273 424.25,277 " />
<polyline fill="none" vector-effect="non-scaling-stroke" points="476.15,273 476.15,277 " />
<polyline fill="none" vector-effect="non-scaling-stroke" points="528.05,273 528.05,277 " />
<polyline fill="none" vector-effect="non-scaling-stroke" points="86.9,273 86.9,279 " />
<polyline fill="none" vector-effect="non-scaling-stroke" points="190.7,273 190.7,279 " />
<polyline fill="none" vector-effect="non-scaling-stroke" points="294.5,273 294.5,279 " />
<polyline fill="none" vector-effect="non-scaling-stroke" points="398.3,273 398.3,279 " />
<polyline fill="none" vector-effect="non-scaling-stroke" points="502.1,273 502.1,279 " />
<polyline fill="none" vector-effect="non-scaling-stroke" points="35,273 35,281 " />
<polyline fill="none" vector-effect="non-scaling-stroke" points="138.8,273 138.8,281 " />
<polyline fill="none" vector-effect="non-scaling-stroke" points="242.6,273 242.6,281 " />
<polyline fill="none" vector-effect="non-scaling-stroke" points="346.4,273 346.4,281 " />
<polyline fill="none" vector-effect="non-scaling-stroke" points="450.2,273 450.2,281 " />
<polyline fill="none" vector-effect="non-scaling-stroke" points="554,273 554,281 " />
</g>

<g fill="none" stroke="#000000" stroke-opacity="1" stroke-width="1" stroke-linecap="square" stroke-linejoin="bevel" transform="matrix(0.885417,0,0,0.885417,0,0)"
font-family="DejaVu Sans" font-size="11.8056" font-weight="400" font-style="normal" 
>
</g>

<g fill="none" stroke="#000000" stroke-opacity="1" stroke-width="1" stroke-linecap="butt" stroke-linejoin="bevel" transform="matrix(0.885417,0,0,0.885417,0,0)"
font-family="DejaVu Sans" font-size="11.8056" font-weight="400" font-style="normal" 
>
<polyline fill="none" vector-effect="non-scaling-stroke" points="35,273 554,273 " />
</g>

<g fill="none" stroke="#000000" stroke-opacity="1" stroke-width="1" stroke-linecap="square" stroke-linejoin="bevel" transform="matrix(0.885417,0,0,0.885417,0,0)"
font-family="DejaVu Sans" font-size="11.8056" font-weight="400" font-style="normal" 
>
</g>

<g fill="none" stroke="#000000" stroke-opacity="1" stroke-width="1" stroke-linecap="square" stroke-linejoin="bevel" transform="matrix(0.885417,0,0,0.885417,0,0)"
font-family="DejaVu Sans" font-size="11.8056" font-weight="400" font-style="normal" 
>
</g>

<g fill="none" stroke="#000000" stroke-opacity="1" stroke-width="1" stroke-linecap="square" stroke-linejoin="bevel" transform="matrix(0.885417,0,0,0.885417,0,0)"
font-family="Sans Serif" font-size="10.625" font-weight="400" font-style="normal" 
>
</g>

<g fill="none" stroke="#000000" stroke-opacity="1" stroke-width="1" stroke-linecap="square" stroke-linejoin="bevel" transform="matrix(1,0,0,1,0,0)"
font-family="Sans Serif" font-size="10.625" font-weight="400" font-style="normal" 
>
</g>
</g>
</svg>
