<?xml version="1.0" encoding="UTF-8" standalone="no"?>
<svg viewBox="0 0 719.488 220.866"
 xmlns="http://www.w3.org/2000/svg" xmlns:xlink="http://www.w3.org/1999/xlink"  version="1.2" baseProfile="tiny">
<title>Plot Document</title>
<desc>Generated with Qt</desc>
<defs>
</defs>
<g fill="none" stroke="black" stroke-width="1" fill-rule="evenodd" stroke-linecap="square" stroke-linejoin="bevel" >

<g fill="none" stroke="#000000" stroke-opacity="1" stroke-width="1" stroke-linecap="square" stroke-linejoin="bevel" transform="matrix(0.885417,0,0,0.885417,0,0)"
font-family="Sans Serif" font-size="10.625" font-weight="400" font-style="normal" 
>
</g>

<g fill="none" stroke="#000000" stroke-opacity="1" stroke-width="1" stroke-linecap="square" stroke-linejoin="bevel" transform="matrix(0.885417,0,0,0.885417,0,0)"
font-family="Sans Serif" font-size="10.625" font-weight="400" font-style="normal" 
>
</g>

<g fill="#ffffff" fill-opacity="1" stroke="none" transform="matrix(0.885417,0,0,0.885417,0,0)"
font-family="Sans Serif" font-size="10.625" font-weight="400" font-style="normal" 
>
<rect x="35" y="44" width="770" height="161"/>
</g>

<g fill="none" stroke="#000000" stroke-opacity="1" stroke-width="1" stroke-linecap="square" stroke-linejoin="bevel" transform="matrix(0.885417,0,0,0.885417,0,0)"
font-family="Sans Serif" font-size="10.625" font-weight="400" font-style="normal" 
>
</g>

<g fill="none" stroke="#000000" stroke-opacity="1" stroke-width="1" stroke-linecap="square" stroke-linejoin="bevel" transform="matrix(0.885417,0,0,0.885417,0,0)"
font-family="Sans Serif" font-size="10.625" font-weight="400" font-style="normal" 
>
</g>

<g fill="none" stroke="#ff0000" stroke-opacity="1" stroke-width="1" stroke-linecap="square" stroke-linejoin="bevel" transform="matrix(0.885417,0,0,0.885417,0,0)"
font-family="Sans Serif" font-size="10.625" font-weight="400" font-style="normal" 
>
<polyline fill="none" vector-effect="none" points="35,204 36.538,204 38.076,204 39.614,204 41.152,204 42.69,204 44.228,204 45.766,204 45.9857,204 47.304,204 48.842,204 50.38,204 51.918,204 53.456,204 54.994,204 56.532,204 56.9714,204 58.07,204 59.608,204 61.146,204 62.684,204 64.222,204 65.76,204 67.298,204 67.9571,204 68.836,204 70.374,204 71.912,204 73.45,204 74.988,204 76.526,204 78.064,204 78.9429,204 79.602,204 81.14,204 82.678,204 84.216,204 85.754,204 87.292,204 88.83,204 89.9286,204 90.368,204 91.906,204 93.444,204 94.982,204 96.52,204 98.058,204 99.596,204 100.914,204 101.134,204 102.672,204 104.21,204 105.748,204 107.286,204 108.824,204 110.362,204 111.9,204 113.438,204 114.976,204 116.514,204 118.052,204 119.59,204 121.128,204 122.666,204 122.886,204 124.204,204 125.742,204 127.28,204 128.818,204 130.356,204 131.894,204 133.432,204 133.871,204 134.97,204 136.508,204 138.046,204 139.584,204 141.122,204 142.66,204 144.198,204 144.857,204 144.857,204 144.857,124 145.736,124 147.274,124 148.812,124 150.35,124 151.888,124 153.426,124 154.964,124 155.843,124 156.502,124 158.04,124 159.578,124 161.116,124 162.654,124 164.192,124 165.73,124 166.829,124 167.268,124 168.806,124 170.344,124 171.882,124 173.42,124 174.958,124 176.496,124 177.814,124 178.034,124 179.572,124 181.11,124 182.648,124 184.186,124 185.724,124 187.262,124 188.8,124 190.338,124 191.876,124 193.414,124 194.952,124 196.49,124 198.028,124 199.566,124 199.786,124 201.104,124 202.642,124 204.18,124 205.718,124 207.256,124 208.794,124 210.332,124 210.771,124 211.87,124 213.408,124 214.946,124 216.484,124 218.022,124 219.56,124 221.098,124 221.757,124 222.636,124 224.174,124 225.712,124 227.25,124 228.788,124 230.326,124 231.864,124 232.743,124 233.402,124 234.94,124 236.478,124 238.016,124 239.554,124 241.092,124 242.63,124 243.729,124 244.168,124 245.706,124 247.244,124 248.782,124 250.32,124 251.858,124 253.396,124 254.714,124 254.934,124 256.472,124 258.01,124 259.548,124 261.086,124 262.624,124 264.162,124 265.7,124 267.238,124 268.776,124 270.314,124 271.852,124 273.39,124 274.928,124 276.466,124 276.686,124 278.004,124 279.542,124 281.08,124 282.618,124 284.156,124 285.694,124 287.232,124 287.671,124 288.77,124 290.308,124 291.846,124 293.384,124 294.922,124 296.46,124 297.998,124 298.657,124 299.536,124 301.074,124 302.612,124 304.15,124 305.688,124 307.226,124 308.764,124 309.643,124 310.302,124 311.84,124 313.378,124 314.916,124 316.454,124 317.992,124 319.53,124 320.629,124 321.068,124 322.606,124 324.144,124 325.682,124 327.22,124 328.758,124 330.296,124 331.614,124 331.834,124 333.372,124 334.91,124 336.448,124 337.986,124 339.524,124 341.062,124 342.6,124 344.138,124 345.676,124 347.214,124 348.752,124 350.29,124 351.828,124 353.366,124 353.586,124 354.904,124 356.442,124 357.98,124 359.518,124 361.056,124 362.594,124 364.132,124 364.571,124 365.67,124 367.208,124 368.746,124 370.284,124 371.822,124 373.36,124 374.898,124 375.557,124 376.436,124 377.974,124 379.512,124 381.05,124 382.588,124 384.126,124 385.664,124 386.543,124 387.202,124 388.74,124 390.278,124 391.816,124 393.354,124 394.892,124 396.43,124 397.529,124 397.968,124 399.506,124 401.044,124 402.582,124 404.12,124 405.658,124 407.196,124 408.514,124 408.734,124 410.272,124 411.81,124 413.348,124 414.886,124 416.424,124 417.962,124 419.5,124 421.038,124 422.576,124 424.114,124 425.652,124 427.19,124 428.728,124 430.266,124 430.486,124 431.804,124 433.342,124 434.88,124 436.418,124 437.956,124 439.494,124 441.032,124 441.471,124 442.57,124 444.108,124 445.646,124 447.184,124 448.722,124 450.26,124 451.798,124 452.457,124 453.336,124 454.874,124 456.412,124 457.95,124 459.488,124 461.026,124 462.564,124 463.443,124 464.102,124 465.64,124 467.178,124 468.716,124 470.254,124 471.792,124 473.33,124 474.429,124 474.868,124 476.406,124 477.944,124 479.482,124 481.02,124 482.558,124 484.096,124 485.414,124 485.634,124 487.172,124 488.71,124 490.248,124 491.786,124 493.324,124 494.862,124 496.4,124 497.938,124 499.476,124 501.014,124 502.552,124 504.09,124 505.628,124 507.166,124 507.386,124 508.704,124 510.242,124 511.78,124 513.318,124 514.856,124 516.394,124 517.932,124 518.371,124 519.47,124 521.008,124 522.546,124 524.084,124 525.622,124 527.16,124 528.698,124 529.357,124 530.236,124 531.774,124 533.312,124 534.85,124 536.388,124 537.926,124 539.464,124 540.343,124 541.002,124 542.54,124 544.078,124 545.616,124 547.154,124 548.692,124 550.23,124 551.329,124 551.768,124 553.306,124 554.844,124 556.382,124 557.92,124 559.458,124 560.996,124 562.314,124 562.534,124 564.072,124 565.61,124 567.148,124 568.686,124 570.224,124 571.762,124 573.3,124 574.838,124 576.376,124 577.914,124 579.452,124 580.99,124 582.528,124 584.066,124 584.286,124 585.604,124 587.142,124 588.68,124 590.218,124 591.756,124 593.294,124 594.832,124 595.271,124 596.37,124 597.908,124 599.446,124 600.984,124 602.522,124 604.06,124 605.598,124 606.257,124 607.136,124 608.674,124 610.212,124 611.75,124 613.288,124 614.826,124 616.364,124 617.243,124 617.902,124 619.44,124 620.978,124 622.516,124 624.054,124 625.592,124 627.13,124 628.229,124 628.668,124 630.206,124 631.744,124 633.282,124 634.82,124 636.358,124 637.896,124 639.214,124 639.434,124 640.972,124 642.51,124 644.048,124 645.586,124 647.124,124 648.662,124 650.2,124 651.738,124 653.276,124 654.814,124 656.352,124 657.89,124 659.428,124 660.966,124 661.186,124 662.504,124 664.042,124 665.58,124 667.118,124 668.656,124 670.194,124 671.732,124 672.171,124 673.27,124 674.808,124 676.346,124 677.884,124 679.422,124 680.96,124 682.498,124 683.157,124 684.036,124 685.574,124 687.112,124 688.65,124 690.188,124 691.726,124 693.264,124 694.143,124 694.802,124 696.34,124 697.878,124 699.416,124 700.954,124 702.492,124 704.03,124 705.129,124 705.568,124 707.106,124 708.644,124 710.182,124 711.72,124 713.258,124 714.796,124 716.114,124 716.334,124 717.872,124 719.41,124 720.948,124 722.486,124 724.024,124 725.562,124 727.1,124 728.638,124 730.176,124 731.714,124 733.252,124 734.79,124 736.328,124 737.866,124 738.086,124 739.404,124 740.942,124 742.48,124 744.018,124 745.556,124 747.094,124 748.632,124 749.071,124 750.17,124 751.708,124 753.246,124 754.784,124 756.322,124 757.86,124 759.398,124 760.057,124 760.936,124 762.474,124 764.012,124 765.55,124 767.088,124 768.626,124 770.164,124 771.043,124 771.702,124 773.24,124 774.778,124 776.316,124 777.854,124 779.392,124 780.93,124 782.029,124 782.468,124 784.006,124 785.544,124 787.082,124 788.62,124 790.158,124 791.696,124 793.014,124 793.234,124 794.772,124 796.31,124 797.848,124 799.386,124 800.924,124 802.462,124 804,124 " />
</g>

<g fill="none" stroke="#000000" stroke-opacity="1" stroke-width="1" stroke-linecap="square" stroke-linejoin="bevel" transform="matrix(0.885417,0,0,0.885417,0,0)"
font-family="Sans Serif" font-size="10.625" font-weight="400" font-style="normal" 
>
</g>

<g fill="none" stroke="#000000" stroke-opacity="1" stroke-width="1" stroke-linecap="square" stroke-linejoin="bevel" transform="matrix(0.885417,0,0,0.885417,0,0)"
font-family="Sans Serif" font-size="10.625" font-weight="400" font-style="normal" 
>
</g>

<g fill="none" stroke="#000000" stroke-opacity="1" stroke-width="1" stroke-linecap="square" stroke-linejoin="bevel" transform="matrix(0.885417,0,0,0.885417,0,0)"
font-family="Sans Serif" font-size="10.625" font-weight="400" font-style="normal" 
>
</g>

<g fill="none" stroke="#0000ff" stroke-opacity="1" stroke-width="1" stroke-linecap="square" stroke-linejoin="bevel" transform="matrix(0.885417,0,0,0.885417,0,0)"
font-family="Sans Serif" font-size="10.625" font-weight="400" font-style="normal" 
>
<polyline fill="none" vector-effect="none" points="35,204 36.538,204 38.076,204 39.614,204 41.152,204 42.69,204 44.228,204 45.766,204 45.9857,204 47.304,204 48.842,204 50.38,204 51.918,204 53.456,204 54.994,204 56.532,204 56.9714,204 58.07,204 59.608,204 61.146,204 62.684,204 64.222,204 65.76,204 67.298,204 67.9571,204 68.836,204 70.374,204 71.912,204 73.45,204 74.988,204 76.526,204 78.064,204 78.9429,204 79.602,204 81.14,204 82.678,204 84.216,204 85.754,204 87.292,204 88.83,204 89.9286,204 90.368,204 91.906,204 93.444,204 94.982,204 96.52,204 98.058,204 99.596,204 100.914,204 101.134,204 102.672,204 104.21,204 105.748,204 107.286,204 108.824,204 110.362,204 111.9,204 113.438,204 114.976,204 116.514,204 118.052,204 119.59,204 121.128,204 122.666,204 122.886,204 124.204,204 125.742,204 127.28,204 128.818,204 130.356,204 131.894,204 133.432,204 133.871,204 134.97,204 136.508,204 138.046,204 139.584,204 141.122,204 142.66,204 144.198,204 144.857,204 144.857,204 145.736,204 147.274,204 148.812,204 150.35,204 151.888,204 153.426,204 154.964,204 155.843,204 156.502,204 158.04,204 159.578,204 161.116,204 162.654,204 164.192,204 165.73,204 166.829,204 166.829,188 167.268,188 168.806,188 170.344,188 171.882,188 173.42,188 174.958,188 176.496,188 177.814,188 177.814,173.6 178.034,173.6 179.572,173.6 181.11,173.6 182.648,173.6 184.186,173.6 185.724,173.6 187.262,173.6 188.8,173.6 188.8,160.64 190.338,160.64 191.876,160.64 193.414,160.64 194.952,160.64 196.49,160.64 198.028,160.64 199.566,160.64 199.786,160.64 199.786,148.976 201.104,148.976 202.642,148.976 204.18,148.976 205.718,148.976 207.256,148.976 208.794,148.976 210.332,148.976 210.771,148.976 210.771,138.478 211.87,138.478 213.408,138.478 214.946,138.478 216.484,138.478 218.022,138.478 219.56,138.478 221.098,138.478 221.757,138.478 221.757,131.726 222.636,131.726 224.174,131.726 225.712,131.726 227.25,131.726 228.788,131.726 230.326,131.726 231.864,131.726 232.743,131.726 232.743,128.367 233.402,128.367 234.94,128.367 236.478,128.367 238.016,128.367 239.554,128.367 241.092,128.367 242.63,128.367 243.729,128.367 243.729,126.672 244.168,126.672 245.706,126.672 247.244,126.672 248.782,126.672 250.32,126.672 251.858,126.672 253.396,126.672 254.714,126.672 254.714,125.796 254.934,125.796 256.472,125.796 258.01,125.796 259.548,125.796 261.086,125.796 262.624,125.796 264.162,125.796 265.7,125.796 265.7,125.324 267.238,125.324 268.776,125.324 270.314,125.324 271.852,125.324 273.39,125.324 274.928,125.324 276.466,125.324 276.686,125.324 276.686,125.053 278.004,125.053 279.542,125.053 281.08,125.053 282.618,125.053 284.156,125.053 285.694,125.053 287.232,125.053 287.671,125.053 287.671,124.885 288.77,124.885 290.308,124.885 291.846,124.885 293.384,124.885 294.922,124.885 296.46,124.885 297.998,124.885 298.657,124.885 298.657,124.77 299.536,124.77 301.074,124.77 302.612,124.77 304.15,124.77 305.688,124.77 307.226,124.77 308.764,124.77 309.643,124.77 309.643,124.683 310.302,124.683 311.84,124.683 313.378,124.683 314.916,124.683 316.454,124.683 317.992,124.683 319.53,124.683 320.629,124.683 320.629,124.614 321.068,124.614 322.606,124.614 324.144,124.614 325.682,124.614 327.22,124.614 328.758,124.614 330.296,124.614 331.614,124.614 331.614,124.555 331.834,124.555 333.372,124.555 334.91,124.555 336.448,124.555 337.986,124.555 339.524,124.555 341.062,124.555 342.6,124.555 342.6,124.504 344.138,124.504 345.676,124.504 347.214,124.504 348.752,124.504 350.29,124.504 351.828,124.504 353.366,124.504 353.586,124.504 353.586,124.458 354.904,124.458 356.442,124.458 357.98,124.458 359.518,124.458 361.056,124.458 362.594,124.458 364.132,124.458 364.571,124.458 364.571,124.417 365.67,124.417 367.208,124.417 368.746,124.417 370.284,124.417 371.822,124.417 373.36,124.417 374.898,124.417 375.557,124.417 375.557,124.379 376.436,124.379 377.974,124.379 379.512,124.379 381.05,124.379 382.588,124.379 384.126,124.379 385.664,124.379 386.543,124.379 386.543,124.345 387.202,124.345 388.74,124.345 390.278,124.345 391.816,124.345 393.354,124.345 394.892,124.345 396.43,124.345 397.529,124.345 397.529,124.315 397.968,124.315 399.506,124.315 401.044,124.315 402.582,124.315 404.12,124.315 405.658,124.315 407.196,124.315 408.514,124.315 408.514,124.287 408.734,124.287 410.272,124.287 411.81,124.287 413.348,124.287 414.886,124.287 416.424,124.287 417.962,124.287 419.5,124.287 419.5,124.261 421.038,124.261 422.576,124.261 424.114,124.261 425.652,124.261 427.19,124.261 428.728,124.261 430.266,124.261 430.486,124.261 430.486,124.238 431.804,124.238 433.342,124.238 434.88,124.238 436.418,124.238 437.956,124.238 439.494,124.238 441.032,124.238 441.471,124.238 441.471,124.217 442.57,124.217 444.108,124.217 445.646,124.217 447.184,124.217 448.722,124.217 450.26,124.217 451.798,124.217 452.457,124.217 452.457,124.197 453.336,124.197 454.874,124.197 456.412,124.197 457.95,124.197 459.488,124.197 461.026,124.197 462.564,124.197 463.443,124.197 463.443,124.18 464.102,124.18 465.64,124.18 467.178,124.18 468.716,124.18 470.254,124.18 471.792,124.18 473.33,124.18 474.429,124.18 474.429,124.164 474.868,124.164 476.406,124.164 477.944,124.164 479.482,124.164 481.02,124.164 482.558,124.164 484.096,124.164 485.414,124.164 485.414,124.149 485.634,124.149 487.172,124.149 488.71,124.149 490.248,124.149 491.786,124.149 493.324,124.149 494.862,124.149 496.4,124.149 496.4,124.136 497.938,124.136 499.476,124.136 501.014,124.136 502.552,124.136 504.09,124.136 505.628,124.136 507.166,124.136 507.386,124.136 507.386,124.124 508.704,124.124 510.242,124.124 511.78,124.124 513.318,124.124 514.856,124.124 516.394,124.124 517.932,124.124 518.371,124.124 518.371,124.113 519.47,124.113 521.008,124.113 522.546,124.113 524.084,124.113 525.622,124.113 527.16,124.113 528.698,124.113 529.357,124.113 529.357,124.103 530.236,124.103 531.774,124.103 533.312,124.103 534.85,124.103 536.388,124.103 537.926,124.103 539.464,124.103 540.343,124.103 540.343,124.094 541.002,124.094 542.54,124.094 544.078,124.094 545.616,124.094 547.154,124.094 548.692,124.094 550.23,124.094 551.329,124.094 551.329,124.085 551.768,124.085 553.306,124.085 554.844,124.085 556.382,124.085 557.92,124.085 559.458,124.085 560.996,124.085 562.314,124.085 562.314,124.078 562.534,124.078 564.072,124.078 565.61,124.078 567.148,124.078 568.686,124.078 570.224,124.078 571.762,124.078 573.3,124.078 573.3,124.071 574.838,124.071 576.376,124.071 577.914,124.071 579.452,124.071 580.99,124.071 582.528,124.071 584.066,124.071 584.286,124.071 584.286,124.065 585.604,124.065 587.142,124.065 588.68,124.065 590.218,124.065 591.756,124.065 593.294,124.065 594.832,124.065 595.271,124.065 595.271,124.059 596.37,124.059 597.908,124.059 599.446,124.059 600.984,124.059 602.522,124.059 604.06,124.059 605.598,124.059 606.257,124.059 606.257,124.054 607.136,124.054 608.674,124.054 610.212,124.054 611.75,124.054 613.288,124.054 614.826,124.054 616.364,124.054 617.243,124.054 617.243,124.049 617.902,124.049 619.44,124.049 620.978,124.049 622.516,124.049 624.054,124.049 625.592,124.049 627.13,124.049 628.229,124.049 628.229,124.044 628.668,124.044 630.206,124.044 631.744,124.044 633.282,124.044 634.82,124.044 636.358,124.044 637.896,124.044 639.214,124.044 639.214,124.041 639.434,124.041 640.972,124.041 642.51,124.041 644.048,124.041 645.586,124.041 647.124,124.041 648.662,124.041 650.2,124.041 650.2,124.037 651.738,124.037 653.276,124.037 654.814,124.037 656.352,124.037 657.89,124.037 659.428,124.037 660.966,124.037 661.186,124.037 661.186,124.034 662.504,124.034 664.042,124.034 665.58,124.034 667.118,124.034 668.656,124.034 670.194,124.034 671.732,124.034 672.171,124.034 672.171,124.031 673.27,124.031 674.808,124.031 676.346,124.031 677.884,124.031 679.422,124.031 680.96,124.031 682.498,124.031 683.157,124.031 683.157,124.028 684.036,124.028 685.574,124.028 687.112,124.028 688.65,124.028 690.188,124.028 691.726,124.028 693.264,124.028 694.143,124.028 694.143,124.025 694.802,124.025 696.34,124.025 697.878,124.025 699.416,124.025 700.954,124.025 702.492,124.025 704.03,124.025 705.129,124.025 705.129,124.023 705.568,124.023 707.106,124.023 708.644,124.023 710.182,124.023 711.72,124.023 713.258,124.023 714.796,124.023 716.114,124.023 716.114,124.021 716.334,124.021 717.872,124.021 719.41,124.021 720.948,124.021 722.486,124.021 724.024,124.021 725.562,124.021 727.1,124.021 727.1,124.019 728.638,124.019 730.176,124.019 731.714,124.019 733.252,124.019 734.79,124.019 736.328,124.019 737.866,124.019 738.086,124.019 738.086,124.018 739.404,124.018 740.942,124.018 742.48,124.018 744.018,124.018 745.556,124.018 747.094,124.018 748.632,124.018 749.071,124.018 749.071,124.016 750.17,124.016 751.708,124.016 753.246,124.016 754.784,124.016 756.322,124.016 757.86,124.016 759.398,124.016 760.057,124.016 760.057,124.015 760.936,124.015 762.474,124.015 764.012,124.015 765.55,124.015 767.088,124.015 768.626,124.015 770.164,124.015 771.043,124.015 771.043,124.013 771.702,124.013 773.24,124.013 774.778,124.013 776.316,124.013 777.854,124.013 779.392,124.013 780.93,124.013 782.029,124.013 782.029,124.012 782.468,124.012 784.006,124.012 785.544,124.012 787.082,124.012 788.62,124.012 790.158,124.012 791.696,124.012 793.014,124.012 793.014,124.011 793.234,124.011 794.772,124.011 796.31,124.011 797.848,124.011 799.386,124.011 800.924,124.011 802.462,124.011 804,124.011 804,124.01 " />
</g>

<g fill="none" stroke="#000000" stroke-opacity="1" stroke-width="1" stroke-linecap="square" stroke-linejoin="bevel" transform="matrix(0.885417,0,0,0.885417,0,0)"
font-family="Sans Serif" font-size="10.625" font-weight="400" font-style="normal" 
>
</g>

<g fill="none" stroke="#000000" stroke-opacity="1" stroke-width="1" stroke-linecap="square" stroke-linejoin="bevel" transform="matrix(0.885417,0,0,0.885417,0,0)"
font-family="Sans Serif" font-size="10.625" font-weight="400" font-style="normal" 
>
</g>

<g fill="none" stroke="#000000" stroke-opacity="1" stroke-width="1" stroke-linecap="square" stroke-linejoin="bevel" transform="matrix(0.885417,0,0,0.885417,0,0)"
font-family="Sans Serif" font-size="10.625" font-weight="400" font-style="normal" 
>
</g>

<g fill="none" stroke="#55aa00" stroke-opacity="1" stroke-width="1" stroke-linecap="square" stroke-linejoin="bevel" transform="matrix(0.885417,0,0,0.885417,0,0)"
font-family="Sans Serif" font-size="10.625" font-weight="400" font-style="normal" 
>
<polyline fill="none" vector-effect="none" points="35,204 36.538,204 38.076,204 39.614,204 41.152,204 42.69,204 44.228,204 45.766,204 45.9857,204 47.304,204 48.842,204 50.38,204 51.918,204 53.456,204 54.994,204 56.532,204 56.9714,204 58.07,204 59.608,204 61.146,204 62.684,204 64.222,204 65.76,204 67.298,204 67.9571,204 68.836,204 70.374,204 71.912,204 73.45,204 74.988,204 76.526,204 78.064,204 78.9429,204 79.602,204 81.14,204 82.678,204 84.216,204 85.754,204 87.292,204 88.83,204 89.9286,204 90.368,204 91.906,204 93.444,204 94.982,204 96.52,204 98.058,204 99.596,204 100.914,204 101.134,204 102.672,204 104.21,204 105.748,204 107.286,204 108.824,204 110.362,204 111.9,204 113.438,204 114.976,204 116.514,204 118.052,204 119.59,204 121.128,204 122.666,204 122.886,204 124.204,204 125.742,204 127.28,204 128.818,204 130.356,204 131.894,204 133.432,204 133.871,204 134.97,204 136.508,204 138.046,204 139.584,204 141.122,204 142.66,204 144.198,204 144.857,204 144.857,204 144.857,44 145.736,44 147.274,44 148.812,44 150.35,44 151.888,44 153.426,44 154.964,44 155.843,44 156.502,44 158.04,44 159.578,44 161.116,44 162.654,44 164.192,44 165.73,44 166.829,44 167.268,44 168.806,44 170.344,44 171.882,44 173.42,44 174.958,44 176.496,44 177.814,44 178.034,44 179.572,44 181.11,44 182.648,44 184.186,44 185.724,44 187.262,44 188.8,44 190.338,44 191.876,44 193.414,44 194.952,44 196.49,44 198.028,44 199.566,44 199.786,44 201.104,44 202.642,44 204.18,44 205.718,44 207.256,44 208.794,44 210.332,44 210.771,44 210.771,70.9554 211.87,70.9554 213.408,70.9554 214.946,70.9554 216.484,70.9554 218.022,70.9554 219.56,70.9554 221.098,70.9554 221.757,70.9554 221.757,98.1358 222.636,98.1358 224.174,98.1358 225.712,98.1358 227.25,98.1358 228.788,98.1358 230.326,98.1358 231.864,98.1358 232.743,98.1358 232.743,111.419 233.402,111.419 234.94,111.419 236.478,111.419 238.016,111.419 239.554,111.419 241.092,111.419 242.63,111.419 243.729,111.419 243.729,117.908 244.168,117.908 245.706,117.908 247.244,117.908 248.782,117.908 250.32,117.908 251.858,117.908 253.396,117.908 254.714,117.908 254.714,121.075 254.934,121.075 256.472,121.075 258.01,121.075 259.548,121.075 261.086,121.075 262.624,121.075 264.162,121.075 265.7,121.075 265.7,122.619 267.238,122.619 268.776,122.619 270.314,122.619 271.852,122.619 273.39,122.619 274.928,122.619 276.466,122.619 276.686,122.619 276.686,123.37 278.004,123.37 279.542,123.37 281.08,123.37 282.618,123.37 284.156,123.37 285.694,123.37 287.232,123.37 287.671,123.37 287.671,123.733 288.77,123.733 290.308,123.733 291.846,123.733 293.384,123.733 294.922,123.733 296.46,123.733 297.998,123.733 298.657,123.733 298.657,123.907 299.536,123.907 301.074,123.907 302.612,123.907 304.15,123.907 305.688,123.907 307.226,123.907 308.764,123.907 309.643,123.907 309.643,123.988 310.302,123.988 311.84,123.988 313.378,123.988 314.916,123.988 316.454,123.988 317.992,123.988 319.53,123.988 320.629,123.988 320.629,124.025 321.068,124.025 322.606,124.025 324.144,124.025 325.682,124.025 327.22,124.025 328.758,124.025 330.296,124.025 331.614,124.025 331.614,124.041 331.834,124.041 333.372,124.041 334.91,124.041 336.448,124.041 337.986,124.041 339.524,124.041 341.062,124.041 342.6,124.041 342.6,124.045 344.138,124.045 345.676,124.045 347.214,124.045 348.752,124.045 350.29,124.045 351.828,124.045 353.366,124.045 353.586,124.045 353.586,124.046 354.904,124.046 356.442,124.046 357.98,124.046 359.518,124.046 361.056,124.046 362.594,124.046 364.132,124.046 364.571,124.046 364.571,124.044 365.67,124.044 367.208,124.044 368.746,124.044 370.284,124.044 371.822,124.044 373.36,124.044 374.898,124.044 375.557,124.044 375.557,124.041 376.436,124.041 377.974,124.041 379.512,124.041 381.05,124.041 382.588,124.041 384.126,124.041 385.664,124.041 386.543,124.041 386.543,124.038 387.202,124.038 388.74,124.038 390.278,124.038 391.816,124.038 393.354,124.038 394.892,124.038 396.43,124.038 397.529,124.038 397.529,124.035 397.968,124.035 399.506,124.035 401.044,124.035 402.582,124.035 404.12,124.035 405.658,124.035 407.196,124.035 408.514,124.035 408.514,124.032 408.734,124.032 410.272,124.032 411.81,124.032 413.348,124.032 414.886,124.032 416.424,124.032 417.962,124.032 419.5,124.032 419.5,124.029 421.038,124.029 422.576,124.029 424.114,124.029 425.652,124.029 427.19,124.029 428.728,124.029 430.266,124.029 430.486,124.029 430.486,124.026 431.804,124.026 433.342,124.026 434.88,124.026 436.418,124.026 437.956,124.026 439.494,124.026 441.032,124.026 441.471,124.026 441.471,124.024 442.57,124.024 444.108,124.024 445.646,124.024 447.184,124.024 448.722,124.024 450.26,124.024 451.798,124.024 452.457,124.024 452.457,124.022 453.336,124.022 454.874,124.022 456.412,124.022 457.95,124.022 459.488,124.022 461.026,124.022 462.564,124.022 463.443,124.022 463.443,124.02 464.102,124.02 465.64,124.02 467.178,124.02 468.716,124.02 470.254,124.02 471.792,124.02 473.33,124.02 474.429,124.02 474.429,124.018 474.868,124.018 476.406,124.018 477.944,124.018 479.482,124.018 481.02,124.018 482.558,124.018 484.096,124.018 485.414,124.018 485.414,124.017 485.634,124.017 487.172,124.017 488.71,124.017 490.248,124.017 491.786,124.017 493.324,124.017 494.862,124.017 496.4,124.017 496.4,124.015 497.938,124.015 499.476,124.015 501.014,124.015 502.552,124.015 504.09,124.015 505.628,124.015 507.166,124.015 507.386,124.015 507.386,124.014 508.704,124.014 510.242,124.014 511.78,124.014 513.318,124.014 514.856,124.014 516.394,124.014 517.932,124.014 518.371,124.014 518.371,124.012 519.47,124.012 521.008,124.012 522.546,124.012 524.084,124.012 525.622,124.012 527.16,124.012 528.698,124.012 529.357,124.012 529.357,124.011 530.236,124.011 531.774,124.011 533.312,124.011 534.85,124.011 536.388,124.011 537.926,124.011 539.464,124.011 540.343,124.011 540.343,124.01 541.002,124.01 542.54,124.01 544.078,124.01 545.616,124.01 547.154,124.01 548.692,124.01 550.23,124.01 551.329,124.01 551.329,124.009 551.768,124.009 553.306,124.009 554.844,124.009 556.382,124.009 557.92,124.009 559.458,124.009 560.996,124.009 562.314,124.009 562.314,124.009 562.534,124.009 564.072,124.009 565.61,124.009 567.148,124.009 568.686,124.009 570.224,124.009 571.762,124.009 573.3,124.009 573.3,124.008 574.838,124.008 576.376,124.008 577.914,124.008 579.452,124.008 580.99,124.008 582.528,124.008 584.066,124.008 584.286,124.008 584.286,124.007 585.604,124.007 587.142,124.007 588.68,124.007 590.218,124.007 591.756,124.007 593.294,124.007 594.832,124.007 595.271,124.007 595.271,124.007 596.37,124.007 597.908,124.007 599.446,124.007 600.984,124.007 602.522,124.007 604.06,124.007 605.598,124.007 606.257,124.007 606.257,124.006 607.136,124.006 608.674,124.006 610.212,124.006 611.75,124.006 613.288,124.006 614.826,124.006 616.364,124.006 617.243,124.006 617.243,124.005 617.902,124.005 619.44,124.005 620.978,124.005 622.516,124.005 624.054,124.005 625.592,124.005 627.13,124.005 628.229,124.005 628.229,124.005 628.668,124.005 630.206,124.005 631.744,124.005 633.282,124.005 634.82,124.005 636.358,124.005 637.896,124.005 639.214,124.005 639.214,124.004 639.434,124.004 640.972,124.004 642.51,124.004 644.048,124.004 645.586,124.004 647.124,124.004 648.662,124.004 650.2,124.004 650.2,124.004 651.738,124.004 653.276,124.004 654.814,124.004 656.352,124.004 657.89,124.004 659.428,124.004 660.966,124.004 661.186,124.004 661.186,124.004 662.504,124.004 664.042,124.004 665.58,124.004 667.118,124.004 668.656,124.004 670.194,124.004 671.732,124.004 672.171,124.004 672.171,124.003 673.27,124.003 674.808,124.003 676.346,124.003 677.884,124.003 679.422,124.003 680.96,124.003 682.498,124.003 683.157,124.003 683.157,124.003 684.036,124.003 685.574,124.003 687.112,124.003 688.65,124.003 690.188,124.003 691.726,124.003 693.264,124.003 694.143,124.003 694.143,124.003 694.802,124.003 696.34,124.003 697.878,124.003 699.416,124.003 700.954,124.003 702.492,124.003 704.03,124.003 705.129,124.003 705.129,124.003 705.568,124.003 707.106,124.003 708.644,124.003 710.182,124.003 711.72,124.003 713.258,124.003 714.796,124.003 716.114,124.003 716.114,124.002 716.334,124.002 717.872,124.002 719.41,124.002 720.948,124.002 722.486,124.002 724.024,124.002 725.562,124.002 727.1,124.002 727.1,124.002 728.638,124.002 730.176,124.002 731.714,124.002 733.252,124.002 734.79,124.002 736.328,124.002 737.866,124.002 738.086,124.002 738.086,124.002 739.404,124.002 740.942,124.002 742.48,124.002 744.018,124.002 745.556,124.002 747.094,124.002 748.632,124.002 749.071,124.002 749.071,124.002 750.17,124.002 751.708,124.002 753.246,124.002 754.784,124.002 756.322,124.002 757.86,124.002 759.398,124.002 760.057,124.002 760.057,124.002 760.936,124.002 762.474,124.002 764.012,124.002 765.55,124.002 767.088,124.002 768.626,124.002 770.164,124.002 771.043,124.002 771.043,124.001 771.702,124.001 773.24,124.001 774.778,124.001 776.316,124.001 777.854,124.001 779.392,124.001 780.93,124.001 782.029,124.001 782.029,124.001 782.468,124.001 784.006,124.001 785.544,124.001 787.082,124.001 788.62,124.001 790.158,124.001 791.696,124.001 793.014,124.001 793.014,124.001 793.234,124.001 794.772,124.001 796.31,124.001 797.848,124.001 799.386,124.001 800.924,124.001 802.462,124.001 804,124.001 804,124.001 " />
</g>

<g fill="none" stroke="#000000" stroke-opacity="1" stroke-width="1" stroke-linecap="square" stroke-linejoin="bevel" transform="matrix(0.885417,0,0,0.885417,0,0)"
font-family="Sans Serif" font-size="10.625" font-weight="400" font-style="normal" 
>
</g>

<g fill="none" stroke="#000000" stroke-opacity="1" stroke-width="1" stroke-linecap="square" stroke-linejoin="bevel" transform="matrix(0.885417,0,0,0.885417,0,0)"
font-family="Sans Serif" font-size="10.625" font-weight="400" font-style="normal" 
>
</g>

<g fill="none" stroke="#000000" stroke-opacity="1" stroke-width="1" stroke-linecap="square" stroke-linejoin="bevel" transform="matrix(0.885417,0,0,0.885417,0,0)"
font-family="Sans Serif" font-size="10.625" font-weight="400" font-style="normal" 
>
</g>

<g fill="none" stroke="#000000" stroke-opacity="1" stroke-width="1" stroke-linecap="square" stroke-linejoin="bevel" transform="matrix(0.885417,0,0,0.885417,0,0)"
font-family="Sans Serif" font-size="10.625" font-weight="400" font-style="normal" 
>
</g>

<g fill="none" stroke="#000000" stroke-opacity="1" stroke-width="1" stroke-linecap="square" stroke-linejoin="bevel" transform="matrix(0.885417,0,0,0.885417,32.7604,1.77083)"
font-family="Sans Serif" font-size="10.625" font-weight="400" font-style="normal" 
>
</g>

<g fill="none" stroke="#ff0000" stroke-opacity="1" stroke-width="1" stroke-linecap="butt" stroke-linejoin="bevel" transform="matrix(1,0,0,1,0,0)"
font-family="Sans Serif" font-size="10.625" font-weight="400" font-style="normal" 
>
<path vector-effect="none" fill-rule="evenodd" d="M32.7604,15.0521 L59.3229,15.0521"/>
</g>

<g fill="none" stroke="#000000" stroke-opacity="1" stroke-width="1" stroke-linecap="square" stroke-linejoin="bevel" transform="matrix(0.885417,0,0,0.885417,32.7604,1.77083)"
font-family="Sans Serif" font-size="10.625" font-weight="400" font-style="normal" 
>
</g>

<g fill="none" stroke="#000000" stroke-opacity="1" stroke-width="1" stroke-linecap="square" stroke-linejoin="bevel" transform="matrix(0.885417,0,0,0.885417,0,0)"
font-family="Sans Serif" font-size="10.625" font-weight="400" font-style="normal" 
>
</g>

<g fill="none" stroke="#000000" stroke-opacity="1" stroke-width="1" stroke-linecap="square" stroke-linejoin="bevel" transform="matrix(0.885417,0,0,0.885417,0,0)"
font-family="Sans Serif" font-size="12" font-weight="400" font-style="normal" 
>
</g>

<g fill="none" stroke="#000000" stroke-opacity="1" stroke-width="1" stroke-linecap="square" stroke-linejoin="bevel" transform="matrix(0.885417,0,0,0.885417,0,0)"
font-family="Sans Serif" font-size="12" font-weight="400" font-style="normal" 
>
<text fill="#000000" fill-opacity="1" stroke="none" xml:space="preserve" x="71" y="21" font-family="Sans Serif" font-size="12" font-weight="400" font-style="normal" 
 >PI_pos.w</text>
</g>

<g fill="none" stroke="#000000" stroke-opacity="1" stroke-width="1" stroke-linecap="square" stroke-linejoin="bevel" transform="matrix(0.885417,0,0,0.885417,0,0)"
font-family="Sans Serif" font-size="10.625" font-weight="400" font-style="normal" 
>
</g>

<g fill="none" stroke="#000000" stroke-opacity="1" stroke-width="1" stroke-linecap="square" stroke-linejoin="bevel" transform="matrix(0.885417,0,0,0.885417,0,0)"
font-family="Sans Serif" font-size="10.625" font-weight="400" font-style="normal" 
>
</g>

<g fill="none" stroke="#000000" stroke-opacity="1" stroke-width="1" stroke-linecap="square" stroke-linejoin="bevel" transform="matrix(0.885417,0,0,0.885417,0,0)"
font-family="Sans Serif" font-size="10.625" font-weight="400" font-style="normal" 
>
</g>

<g fill="none" stroke="#000000" stroke-opacity="1" stroke-width="1" stroke-linecap="square" stroke-linejoin="bevel" transform="matrix(0.885417,0,0,0.885417,0,0)"
font-family="Sans Serif" font-size="10.625" font-weight="400" font-style="normal" 
>
</g>

<g fill="none" stroke="#000000" stroke-opacity="1" stroke-width="1" stroke-linecap="square" stroke-linejoin="bevel" transform="matrix(0.885417,0,0,0.885417,119.531,1.77083)"
font-family="Sans Serif" font-size="10.625" font-weight="400" font-style="normal" 
>
</g>

<g fill="none" stroke="#0000ff" stroke-opacity="1" stroke-width="1" stroke-linecap="butt" stroke-linejoin="bevel" transform="matrix(1,0,0,1,0,0)"
font-family="Sans Serif" font-size="10.625" font-weight="400" font-style="normal" 
>
<path vector-effect="none" fill-rule="evenodd" d="M119.531,15.0521 L146.094,15.0521"/>
</g>

<g fill="none" stroke="#000000" stroke-opacity="1" stroke-width="1" stroke-linecap="square" stroke-linejoin="bevel" transform="matrix(0.885417,0,0,0.885417,119.531,1.77083)"
font-family="Sans Serif" font-size="10.625" font-weight="400" font-style="normal" 
>
</g>

<g fill="none" stroke="#000000" stroke-opacity="1" stroke-width="1" stroke-linecap="square" stroke-linejoin="bevel" transform="matrix(0.885417,0,0,0.885417,0,0)"
font-family="Sans Serif" font-size="10.625" font-weight="400" font-style="normal" 
>
</g>

<g fill="none" stroke="#000000" stroke-opacity="1" stroke-width="1" stroke-linecap="square" stroke-linejoin="bevel" transform="matrix(0.885417,0,0,0.885417,0,0)"
font-family="Sans Serif" font-size="12" font-weight="400" font-style="normal" 
>
</g>

<g fill="none" stroke="#000000" stroke-opacity="1" stroke-width="1" stroke-linecap="square" stroke-linejoin="bevel" transform="matrix(0.885417,0,0,0.885417,0,0)"
font-family="Sans Serif" font-size="12" font-weight="400" font-style="normal" 
>
<text fill="#000000" fill-opacity="1" stroke="none" xml:space="preserve" x="169" y="21" font-family="Sans Serif" font-size="12" font-weight="400" font-style="normal" 
 >P_ifb.y</text>
</g>

<g fill="none" stroke="#000000" stroke-opacity="1" stroke-width="1" stroke-linecap="square" stroke-linejoin="bevel" transform="matrix(0.885417,0,0,0.885417,0,0)"
font-family="Sans Serif" font-size="10.625" font-weight="400" font-style="normal" 
>
</g>

<g fill="none" stroke="#000000" stroke-opacity="1" stroke-width="1" stroke-linecap="square" stroke-linejoin="bevel" transform="matrix(0.885417,0,0,0.885417,0,0)"
font-family="Sans Serif" font-size="10.625" font-weight="400" font-style="normal" 
>
</g>

<g fill="none" stroke="#000000" stroke-opacity="1" stroke-width="1" stroke-linecap="square" stroke-linejoin="bevel" transform="matrix(0.885417,0,0,0.885417,0,0)"
font-family="Sans Serif" font-size="10.625" font-weight="400" font-style="normal" 
>
</g>

<g fill="none" stroke="#000000" stroke-opacity="1" stroke-width="1" stroke-linecap="square" stroke-linejoin="bevel" transform="matrix(0.885417,0,0,0.885417,0,0)"
font-family="Sans Serif" font-size="10.625" font-weight="400" font-style="normal" 
>
</g>

<g fill="none" stroke="#000000" stroke-opacity="1" stroke-width="1" stroke-linecap="square" stroke-linejoin="bevel" transform="matrix(0.885417,0,0,0.885417,195.677,1.77083)"
font-family="Sans Serif" font-size="10.625" font-weight="400" font-style="normal" 
>
</g>

<g fill="none" stroke="#55aa00" stroke-opacity="1" stroke-width="1" stroke-linecap="butt" stroke-linejoin="bevel" transform="matrix(1,0,0,1,0,0)"
font-family="Sans Serif" font-size="10.625" font-weight="400" font-style="normal" 
>
<path vector-effect="none" fill-rule="evenodd" d="M195.677,15.0521 L222.24,15.0521"/>
</g>

<g fill="none" stroke="#000000" stroke-opacity="1" stroke-width="1" stroke-linecap="square" stroke-linejoin="bevel" transform="matrix(0.885417,0,0,0.885417,195.677,1.77083)"
font-family="Sans Serif" font-size="10.625" font-weight="400" font-style="normal" 
>
</g>

<g fill="none" stroke="#000000" stroke-opacity="1" stroke-width="1" stroke-linecap="square" stroke-linejoin="bevel" transform="matrix(0.885417,0,0,0.885417,0,0)"
font-family="Sans Serif" font-size="10.625" font-weight="400" font-style="normal" 
>
</g>

<g fill="none" stroke="#000000" stroke-opacity="1" stroke-width="1" stroke-linecap="square" stroke-linejoin="bevel" transform="matrix(0.885417,0,0,0.885417,0,0)"
font-family="Sans Serif" font-size="12" font-weight="400" font-style="normal" 
>
</g>

<g fill="none" stroke="#000000" stroke-opacity="1" stroke-width="1" stroke-linecap="square" stroke-linejoin="bevel" transform="matrix(0.885417,0,0,0.885417,0,0)"
font-family="Sans Serif" font-size="12" font-weight="400" font-style="normal" 
>
<text fill="#000000" fill-opacity="1" stroke="none" xml:space="preserve" x="255" y="21" font-family="Sans Serif" font-size="12" font-weight="400" font-style="normal" 
 >P_ifb.u</text>
</g>

<g fill="none" stroke="#000000" stroke-opacity="1" stroke-width="1" stroke-linecap="square" stroke-linejoin="bevel" transform="matrix(0.885417,0,0,0.885417,0,0)"
font-family="Sans Serif" font-size="10.625" font-weight="400" font-style="normal" 
>
</g>

<g fill="none" stroke="#000000" stroke-opacity="1" stroke-width="1" stroke-linecap="square" stroke-linejoin="bevel" transform="matrix(0.885417,0,0,0.885417,0,0)"
font-family="Sans Serif" font-size="10.625" font-weight="400" font-style="normal" 
>
</g>

<g fill="none" stroke="#000000" stroke-opacity="1" stroke-width="1" stroke-linecap="square" stroke-linejoin="bevel" transform="matrix(0.885417,0,0,0.885417,0,0)"
font-family="Sans Serif" font-size="10.625" font-weight="400" font-style="normal" 
>
</g>

<g fill="none" stroke="#000000" stroke-opacity="1" stroke-width="1" stroke-linecap="square" stroke-linejoin="bevel" transform="matrix(0,-0.885417,0.885417,0,0,185.052)"
font-family="DejaVu Sans" font-size="11.8056" font-weight="400" font-style="normal" 
>
</g>

<g fill="none" stroke="#000000" stroke-opacity="1" stroke-width="1" stroke-linecap="square" stroke-linejoin="bevel" transform="matrix(0,-0.885417,0.885417,0,0,185.052)"
font-family="DejaVu Sans" font-size="12.9861" font-weight="400" font-style="normal" 
>
</g>

<g fill="none" stroke="#000000" stroke-opacity="1" stroke-width="1" stroke-linecap="square" stroke-linejoin="bevel" transform="matrix(0,-0.885417,0.885417,0,0,185.052)"
font-family="DejaVu Sans" font-size="12.9861" font-weight="400" font-style="normal" 
>
</g>

<g fill="none" stroke="#000000" stroke-opacity="1" stroke-width="1" stroke-linecap="square" stroke-linejoin="bevel" transform="matrix(0,-0.885417,0.885417,0,0,185.052)"
font-family="DejaVu Sans" font-size="11.8056" font-weight="400" font-style="normal" 
>
</g>

<g fill="none" stroke="#000000" stroke-opacity="1" stroke-width="1" stroke-linecap="square" stroke-linejoin="bevel" transform="matrix(0.885417,0,0,0.885417,0,0)"
font-family="Sans Serif" font-size="10.625" font-weight="400" font-style="normal" 
>
</g>

<g fill="none" stroke="#000000" stroke-opacity="1" stroke-width="1" stroke-linecap="square" stroke-linejoin="bevel" transform="matrix(0.885417,0,0,0.885417,0,0)"
font-family="DejaVu Sans" font-size="11.8056" font-weight="400" font-style="normal" 
>
</g>

<g fill="none" stroke="#000000" stroke-opacity="1" stroke-width="1" stroke-linecap="square" stroke-linejoin="bevel" transform="matrix(0.885417,0,0,0.885417,0,0)"
font-family="DejaVu Sans" font-size="11.8056" font-weight="400" font-style="normal" 
>
</g>

<g fill="none" stroke="#000000" stroke-opacity="1" stroke-width="1" stroke-linecap="square" stroke-linejoin="bevel" transform="matrix(0.885417,0,0,0.885417,0,0)"
font-family="DejaVu Sans" font-size="11.8056" font-weight="400" font-style="normal" 
>
</g>

<g fill="none" stroke="#000000" stroke-opacity="1" stroke-width="1" stroke-linecap="square" stroke-linejoin="bevel" transform="matrix(0.885417,0,0,0.885417,11.2752,176.198)"
font-family="DejaVu Sans" font-size="11.8056" font-weight="400" font-style="normal" 
>
</g>

<g fill="none" stroke="#000000" stroke-opacity="1" stroke-width="1" stroke-linecap="square" stroke-linejoin="bevel" transform="matrix(0.885417,0,0,0.885417,11.2752,176.198)"
font-family="DejaVu Sans" font-size="13" font-weight="400" font-style="normal" 
>
</g>

<g fill="none" stroke="#000000" stroke-opacity="1" stroke-width="1" stroke-linecap="square" stroke-linejoin="bevel" transform="matrix(0.885417,0,0,0.885417,11.2752,176.198)"
font-family="DejaVu Sans" font-size="13" font-weight="400" font-style="normal" 
>
</g>

<g fill="none" stroke="#000000" stroke-opacity="1" stroke-width="1" stroke-linecap="square" stroke-linejoin="bevel" transform="matrix(0.885417,0,0,0.885417,11.2752,176.198)"
font-family="DejaVu Sans" font-size="13" font-weight="400" font-style="normal" 
>
<text fill="#000000" fill-opacity="1" stroke="none" xml:space="preserve" x="0" y="10" font-family="DejaVu Sans" font-size="13" font-weight="400" font-style="normal" 
 >0</text>
</g>

<g fill="none" stroke="#000000" stroke-opacity="1" stroke-width="1" stroke-linecap="square" stroke-linejoin="bevel" transform="matrix(0.885417,0,0,0.885417,11.2752,176.198)"
font-family="DejaVu Sans" font-size="13" font-weight="400" font-style="normal" 
>
</g>

<g fill="none" stroke="#000000" stroke-opacity="1" stroke-width="1" stroke-linecap="square" stroke-linejoin="bevel" transform="matrix(0.885417,0,0,0.885417,11.2752,176.198)"
font-family="DejaVu Sans" font-size="11.8056" font-weight="400" font-style="normal" 
>
</g>

<g fill="none" stroke="#000000" stroke-opacity="1" stroke-width="1" stroke-linecap="square" stroke-linejoin="bevel" transform="matrix(0.885417,0,0,0.885417,11.2752,176.198)"
font-family="DejaVu Sans" font-size="11.8056" font-weight="400" font-style="normal" 
>
</g>

<g fill="none" stroke="#000000" stroke-opacity="1" stroke-width="1" stroke-linecap="square" stroke-linejoin="bevel" transform="matrix(0.885417,0,0,0.885417,0,0)"
font-family="DejaVu Sans" font-size="11.8056" font-weight="400" font-style="normal" 
>
</g>

<g fill="none" stroke="#000000" stroke-opacity="1" stroke-width="1" stroke-linecap="square" stroke-linejoin="bevel" transform="matrix(0.885417,0,0,0.885417,0.304362,147.865)"
font-family="DejaVu Sans" font-size="11.8056" font-weight="400" font-style="normal" 
>
</g>

<g fill="none" stroke="#000000" stroke-opacity="1" stroke-width="1" stroke-linecap="square" stroke-linejoin="bevel" transform="matrix(0.885417,0,0,0.885417,0.304362,147.865)"
font-family="DejaVu Sans" font-size="13" font-weight="400" font-style="normal" 
>
</g>

<g fill="none" stroke="#000000" stroke-opacity="1" stroke-width="1" stroke-linecap="square" stroke-linejoin="bevel" transform="matrix(0.885417,0,0,0.885417,0.304362,147.865)"
font-family="DejaVu Sans" font-size="13" font-weight="400" font-style="normal" 
>
<text fill="#000000" fill-opacity="1" stroke="none" xml:space="preserve" x="0" y="10" font-family="DejaVu Sans" font-size="13" font-weight="400" font-style="normal" 
 >0.2</text>
</g>

<g fill="none" stroke="#000000" stroke-opacity="1" stroke-width="1" stroke-linecap="square" stroke-linejoin="bevel" transform="matrix(0.885417,0,0,0.885417,0.304362,147.865)"
font-family="DejaVu Sans" font-size="11.8056" font-weight="400" font-style="normal" 
>
</g>

<g fill="none" stroke="#000000" stroke-opacity="1" stroke-width="1" stroke-linecap="square" stroke-linejoin="bevel" transform="matrix(0.885417,0,0,0.885417,0.304362,147.865)"
font-family="DejaVu Sans" font-size="11.8056" font-weight="400" font-style="normal" 
>
</g>

<g fill="none" stroke="#000000" stroke-opacity="1" stroke-width="1" stroke-linecap="square" stroke-linejoin="bevel" transform="matrix(0.885417,0,0,0.885417,0,0)"
font-family="DejaVu Sans" font-size="11.8056" font-weight="400" font-style="normal" 
>
</g>

<g fill="none" stroke="#000000" stroke-opacity="1" stroke-width="1" stroke-linecap="square" stroke-linejoin="bevel" transform="matrix(0.885417,0,0,0.885417,0.304362,119.531)"
font-family="DejaVu Sans" font-size="11.8056" font-weight="400" font-style="normal" 
>
</g>

<g fill="none" stroke="#000000" stroke-opacity="1" stroke-width="1" stroke-linecap="square" stroke-linejoin="bevel" transform="matrix(0.885417,0,0,0.885417,0.304362,119.531)"
font-family="DejaVu Sans" font-size="13" font-weight="400" font-style="normal" 
>
</g>

<g fill="none" stroke="#000000" stroke-opacity="1" stroke-width="1" stroke-linecap="square" stroke-linejoin="bevel" transform="matrix(0.885417,0,0,0.885417,0.304362,119.531)"
font-family="DejaVu Sans" font-size="13" font-weight="400" font-style="normal" 
>
<text fill="#000000" fill-opacity="1" stroke="none" xml:space="preserve" x="0" y="10" font-family="DejaVu Sans" font-size="13" font-weight="400" font-style="normal" 
 >0.4</text>
</g>

<g fill="none" stroke="#000000" stroke-opacity="1" stroke-width="1" stroke-linecap="square" stroke-linejoin="bevel" transform="matrix(0.885417,0,0,0.885417,0.304362,119.531)"
font-family="DejaVu Sans" font-size="11.8056" font-weight="400" font-style="normal" 
>
</g>

<g fill="none" stroke="#000000" stroke-opacity="1" stroke-width="1" stroke-linecap="square" stroke-linejoin="bevel" transform="matrix(0.885417,0,0,0.885417,0.304362,119.531)"
font-family="DejaVu Sans" font-size="11.8056" font-weight="400" font-style="normal" 
>
</g>

<g fill="none" stroke="#000000" stroke-opacity="1" stroke-width="1" stroke-linecap="square" stroke-linejoin="bevel" transform="matrix(0.885417,0,0,0.885417,0,0)"
font-family="DejaVu Sans" font-size="11.8056" font-weight="400" font-style="normal" 
>
</g>

<g fill="none" stroke="#000000" stroke-opacity="1" stroke-width="1" stroke-linecap="square" stroke-linejoin="bevel" transform="matrix(0.885417,0,0,0.885417,0.304362,91.1979)"
font-family="DejaVu Sans" font-size="11.8056" font-weight="400" font-style="normal" 
>
</g>

<g fill="none" stroke="#000000" stroke-opacity="1" stroke-width="1" stroke-linecap="square" stroke-linejoin="bevel" transform="matrix(0.885417,0,0,0.885417,0.304362,91.1979)"
font-family="DejaVu Sans" font-size="13" font-weight="400" font-style="normal" 
>
</g>

<g fill="none" stroke="#000000" stroke-opacity="1" stroke-width="1" stroke-linecap="square" stroke-linejoin="bevel" transform="matrix(0.885417,0,0,0.885417,0.304362,91.1979)"
font-family="DejaVu Sans" font-size="13" font-weight="400" font-style="normal" 
>
<text fill="#000000" fill-opacity="1" stroke="none" xml:space="preserve" x="0" y="10" font-family="DejaVu Sans" font-size="13" font-weight="400" font-style="normal" 
 >0.6</text>
</g>

<g fill="none" stroke="#000000" stroke-opacity="1" stroke-width="1" stroke-linecap="square" stroke-linejoin="bevel" transform="matrix(0.885417,0,0,0.885417,0.304362,91.1979)"
font-family="DejaVu Sans" font-size="11.8056" font-weight="400" font-style="normal" 
>
</g>

<g fill="none" stroke="#000000" stroke-opacity="1" stroke-width="1" stroke-linecap="square" stroke-linejoin="bevel" transform="matrix(0.885417,0,0,0.885417,0.304362,91.1979)"
font-family="DejaVu Sans" font-size="11.8056" font-weight="400" font-style="normal" 
>
</g>

<g fill="none" stroke="#000000" stroke-opacity="1" stroke-width="1" stroke-linecap="square" stroke-linejoin="bevel" transform="matrix(0.885417,0,0,0.885417,0,0)"
font-family="DejaVu Sans" font-size="11.8056" font-weight="400" font-style="normal" 
>
</g>

<g fill="none" stroke="#000000" stroke-opacity="1" stroke-width="1" stroke-linecap="square" stroke-linejoin="bevel" transform="matrix(0.885417,0,0,0.885417,0.304362,62.8646)"
font-family="DejaVu Sans" font-size="11.8056" font-weight="400" font-style="normal" 
>
</g>

<g fill="none" stroke="#000000" stroke-opacity="1" stroke-width="1" stroke-linecap="square" stroke-linejoin="bevel" transform="matrix(0.885417,0,0,0.885417,0.304362,62.8646)"
font-family="DejaVu Sans" font-size="13" font-weight="400" font-style="normal" 
>
</g>

<g fill="none" stroke="#000000" stroke-opacity="1" stroke-width="1" stroke-linecap="square" stroke-linejoin="bevel" transform="matrix(0.885417,0,0,0.885417,0.304362,62.8646)"
font-family="DejaVu Sans" font-size="13" font-weight="400" font-style="normal" 
>
<text fill="#000000" fill-opacity="1" stroke="none" xml:space="preserve" x="0" y="10" font-family="DejaVu Sans" font-size="13" font-weight="400" font-style="normal" 
 >0.8</text>
</g>

<g fill="none" stroke="#000000" stroke-opacity="1" stroke-width="1" stroke-linecap="square" stroke-linejoin="bevel" transform="matrix(0.885417,0,0,0.885417,0.304362,62.8646)"
font-family="DejaVu Sans" font-size="11.8056" font-weight="400" font-style="normal" 
>
</g>

<g fill="none" stroke="#000000" stroke-opacity="1" stroke-width="1" stroke-linecap="square" stroke-linejoin="bevel" transform="matrix(0.885417,0,0,0.885417,0.304362,62.8646)"
font-family="DejaVu Sans" font-size="11.8056" font-weight="400" font-style="normal" 
>
</g>

<g fill="none" stroke="#000000" stroke-opacity="1" stroke-width="1" stroke-linecap="square" stroke-linejoin="bevel" transform="matrix(0.885417,0,0,0.885417,0,0)"
font-family="DejaVu Sans" font-size="11.8056" font-weight="400" font-style="normal" 
>
</g>

<g fill="none" stroke="#000000" stroke-opacity="1" stroke-width="1" stroke-linecap="square" stroke-linejoin="bevel" transform="matrix(0.885417,0,0,0.885417,11.2752,34.5312)"
font-family="DejaVu Sans" font-size="11.8056" font-weight="400" font-style="normal" 
>
</g>

<g fill="none" stroke="#000000" stroke-opacity="1" stroke-width="1" stroke-linecap="square" stroke-linejoin="bevel" transform="matrix(0.885417,0,0,0.885417,11.2752,34.5312)"
font-family="DejaVu Sans" font-size="13" font-weight="400" font-style="normal" 
>
</g>

<g fill="none" stroke="#000000" stroke-opacity="1" stroke-width="1" stroke-linecap="square" stroke-linejoin="bevel" transform="matrix(0.885417,0,0,0.885417,11.2752,34.5312)"
font-family="DejaVu Sans" font-size="13" font-weight="400" font-style="normal" 
>
</g>

<g fill="none" stroke="#000000" stroke-opacity="1" stroke-width="1" stroke-linecap="square" stroke-linejoin="bevel" transform="matrix(0.885417,0,0,0.885417,11.2752,34.5312)"
font-family="DejaVu Sans" font-size="13" font-weight="400" font-style="normal" 
>
<text fill="#000000" fill-opacity="1" stroke="none" xml:space="preserve" x="0" y="10" font-family="DejaVu Sans" font-size="13" font-weight="400" font-style="normal" 
 >1</text>
</g>

<g fill="none" stroke="#000000" stroke-opacity="1" stroke-width="1" stroke-linecap="square" stroke-linejoin="bevel" transform="matrix(0.885417,0,0,0.885417,11.2752,34.5312)"
font-family="DejaVu Sans" font-size="13" font-weight="400" font-style="normal" 
>
</g>

<g fill="none" stroke="#000000" stroke-opacity="1" stroke-width="1" stroke-linecap="square" stroke-linejoin="bevel" transform="matrix(0.885417,0,0,0.885417,11.2752,34.5312)"
font-family="DejaVu Sans" font-size="11.8056" font-weight="400" font-style="normal" 
>
</g>

<g fill="none" stroke="#000000" stroke-opacity="1" stroke-width="1" stroke-linecap="square" stroke-linejoin="bevel" transform="matrix(0.885417,0,0,0.885417,11.2752,34.5312)"
font-family="DejaVu Sans" font-size="11.8056" font-weight="400" font-style="normal" 
>
</g>

<g fill="none" stroke="#000000" stroke-opacity="1" stroke-width="1" stroke-linecap="square" stroke-linejoin="bevel" transform="matrix(0.885417,0,0,0.885417,0,0)"
font-family="DejaVu Sans" font-size="11.8056" font-weight="400" font-style="normal" 
>
</g>

<g fill="none" stroke="#000000" stroke-opacity="1" stroke-width="1" stroke-linecap="square" stroke-linejoin="bevel" transform="matrix(0.885417,0,0,0.885417,0,0)"
font-family="DejaVu Sans" font-size="11.8056" font-weight="400" font-style="normal" 
>
</g>

<g fill="none" stroke="#000000" stroke-opacity="1" stroke-width="1" stroke-linecap="butt" stroke-linejoin="bevel" transform="matrix(0.885417,0,0,0.885417,0,0)"
font-family="DejaVu Sans" font-size="11.8056" font-weight="400" font-style="normal" 
>
<polyline fill="none" vector-effect="non-scaling-stroke" points="34,196 30,196 " />
<polyline fill="none" vector-effect="non-scaling-stroke" points="34,180 30,180 " />
<polyline fill="none" vector-effect="non-scaling-stroke" points="34,164 30,164 " />
<polyline fill="none" vector-effect="non-scaling-stroke" points="34,148 30,148 " />
<polyline fill="none" vector-effect="non-scaling-stroke" points="34,132 30,132 " />
<polyline fill="none" vector-effect="non-scaling-stroke" points="34,116 30,116 " />
<polyline fill="none" vector-effect="non-scaling-stroke" points="34,100 30,100 " />
<polyline fill="none" vector-effect="non-scaling-stroke" points="34,84 30,84 " />
<polyline fill="none" vector-effect="non-scaling-stroke" points="34,68 30,68 " />
<polyline fill="none" vector-effect="non-scaling-stroke" points="34,52 30,52 " />
<polyline fill="none" vector-effect="non-scaling-stroke" points="34,188 28,188 " />
<polyline fill="none" vector-effect="non-scaling-stroke" points="34,156 28,156 " />
<polyline fill="none" vector-effect="non-scaling-stroke" points="34,124 28,124 " />
<polyline fill="none" vector-effect="non-scaling-stroke" points="34,92 28,92 " />
<polyline fill="none" vector-effect="non-scaling-stroke" points="34,60 28,60 " />
<polyline fill="none" vector-effect="non-scaling-stroke" points="34,204 26,204 " />
<polyline fill="none" vector-effect="non-scaling-stroke" points="34,172 26,172 " />
<polyline fill="none" vector-effect="non-scaling-stroke" points="34,140 26,140 " />
<polyline fill="none" vector-effect="non-scaling-stroke" points="34,108 26,108 " />
<polyline fill="none" vector-effect="non-scaling-stroke" points="34,76 26,76 " />
<polyline fill="none" vector-effect="non-scaling-stroke" points="34,44 26,44 " />
</g>

<g fill="none" stroke="#000000" stroke-opacity="1" stroke-width="1" stroke-linecap="square" stroke-linejoin="bevel" transform="matrix(0.885417,0,0,0.885417,0,0)"
font-family="DejaVu Sans" font-size="11.8056" font-weight="400" font-style="normal" 
>
</g>

<g fill="none" stroke="#000000" stroke-opacity="1" stroke-width="1" stroke-linecap="butt" stroke-linejoin="bevel" transform="matrix(0.885417,0,0,0.885417,0,0)"
font-family="DejaVu Sans" font-size="11.8056" font-weight="400" font-style="normal" 
>
<polyline fill="none" vector-effect="non-scaling-stroke" points="34,44 34,204 " />
</g>

<g fill="none" stroke="#000000" stroke-opacity="1" stroke-width="1" stroke-linecap="square" stroke-linejoin="bevel" transform="matrix(0.885417,0,0,0.885417,0,0)"
font-family="DejaVu Sans" font-size="11.8056" font-weight="400" font-style="normal" 
>
</g>

<g fill="none" stroke="#000000" stroke-opacity="1" stroke-width="1" stroke-linecap="square" stroke-linejoin="bevel" transform="matrix(0.885417,0,0,0.885417,0,0)"
font-family="DejaVu Sans" font-size="11.8056" font-weight="400" font-style="normal" 
>
</g>

<g fill="none" stroke="#000000" stroke-opacity="1" stroke-width="1" stroke-linecap="square" stroke-linejoin="bevel" transform="matrix(0.885417,0,0,0.885417,0,0)"
font-family="Sans Serif" font-size="10.625" font-weight="400" font-style="normal" 
>
</g>

<g fill="none" stroke="#000000" stroke-opacity="1" stroke-width="1" stroke-linecap="square" stroke-linejoin="bevel" transform="matrix(0.885417,0,0,0.885417,26.5625,203.646)"
font-family="DejaVu Sans" font-size="11.8056" font-weight="400" font-style="normal" 
>
</g>

<g fill="none" stroke="#000000" stroke-opacity="1" stroke-width="1" stroke-linecap="square" stroke-linejoin="bevel" transform="matrix(0.885417,0,0,0.885417,26.5625,203.646)"
font-family="DejaVu Sans" font-size="12.9861" font-weight="400" font-style="normal" 
>
</g>

<g fill="none" stroke="#000000" stroke-opacity="1" stroke-width="1" stroke-linecap="square" stroke-linejoin="bevel" transform="matrix(0.885417,0,0,0.885417,26.5625,203.646)"
font-family="DejaVu Sans" font-size="15" font-weight="400" font-style="normal" 
>
</g>

<g fill="none" stroke="#000000" stroke-opacity="1" stroke-width="1" stroke-linecap="square" stroke-linejoin="bevel" transform="matrix(0.885417,0,0,0.885417,26.5625,203.646)"
font-family="DejaVu Sans" font-size="15" font-weight="400" font-style="normal" 
>
<text fill="#000000" fill-opacity="1" stroke="none" xml:space="preserve" x="362.438" y="15" font-family="DejaVu Sans" font-size="15" font-weight="400" font-style="normal" 
 >time (s)</text>
</g>

<g fill="none" stroke="#000000" stroke-opacity="1" stroke-width="1" stroke-linecap="square" stroke-linejoin="bevel" transform="matrix(0.885417,0,0,0.885417,26.5625,203.646)"
font-family="DejaVu Sans" font-size="12.9861" font-weight="400" font-style="normal" 
>
</g>

<g fill="none" stroke="#000000" stroke-opacity="1" stroke-width="1" stroke-linecap="square" stroke-linejoin="bevel" transform="matrix(0.885417,0,0,0.885417,26.5625,203.646)"
font-family="DejaVu Sans" font-size="11.8056" font-weight="400" font-style="normal" 
>
</g>

<g fill="none" stroke="#000000" stroke-opacity="1" stroke-width="1" stroke-linecap="square" stroke-linejoin="bevel" transform="matrix(0.885417,0,0,0.885417,0,0)"
font-family="Sans Serif" font-size="10.625" font-weight="400" font-style="normal" 
>
</g>

<g fill="none" stroke="#000000" stroke-opacity="1" stroke-width="1" stroke-linecap="square" stroke-linejoin="bevel" transform="matrix(0.885417,0,0,0.885417,0,0)"
font-family="DejaVu Sans" font-size="11.8056" font-weight="400" font-style="normal" 
>
</g>

<g fill="none" stroke="#000000" stroke-opacity="1" stroke-width="1" stroke-linecap="square" stroke-linejoin="bevel" transform="matrix(0.885417,0,0,0.885417,0,0)"
font-family="DejaVu Sans" font-size="11.8056" font-weight="400" font-style="normal" 
>
</g>

<g fill="none" stroke="#000000" stroke-opacity="1" stroke-width="1" stroke-linecap="square" stroke-linejoin="bevel" transform="matrix(0.885417,0,0,0.885417,0,0)"
font-family="DejaVu Sans" font-size="11.8056" font-weight="400" font-style="normal" 
>
</g>

<g fill="none" stroke="#000000" stroke-opacity="1" stroke-width="1" stroke-linecap="square" stroke-linejoin="bevel" transform="matrix(0.885417,0,0,0.885417,27.3303,193.021)"
font-family="DejaVu Sans" font-size="11.8056" font-weight="400" font-style="normal" 
>
</g>

<g fill="none" stroke="#000000" stroke-opacity="1" stroke-width="1" stroke-linecap="square" stroke-linejoin="bevel" transform="matrix(0.885417,0,0,0.885417,27.3303,193.021)"
font-family="DejaVu Sans" font-size="13" font-weight="400" font-style="normal" 
>
</g>

<g fill="none" stroke="#000000" stroke-opacity="1" stroke-width="1" stroke-linecap="square" stroke-linejoin="bevel" transform="matrix(0.885417,0,0,0.885417,27.3303,193.021)"
font-family="DejaVu Sans" font-size="13" font-weight="400" font-style="normal" 
>
</g>

<g fill="none" stroke="#000000" stroke-opacity="1" stroke-width="1" stroke-linecap="square" stroke-linejoin="bevel" transform="matrix(0.885417,0,0,0.885417,27.3303,193.021)"
font-family="DejaVu Sans" font-size="13" font-weight="400" font-style="normal" 
>
<text fill="#000000" fill-opacity="1" stroke="none" xml:space="preserve" x="0" y="10" font-family="DejaVu Sans" font-size="13" font-weight="400" font-style="normal" 
 >0</text>
</g>

<g fill="none" stroke="#000000" stroke-opacity="1" stroke-width="1" stroke-linecap="square" stroke-linejoin="bevel" transform="matrix(0.885417,0,0,0.885417,27.3303,193.021)"
font-family="DejaVu Sans" font-size="13" font-weight="400" font-style="normal" 
>
</g>

<g fill="none" stroke="#000000" stroke-opacity="1" stroke-width="1" stroke-linecap="square" stroke-linejoin="bevel" transform="matrix(0.885417,0,0,0.885417,27.3303,193.021)"
font-family="DejaVu Sans" font-size="11.8056" font-weight="400" font-style="normal" 
>
</g>

<g fill="none" stroke="#000000" stroke-opacity="1" stroke-width="1" stroke-linecap="square" stroke-linejoin="bevel" transform="matrix(0.885417,0,0,0.885417,27.3303,193.021)"
font-family="DejaVu Sans" font-size="11.8056" font-weight="400" font-style="normal" 
>
</g>

<g fill="none" stroke="#000000" stroke-opacity="1" stroke-width="1" stroke-linecap="square" stroke-linejoin="bevel" transform="matrix(0.885417,0,0,0.885417,0,0)"
font-family="DejaVu Sans" font-size="11.8056" font-weight="400" font-style="normal" 
>
</g>

<g fill="none" stroke="#000000" stroke-opacity="1" stroke-width="1" stroke-linecap="square" stroke-linejoin="bevel" transform="matrix(0.885417,0,0,0.885417,120.94,193.021)"
font-family="DejaVu Sans" font-size="11.8056" font-weight="400" font-style="normal" 
>
</g>

<g fill="none" stroke="#000000" stroke-opacity="1" stroke-width="1" stroke-linecap="square" stroke-linejoin="bevel" transform="matrix(0.885417,0,0,0.885417,120.94,193.021)"
font-family="DejaVu Sans" font-size="13" font-weight="400" font-style="normal" 
>
</g>

<g fill="none" stroke="#000000" stroke-opacity="1" stroke-width="1" stroke-linecap="square" stroke-linejoin="bevel" transform="matrix(0.885417,0,0,0.885417,120.94,193.021)"
font-family="DejaVu Sans" font-size="13" font-weight="400" font-style="normal" 
>
<text fill="#000000" fill-opacity="1" stroke="none" xml:space="preserve" x="0" y="10" font-family="DejaVu Sans" font-size="13" font-weight="400" font-style="normal" 
 >10</text>
</g>

<g fill="none" stroke="#000000" stroke-opacity="1" stroke-width="1" stroke-linecap="square" stroke-linejoin="bevel" transform="matrix(0.885417,0,0,0.885417,120.94,193.021)"
font-family="DejaVu Sans" font-size="11.8056" font-weight="400" font-style="normal" 
>
</g>

<g fill="none" stroke="#000000" stroke-opacity="1" stroke-width="1" stroke-linecap="square" stroke-linejoin="bevel" transform="matrix(0.885417,0,0,0.885417,120.94,193.021)"
font-family="DejaVu Sans" font-size="11.8056" font-weight="400" font-style="normal" 
>
</g>

<g fill="none" stroke="#000000" stroke-opacity="1" stroke-width="1" stroke-linecap="square" stroke-linejoin="bevel" transform="matrix(0.885417,0,0,0.885417,0,0)"
font-family="DejaVu Sans" font-size="11.8056" font-weight="400" font-style="normal" 
>
</g>

<g fill="none" stroke="#000000" stroke-opacity="1" stroke-width="1" stroke-linecap="square" stroke-linejoin="bevel" transform="matrix(0.885417,0,0,0.885417,218.21,193.021)"
font-family="DejaVu Sans" font-size="11.8056" font-weight="400" font-style="normal" 
>
</g>

<g fill="none" stroke="#000000" stroke-opacity="1" stroke-width="1" stroke-linecap="square" stroke-linejoin="bevel" transform="matrix(0.885417,0,0,0.885417,218.21,193.021)"
font-family="DejaVu Sans" font-size="13" font-weight="400" font-style="normal" 
>
</g>

<g fill="none" stroke="#000000" stroke-opacity="1" stroke-width="1" stroke-linecap="square" stroke-linejoin="bevel" transform="matrix(0.885417,0,0,0.885417,218.21,193.021)"
font-family="DejaVu Sans" font-size="13" font-weight="400" font-style="normal" 
>
<text fill="#000000" fill-opacity="1" stroke="none" xml:space="preserve" x="0" y="10" font-family="DejaVu Sans" font-size="13" font-weight="400" font-style="normal" 
 >20</text>
</g>

<g fill="none" stroke="#000000" stroke-opacity="1" stroke-width="1" stroke-linecap="square" stroke-linejoin="bevel" transform="matrix(0.885417,0,0,0.885417,218.21,193.021)"
font-family="DejaVu Sans" font-size="11.8056" font-weight="400" font-style="normal" 
>
</g>

<g fill="none" stroke="#000000" stroke-opacity="1" stroke-width="1" stroke-linecap="square" stroke-linejoin="bevel" transform="matrix(0.885417,0,0,0.885417,218.21,193.021)"
font-family="DejaVu Sans" font-size="11.8056" font-weight="400" font-style="normal" 
>
</g>

<g fill="none" stroke="#000000" stroke-opacity="1" stroke-width="1" stroke-linecap="square" stroke-linejoin="bevel" transform="matrix(0.885417,0,0,0.885417,0,0)"
font-family="DejaVu Sans" font-size="11.8056" font-weight="400" font-style="normal" 
>
</g>

<g fill="none" stroke="#000000" stroke-opacity="1" stroke-width="1" stroke-linecap="square" stroke-linejoin="bevel" transform="matrix(0.885417,0,0,0.885417,315.479,193.021)"
font-family="DejaVu Sans" font-size="11.8056" font-weight="400" font-style="normal" 
>
</g>

<g fill="none" stroke="#000000" stroke-opacity="1" stroke-width="1" stroke-linecap="square" stroke-linejoin="bevel" transform="matrix(0.885417,0,0,0.885417,315.479,193.021)"
font-family="DejaVu Sans" font-size="13" font-weight="400" font-style="normal" 
>
</g>

<g fill="none" stroke="#000000" stroke-opacity="1" stroke-width="1" stroke-linecap="square" stroke-linejoin="bevel" transform="matrix(0.885417,0,0,0.885417,315.479,193.021)"
font-family="DejaVu Sans" font-size="13" font-weight="400" font-style="normal" 
>
<text fill="#000000" fill-opacity="1" stroke="none" xml:space="preserve" x="0" y="10" font-family="DejaVu Sans" font-size="13" font-weight="400" font-style="normal" 
 >30</text>
</g>

<g fill="none" stroke="#000000" stroke-opacity="1" stroke-width="1" stroke-linecap="square" stroke-linejoin="bevel" transform="matrix(0.885417,0,0,0.885417,315.479,193.021)"
font-family="DejaVu Sans" font-size="11.8056" font-weight="400" font-style="normal" 
>
</g>

<g fill="none" stroke="#000000" stroke-opacity="1" stroke-width="1" stroke-linecap="square" stroke-linejoin="bevel" transform="matrix(0.885417,0,0,0.885417,315.479,193.021)"
font-family="DejaVu Sans" font-size="11.8056" font-weight="400" font-style="normal" 
>
</g>

<g fill="none" stroke="#000000" stroke-opacity="1" stroke-width="1" stroke-linecap="square" stroke-linejoin="bevel" transform="matrix(0.885417,0,0,0.885417,0,0)"
font-family="DejaVu Sans" font-size="11.8056" font-weight="400" font-style="normal" 
>
</g>

<g fill="none" stroke="#000000" stroke-opacity="1" stroke-width="1" stroke-linecap="square" stroke-linejoin="bevel" transform="matrix(0.885417,0,0,0.885417,412.748,193.021)"
font-family="DejaVu Sans" font-size="11.8056" font-weight="400" font-style="normal" 
>
</g>

<g fill="none" stroke="#000000" stroke-opacity="1" stroke-width="1" stroke-linecap="square" stroke-linejoin="bevel" transform="matrix(0.885417,0,0,0.885417,412.748,193.021)"
font-family="DejaVu Sans" font-size="13" font-weight="400" font-style="normal" 
>
</g>

<g fill="none" stroke="#000000" stroke-opacity="1" stroke-width="1" stroke-linecap="square" stroke-linejoin="bevel" transform="matrix(0.885417,0,0,0.885417,412.748,193.021)"
font-family="DejaVu Sans" font-size="13" font-weight="400" font-style="normal" 
>
<text fill="#000000" fill-opacity="1" stroke="none" xml:space="preserve" x="0" y="10" font-family="DejaVu Sans" font-size="13" font-weight="400" font-style="normal" 
 >40</text>
</g>

<g fill="none" stroke="#000000" stroke-opacity="1" stroke-width="1" stroke-linecap="square" stroke-linejoin="bevel" transform="matrix(0.885417,0,0,0.885417,412.748,193.021)"
font-family="DejaVu Sans" font-size="11.8056" font-weight="400" font-style="normal" 
>
</g>

<g fill="none" stroke="#000000" stroke-opacity="1" stroke-width="1" stroke-linecap="square" stroke-linejoin="bevel" transform="matrix(0.885417,0,0,0.885417,412.748,193.021)"
font-family="DejaVu Sans" font-size="11.8056" font-weight="400" font-style="normal" 
>
</g>

<g fill="none" stroke="#000000" stroke-opacity="1" stroke-width="1" stroke-linecap="square" stroke-linejoin="bevel" transform="matrix(0.885417,0,0,0.885417,0,0)"
font-family="DejaVu Sans" font-size="11.8056" font-weight="400" font-style="normal" 
>
</g>

<g fill="none" stroke="#000000" stroke-opacity="1" stroke-width="1" stroke-linecap="square" stroke-linejoin="bevel" transform="matrix(0.885417,0,0,0.885417,510.018,193.021)"
font-family="DejaVu Sans" font-size="11.8056" font-weight="400" font-style="normal" 
>
</g>

<g fill="none" stroke="#000000" stroke-opacity="1" stroke-width="1" stroke-linecap="square" stroke-linejoin="bevel" transform="matrix(0.885417,0,0,0.885417,510.018,193.021)"
font-family="DejaVu Sans" font-size="13" font-weight="400" font-style="normal" 
>
</g>

<g fill="none" stroke="#000000" stroke-opacity="1" stroke-width="1" stroke-linecap="square" stroke-linejoin="bevel" transform="matrix(0.885417,0,0,0.885417,510.018,193.021)"
font-family="DejaVu Sans" font-size="13" font-weight="400" font-style="normal" 
>
<text fill="#000000" fill-opacity="1" stroke="none" xml:space="preserve" x="0" y="10" font-family="DejaVu Sans" font-size="13" font-weight="400" font-style="normal" 
 >50</text>
</g>

<g fill="none" stroke="#000000" stroke-opacity="1" stroke-width="1" stroke-linecap="square" stroke-linejoin="bevel" transform="matrix(0.885417,0,0,0.885417,510.018,193.021)"
font-family="DejaVu Sans" font-size="11.8056" font-weight="400" font-style="normal" 
>
</g>

<g fill="none" stroke="#000000" stroke-opacity="1" stroke-width="1" stroke-linecap="square" stroke-linejoin="bevel" transform="matrix(0.885417,0,0,0.885417,510.018,193.021)"
font-family="DejaVu Sans" font-size="11.8056" font-weight="400" font-style="normal" 
>
</g>

<g fill="none" stroke="#000000" stroke-opacity="1" stroke-width="1" stroke-linecap="square" stroke-linejoin="bevel" transform="matrix(0.885417,0,0,0.885417,0,0)"
font-family="DejaVu Sans" font-size="11.8056" font-weight="400" font-style="normal" 
>
</g>

<g fill="none" stroke="#000000" stroke-opacity="1" stroke-width="1" stroke-linecap="square" stroke-linejoin="bevel" transform="matrix(0.885417,0,0,0.885417,607.287,193.021)"
font-family="DejaVu Sans" font-size="11.8056" font-weight="400" font-style="normal" 
>
</g>

<g fill="none" stroke="#000000" stroke-opacity="1" stroke-width="1" stroke-linecap="square" stroke-linejoin="bevel" transform="matrix(0.885417,0,0,0.885417,607.287,193.021)"
font-family="DejaVu Sans" font-size="13" font-weight="400" font-style="normal" 
>
</g>

<g fill="none" stroke="#000000" stroke-opacity="1" stroke-width="1" stroke-linecap="square" stroke-linejoin="bevel" transform="matrix(0.885417,0,0,0.885417,607.287,193.021)"
font-family="DejaVu Sans" font-size="13" font-weight="400" font-style="normal" 
>
<text fill="#000000" fill-opacity="1" stroke="none" xml:space="preserve" x="0" y="10" font-family="DejaVu Sans" font-size="13" font-weight="400" font-style="normal" 
 >60</text>
</g>

<g fill="none" stroke="#000000" stroke-opacity="1" stroke-width="1" stroke-linecap="square" stroke-linejoin="bevel" transform="matrix(0.885417,0,0,0.885417,607.287,193.021)"
font-family="DejaVu Sans" font-size="11.8056" font-weight="400" font-style="normal" 
>
</g>

<g fill="none" stroke="#000000" stroke-opacity="1" stroke-width="1" stroke-linecap="square" stroke-linejoin="bevel" transform="matrix(0.885417,0,0,0.885417,607.287,193.021)"
font-family="DejaVu Sans" font-size="11.8056" font-weight="400" font-style="normal" 
>
</g>

<g fill="none" stroke="#000000" stroke-opacity="1" stroke-width="1" stroke-linecap="square" stroke-linejoin="bevel" transform="matrix(0.885417,0,0,0.885417,0,0)"
font-family="DejaVu Sans" font-size="11.8056" font-weight="400" font-style="normal" 
>
</g>

<g fill="none" stroke="#000000" stroke-opacity="1" stroke-width="1" stroke-linecap="square" stroke-linejoin="bevel" transform="matrix(0.885417,0,0,0.885417,704.556,193.021)"
font-family="DejaVu Sans" font-size="11.8056" font-weight="400" font-style="normal" 
>
</g>

<g fill="none" stroke="#000000" stroke-opacity="1" stroke-width="1" stroke-linecap="square" stroke-linejoin="bevel" transform="matrix(0.885417,0,0,0.885417,704.556,193.021)"
font-family="DejaVu Sans" font-size="13" font-weight="400" font-style="normal" 
>
</g>

<g fill="none" stroke="#000000" stroke-opacity="1" stroke-width="1" stroke-linecap="square" stroke-linejoin="bevel" transform="matrix(0.885417,0,0,0.885417,704.556,193.021)"
font-family="DejaVu Sans" font-size="13" font-weight="400" font-style="normal" 
>
<text fill="#000000" fill-opacity="1" stroke="none" xml:space="preserve" x="0" y="10" font-family="DejaVu Sans" font-size="13" font-weight="400" font-style="normal" 
 >70</text>
</g>

<g fill="none" stroke="#000000" stroke-opacity="1" stroke-width="1" stroke-linecap="square" stroke-linejoin="bevel" transform="matrix(0.885417,0,0,0.885417,704.556,193.021)"
font-family="DejaVu Sans" font-size="11.8056" font-weight="400" font-style="normal" 
>
</g>

<g fill="none" stroke="#000000" stroke-opacity="1" stroke-width="1" stroke-linecap="square" stroke-linejoin="bevel" transform="matrix(0.885417,0,0,0.885417,704.556,193.021)"
font-family="DejaVu Sans" font-size="11.8056" font-weight="400" font-style="normal" 
>
</g>

<g fill="none" stroke="#000000" stroke-opacity="1" stroke-width="1" stroke-linecap="square" stroke-linejoin="bevel" transform="matrix(0.885417,0,0,0.885417,0,0)"
font-family="DejaVu Sans" font-size="11.8056" font-weight="400" font-style="normal" 
>
</g>

<g fill="none" stroke="#000000" stroke-opacity="1" stroke-width="1" stroke-linecap="square" stroke-linejoin="bevel" transform="matrix(0.885417,0,0,0.885417,0,0)"
font-family="DejaVu Sans" font-size="11.8056" font-weight="400" font-style="normal" 
>
</g>

<g fill="none" stroke="#000000" stroke-opacity="1" stroke-width="1" stroke-linecap="butt" stroke-linejoin="bevel" transform="matrix(0.885417,0,0,0.885417,0,0)"
font-family="DejaVu Sans" font-size="11.8056" font-weight="400" font-style="normal" 
>
<polyline fill="none" vector-effect="non-scaling-stroke" points="56.9714,205 56.9714,209 " />
<polyline fill="none" vector-effect="non-scaling-stroke" points="78.9429,205 78.9429,209 " />
<polyline fill="none" vector-effect="non-scaling-stroke" points="100.914,205 100.914,209 " />
<polyline fill="none" vector-effect="non-scaling-stroke" points="122.886,205 122.886,209 " />
<polyline fill="none" vector-effect="non-scaling-stroke" points="166.829,205 166.829,209 " />
<polyline fill="none" vector-effect="non-scaling-stroke" points="188.8,205 188.8,209 " />
<polyline fill="none" vector-effect="non-scaling-stroke" points="210.771,205 210.771,209 " />
<polyline fill="none" vector-effect="non-scaling-stroke" points="232.743,205 232.743,209 " />
<polyline fill="none" vector-effect="non-scaling-stroke" points="276.686,205 276.686,209 " />
<polyline fill="none" vector-effect="non-scaling-stroke" points="298.657,205 298.657,209 " />
<polyline fill="none" vector-effect="non-scaling-stroke" points="320.629,205 320.629,209 " />
<polyline fill="none" vector-effect="non-scaling-stroke" points="342.6,205 342.6,209 " />
<polyline fill="none" vector-effect="non-scaling-stroke" points="386.543,205 386.543,209 " />
<polyline fill="none" vector-effect="non-scaling-stroke" points="408.514,205 408.514,209 " />
<polyline fill="none" vector-effect="non-scaling-stroke" points="430.486,205 430.486,209 " />
<polyline fill="none" vector-effect="non-scaling-stroke" points="452.457,205 452.457,209 " />
<polyline fill="none" vector-effect="non-scaling-stroke" points="496.4,205 496.4,209 " />
<polyline fill="none" vector-effect="non-scaling-stroke" points="518.371,205 518.371,209 " />
<polyline fill="none" vector-effect="non-scaling-stroke" points="540.343,205 540.343,209 " />
<polyline fill="none" vector-effect="non-scaling-stroke" points="562.314,205 562.314,209 " />
<polyline fill="none" vector-effect="non-scaling-stroke" points="606.257,205 606.257,209 " />
<polyline fill="none" vector-effect="non-scaling-stroke" points="628.229,205 628.229,209 " />
<polyline fill="none" vector-effect="non-scaling-stroke" points="650.2,205 650.2,209 " />
<polyline fill="none" vector-effect="non-scaling-stroke" points="672.171,205 672.171,209 " />
<polyline fill="none" vector-effect="non-scaling-stroke" points="716.114,205 716.114,209 " />
<polyline fill="none" vector-effect="non-scaling-stroke" points="738.086,205 738.086,209 " />
<polyline fill="none" vector-effect="non-scaling-stroke" points="760.057,205 760.057,209 " />
<polyline fill="none" vector-effect="non-scaling-stroke" points="782.029,205 782.029,209 " />
<polyline fill="none" vector-effect="non-scaling-stroke" points="35,205 35,213 " />
<polyline fill="none" vector-effect="non-scaling-stroke" points="144.857,205 144.857,213 " />
<polyline fill="none" vector-effect="non-scaling-stroke" points="254.714,205 254.714,213 " />
<polyline fill="none" vector-effect="non-scaling-stroke" points="364.571,205 364.571,213 " />
<polyline fill="none" vector-effect="non-scaling-stroke" points="474.429,205 474.429,213 " />
<polyline fill="none" vector-effect="non-scaling-stroke" points="584.286,205 584.286,213 " />
<polyline fill="none" vector-effect="non-scaling-stroke" points="694.143,205 694.143,213 " />
<polyline fill="none" vector-effect="non-scaling-stroke" points="804,205 804,213 " />
</g>

<g fill="none" stroke="#000000" stroke-opacity="1" stroke-width="1" stroke-linecap="square" stroke-linejoin="bevel" transform="matrix(0.885417,0,0,0.885417,0,0)"
font-family="DejaVu Sans" font-size="11.8056" font-weight="400" font-style="normal" 
>
</g>

<g fill="none" stroke="#000000" stroke-opacity="1" stroke-width="1" stroke-linecap="butt" stroke-linejoin="bevel" transform="matrix(0.885417,0,0,0.885417,0,0)"
font-family="DejaVu Sans" font-size="11.8056" font-weight="400" font-style="normal" 
>
<polyline fill="none" vector-effect="non-scaling-stroke" points="35,205 804,205 " />
</g>

<g fill="none" stroke="#000000" stroke-opacity="1" stroke-width="1" stroke-linecap="square" stroke-linejoin="bevel" transform="matrix(0.885417,0,0,0.885417,0,0)"
font-family="DejaVu Sans" font-size="11.8056" font-weight="400" font-style="normal" 
>
</g>

<g fill="none" stroke="#000000" stroke-opacity="1" stroke-width="1" stroke-linecap="square" stroke-linejoin="bevel" transform="matrix(0.885417,0,0,0.885417,0,0)"
font-family="DejaVu Sans" font-size="11.8056" font-weight="400" font-style="normal" 
>
</g>

<g fill="none" stroke="#000000" stroke-opacity="1" stroke-width="1" stroke-linecap="square" stroke-linejoin="bevel" transform="matrix(0.885417,0,0,0.885417,0,0)"
font-family="Sans Serif" font-size="10.625" font-weight="400" font-style="normal" 
>
</g>

<g fill="none" stroke="#000000" stroke-opacity="1" stroke-width="1" stroke-linecap="square" stroke-linejoin="bevel" transform="matrix(1,0,0,1,0,0)"
font-family="Sans Serif" font-size="10.625" font-weight="400" font-style="normal" 
>
</g>
</g>
</svg>
