<?xml version="1.0" encoding="UTF-8" standalone="no"?>
<svg viewBox="0 0 719.488 220.866"
 xmlns="http://www.w3.org/2000/svg" xmlns:xlink="http://www.w3.org/1999/xlink"  version="1.2" baseProfile="tiny">
<title>Plot Document</title>
<desc>Generated with Qt</desc>
<defs>
</defs>
<g fill="none" stroke="black" stroke-width="1" fill-rule="evenodd" stroke-linecap="square" stroke-linejoin="bevel" >

<g fill="none" stroke="#000000" stroke-opacity="1" stroke-width="1" stroke-linecap="square" stroke-linejoin="bevel" transform="matrix(0.885417,0,0,0.885417,0,0)"
font-family="Sans Serif" font-size="10.625" font-weight="400" font-style="normal" 
>
</g>

<g fill="none" stroke="#000000" stroke-opacity="1" stroke-width="1" stroke-linecap="square" stroke-linejoin="bevel" transform="matrix(0.885417,0,0,0.885417,0,0)"
font-family="Sans Serif" font-size="10.625" font-weight="400" font-style="normal" 
>
</g>

<g fill="#ffffff" fill-opacity="1" stroke="none" transform="matrix(0.885417,0,0,0.885417,0,0)"
font-family="Sans Serif" font-size="10.625" font-weight="400" font-style="normal" 
>
<rect x="35" y="44" width="770" height="161"/>
</g>

<g fill="none" stroke="#000000" stroke-opacity="1" stroke-width="1" stroke-linecap="square" stroke-linejoin="bevel" transform="matrix(0.885417,0,0,0.885417,0,0)"
font-family="Sans Serif" font-size="10.625" font-weight="400" font-style="normal" 
>
</g>

<g fill="none" stroke="#000000" stroke-opacity="1" stroke-width="1" stroke-linecap="square" stroke-linejoin="bevel" transform="matrix(0.885417,0,0,0.885417,0,0)"
font-family="Sans Serif" font-size="10.625" font-weight="400" font-style="normal" 
>
</g>

<g fill="none" stroke="#ff0000" stroke-opacity="1" stroke-width="1" stroke-linecap="square" stroke-linejoin="bevel" transform="matrix(0.885417,0,0,0.885417,0,0)"
font-family="Sans Serif" font-size="10.625" font-weight="400" font-style="normal" 
>
<polyline fill="none" vector-effect="none" points="35,204 36.538,204 38.076,204 39.614,204 41.152,204 42.69,204 44.228,204 45.766,204 45.9857,204 47.304,204 48.842,204 50.38,204 51.918,204 53.456,204 54.994,204 56.532,204 56.9714,204 58.07,204 59.608,204 61.146,204 62.684,204 64.222,204 65.76,204 67.298,204 67.9571,204 68.836,204 70.374,204 71.912,204 73.45,204 74.988,204 76.526,204 78.064,204 78.9429,204 79.602,204 81.14,204 82.678,204 84.216,204 85.754,204 87.292,204 88.83,204 89.9286,204 90.368,204 91.906,204 93.444,204 94.982,204 96.52,204 98.058,204 99.596,204 100.914,204 101.134,204 102.672,204 104.21,204 105.748,204 107.286,204 108.824,204 110.362,204 111.9,204 113.438,204 114.976,204 116.514,204 118.052,204 119.59,204 121.128,204 122.666,204 122.886,204 124.204,204 125.742,204 127.28,204 128.818,204 130.356,204 131.894,204 133.432,204 133.871,204 134.97,204 136.508,204 138.046,204 139.584,204 141.122,204 142.66,204 144.198,204 144.857,204 144.857,204 144.857,124 145.736,124 147.274,124 148.812,124 150.35,124 151.888,124 153.426,124 154.964,124 155.843,124 156.502,124 158.04,124 159.578,124 161.116,124 162.654,124 164.192,124 165.73,124 166.829,124 167.268,124 168.806,124 170.344,124 171.882,124 173.42,124 174.958,124 176.496,124 177.814,124 178.034,124 179.572,124 181.11,124 182.648,124 184.186,124 185.724,124 187.262,124 188.8,124 190.338,124 191.876,124 193.414,124 194.952,124 196.49,124 198.028,124 199.566,124 199.786,124 201.104,124 202.642,124 204.18,124 205.718,124 207.256,124 208.794,124 210.332,124 210.771,124 211.87,124 213.408,124 214.946,124 216.484,124 218.022,124 219.56,124 221.098,124 221.757,124 222.636,124 224.174,124 225.712,124 227.25,124 228.788,124 230.326,124 231.864,124 232.743,124 233.402,124 234.94,124 236.478,124 238.016,124 239.554,124 241.092,124 242.63,124 243.729,124 244.168,124 245.706,124 247.244,124 248.782,124 250.32,124 251.858,124 253.396,124 254.714,124 254.934,124 256.472,124 258.01,124 259.548,124 261.086,124 262.624,124 264.162,124 265.7,124 267.238,124 268.776,124 270.314,124 271.852,124 273.39,124 274.928,124 276.466,124 276.686,124 278.004,124 279.542,124 281.08,124 282.618,124 284.156,124 285.694,124 287.232,124 287.671,124 288.77,124 290.308,124 291.846,124 293.384,124 294.922,124 296.46,124 297.998,124 298.657,124 299.536,124 301.074,124 302.612,124 304.15,124 305.688,124 307.226,124 308.764,124 309.643,124 310.302,124 311.84,124 313.378,124 314.916,124 316.454,124 317.992,124 319.53,124 320.629,124 321.068,124 322.606,124 324.144,124 325.682,124 327.22,124 328.758,124 330.296,124 331.614,124 331.834,124 333.372,124 334.91,124 336.448,124 337.986,124 339.524,124 341.062,124 342.6,124 344.138,124 345.676,124 347.214,124 348.752,124 350.29,124 351.828,124 353.366,124 353.586,124 354.904,124 356.442,124 357.98,124 359.518,124 361.056,124 362.594,124 364.132,124 364.571,124 365.67,124 367.208,124 368.746,124 370.284,124 371.822,124 373.36,124 374.898,124 375.557,124 376.436,124 377.974,124 379.512,124 381.05,124 382.588,124 384.126,124 385.664,124 386.543,124 387.202,124 388.74,124 390.278,124 391.816,124 393.354,124 394.892,124 396.43,124 397.529,124 397.968,124 399.506,124 401.044,124 402.582,124 404.12,124 405.658,124 407.196,124 408.514,124 408.734,124 410.272,124 411.81,124 413.348,124 414.886,124 416.424,124 417.962,124 419.5,124 421.038,124 422.576,124 424.114,124 425.652,124 427.19,124 428.728,124 430.266,124 430.486,124 431.804,124 433.342,124 434.88,124 436.418,124 437.956,124 439.494,124 441.032,124 441.471,124 442.57,124 444.108,124 445.646,124 447.184,124 448.722,124 450.26,124 451.798,124 452.457,124 453.336,124 454.874,124 456.412,124 457.95,124 459.488,124 461.026,124 462.564,124 463.443,124 464.102,124 465.64,124 467.178,124 468.716,124 470.254,124 471.792,124 473.33,124 474.429,124 474.868,124 476.406,124 477.944,124 479.482,124 481.02,124 482.558,124 484.096,124 485.414,124 485.634,124 487.172,124 488.71,124 490.248,124 491.786,124 493.324,124 494.862,124 496.4,124 497.938,124 499.476,124 501.014,124 502.552,124 504.09,124 505.628,124 507.166,124 507.386,124 508.704,124 510.242,124 511.78,124 513.318,124 514.856,124 516.394,124 517.932,124 518.371,124 519.47,124 521.008,124 522.546,124 524.084,124 525.622,124 527.16,124 528.698,124 529.357,124 530.236,124 531.774,124 533.312,124 534.85,124 536.388,124 537.926,124 539.464,124 540.343,124 541.002,124 542.54,124 544.078,124 545.616,124 547.154,124 548.692,124 550.23,124 551.329,124 551.768,124 553.306,124 554.844,124 556.382,124 557.92,124 559.458,124 560.996,124 562.314,124 562.534,124 564.072,124 565.61,124 567.148,124 568.686,124 570.224,124 571.762,124 573.3,124 574.838,124 576.376,124 577.914,124 579.452,124 580.99,124 582.528,124 584.066,124 584.286,124 585.604,124 587.142,124 588.68,124 590.218,124 591.756,124 593.294,124 594.832,124 595.271,124 596.37,124 597.908,124 599.446,124 600.984,124 602.522,124 604.06,124 605.598,124 606.257,124 607.136,124 608.674,124 610.212,124 611.75,124 613.288,124 614.826,124 616.364,124 617.243,124 617.902,124 619.44,124 620.978,124 622.516,124 624.054,124 625.592,124 627.13,124 628.229,124 628.668,124 630.206,124 631.744,124 633.282,124 634.82,124 636.358,124 637.896,124 639.214,124 639.434,124 640.972,124 642.51,124 644.048,124 645.586,124 647.124,124 648.662,124 650.2,124 651.738,124 653.276,124 654.814,124 656.352,124 657.89,124 659.428,124 660.966,124 661.186,124 662.504,124 664.042,124 665.58,124 667.118,124 668.656,124 670.194,124 671.732,124 672.171,124 673.27,124 674.808,124 676.346,124 677.884,124 679.422,124 680.96,124 682.498,124 683.157,124 684.036,124 685.574,124 687.112,124 688.65,124 690.188,124 691.726,124 693.264,124 694.143,124 694.802,124 696.34,124 697.878,124 699.416,124 700.954,124 702.492,124 704.03,124 705.129,124 705.568,124 707.106,124 708.644,124 710.182,124 711.72,124 713.258,124 714.796,124 716.114,124 716.334,124 717.872,124 719.41,124 720.948,124 722.486,124 724.024,124 725.562,124 727.1,124 728.638,124 730.176,124 731.714,124 733.252,124 734.79,124 736.328,124 737.866,124 738.086,124 739.404,124 740.942,124 742.48,124 744.018,124 745.556,124 747.094,124 748.632,124 749.071,124 750.17,124 751.708,124 753.246,124 754.784,124 756.322,124 757.86,124 759.398,124 760.057,124 760.936,124 762.474,124 764.012,124 765.55,124 767.088,124 768.626,124 770.164,124 771.043,124 771.702,124 773.24,124 774.778,124 776.316,124 777.854,124 779.392,124 780.93,124 782.029,124 782.468,124 784.006,124 785.544,124 787.082,124 788.62,124 790.158,124 791.696,124 793.014,124 793.234,124 794.772,124 796.31,124 797.848,124 799.386,124 800.924,124 802.462,124 804,124 " />
</g>

<g fill="none" stroke="#000000" stroke-opacity="1" stroke-width="1" stroke-linecap="square" stroke-linejoin="bevel" transform="matrix(0.885417,0,0,0.885417,0,0)"
font-family="Sans Serif" font-size="10.625" font-weight="400" font-style="normal" 
>
</g>

<g fill="none" stroke="#000000" stroke-opacity="1" stroke-width="1" stroke-linecap="square" stroke-linejoin="bevel" transform="matrix(0.885417,0,0,0.885417,0,0)"
font-family="Sans Serif" font-size="10.625" font-weight="400" font-style="normal" 
>
</g>

<g fill="none" stroke="#000000" stroke-opacity="1" stroke-width="1" stroke-linecap="square" stroke-linejoin="bevel" transform="matrix(0.885417,0,0,0.885417,0,0)"
font-family="Sans Serif" font-size="10.625" font-weight="400" font-style="normal" 
>
</g>

<g fill="none" stroke="#0000ff" stroke-opacity="1" stroke-width="1" stroke-linecap="square" stroke-linejoin="bevel" transform="matrix(0.885417,0,0,0.885417,0,0)"
font-family="Sans Serif" font-size="10.625" font-weight="400" font-style="normal" 
>
<polyline fill="none" vector-effect="none" points="35,204 36.538,204 38.076,204 39.614,204 41.152,204 42.69,204 44.228,204 45.766,204 45.9857,204 47.304,204 48.842,204 50.38,204 51.918,204 53.456,204 54.994,204 56.532,204 56.9714,204 58.07,204 59.608,204 61.146,204 62.684,204 64.222,204 65.76,204 67.298,204 67.9571,204 68.836,204 70.374,204 71.912,204 73.45,204 74.988,204 76.526,204 78.064,204 78.9429,204 79.602,204 81.14,204 82.678,204 84.216,204 85.754,204 87.292,204 88.83,204 89.9286,204 90.368,204 91.906,204 93.444,204 94.982,204 96.52,204 98.058,204 99.596,204 100.914,204 101.134,204 102.672,204 104.21,204 105.748,204 107.286,204 108.824,204 110.362,204 111.9,204 113.438,204 114.976,204 116.514,204 118.052,204 119.59,204 121.128,204 122.666,204 122.886,204 124.204,204 125.742,204 127.28,204 128.818,204 130.356,204 131.894,204 133.432,204 133.871,204 134.97,204 136.508,204 138.046,204 139.584,204 141.122,204 142.66,204 144.198,204 144.857,204 144.857,204 145.736,204 147.274,204 148.812,204 150.35,204 151.888,204 153.426,204 154.964,204 155.843,204 156.502,204 158.04,204 159.578,204 161.116,204 162.654,204 164.192,204 165.73,204 166.829,204 166.829,188 167.268,188 168.806,188 170.344,188 171.882,188 173.42,188 174.958,188 176.496,188 177.814,188 177.814,178.4 178.034,178.4 179.572,178.4 181.11,178.4 182.648,178.4 184.186,178.4 185.724,178.4 187.262,178.4 188.8,178.4 188.8,171.84 190.338,171.84 191.876,171.84 193.414,171.84 194.952,171.84 196.49,171.84 198.028,171.84 199.566,171.84 199.786,171.84 199.786,166.824 201.104,166.824 202.642,166.824 204.18,166.824 205.718,166.824 207.256,166.824 208.794,166.824 210.332,166.824 210.771,166.824 210.771,162.676 211.87,162.676 213.408,162.676 214.946,162.676 216.484,162.676 218.022,162.676 219.56,162.676 221.098,162.676 221.757,162.676 221.757,159.084 222.636,159.084 224.174,159.084 225.712,159.084 227.25,159.084 228.788,159.084 230.326,159.084 231.864,159.084 232.743,159.084 232.743,155.892 233.402,155.892 234.94,155.892 236.478,155.892 238.016,155.892 239.554,155.892 241.092,155.892 242.63,155.892 243.729,155.892 243.729,153.021 244.168,153.021 245.706,153.021 247.244,153.021 248.782,153.021 250.32,153.021 251.858,153.021 253.396,153.021 254.714,153.021 254.714,150.422 254.934,150.422 256.472,150.422 258.01,150.422 259.548,150.422 261.086,150.422 262.624,150.422 264.162,150.422 265.7,150.422 265.7,148.061 267.238,148.061 268.776,148.061 270.314,148.061 271.852,148.061 273.39,148.061 274.928,148.061 276.466,148.061 276.686,148.061 276.686,145.913 278.004,145.913 279.542,145.913 281.08,145.913 282.618,145.913 284.156,145.913 285.694,145.913 287.232,145.913 287.671,145.913 287.671,143.959 288.77,143.959 290.308,143.959 291.846,143.959 293.384,143.959 294.922,143.959 296.46,143.959 297.998,143.959 298.657,143.959 298.657,142.179 299.536,142.179 301.074,142.179 302.612,142.179 304.15,142.179 305.688,142.179 307.226,142.179 308.764,142.179 309.643,142.179 309.643,140.558 310.302,140.558 311.84,140.558 313.378,140.558 314.916,140.558 316.454,140.558 317.992,140.558 319.53,140.558 320.629,140.558 320.629,139.082 321.068,139.082 322.606,139.082 324.144,139.082 325.682,139.082 327.22,139.082 328.758,139.082 330.296,139.082 331.614,139.082 331.614,137.737 331.834,137.737 333.372,137.737 334.91,137.737 336.448,137.737 337.986,137.737 339.524,137.737 341.062,137.737 342.6,137.737 342.6,136.513 344.138,136.513 345.676,136.513 347.214,136.513 348.752,136.513 350.29,136.513 351.828,136.513 353.366,136.513 353.586,136.513 353.586,135.397 354.904,135.397 356.442,135.397 357.98,135.397 359.518,135.397 361.056,135.397 362.594,135.397 364.132,135.397 364.571,135.397 364.571,134.381 365.67,134.381 367.208,134.381 368.746,134.381 370.284,134.381 371.822,134.381 373.36,134.381 374.898,134.381 375.557,134.381 375.557,133.455 376.436,133.455 377.974,133.455 379.512,133.455 381.05,133.455 382.588,133.455 384.126,133.455 385.664,133.455 386.543,133.455 386.543,132.613 387.202,132.613 388.74,132.613 390.278,132.613 391.816,132.613 393.354,132.613 394.892,132.613 396.43,132.613 397.529,132.613 397.529,131.845 397.968,131.845 399.506,131.845 401.044,131.845 402.582,131.845 404.12,131.845 405.658,131.845 407.196,131.845 408.514,131.845 408.514,131.145 408.734,131.145 410.272,131.145 411.81,131.145 413.348,131.145 414.886,131.145 416.424,131.145 417.962,131.145 419.5,131.145 419.5,130.508 421.038,130.508 422.576,130.508 424.114,130.508 425.652,130.508 427.19,130.508 428.728,130.508 430.266,130.508 430.486,130.508 430.486,129.928 431.804,129.928 433.342,129.928 434.88,129.928 436.418,129.928 437.956,129.928 439.494,129.928 441.032,129.928 441.471,129.928 441.471,129.4 442.57,129.4 444.108,129.4 445.646,129.4 447.184,129.4 448.722,129.4 450.26,129.4 451.798,129.4 452.457,129.4 452.457,128.918 453.336,128.918 454.874,128.918 456.412,128.918 457.95,128.918 459.488,128.918 461.026,128.918 462.564,128.918 463.443,128.918 463.443,128.48 464.102,128.48 465.64,128.48 467.178,128.48 468.716,128.48 470.254,128.48 471.792,128.48 473.33,128.48 474.429,128.48 474.429,128.08 474.868,128.08 476.406,128.08 477.944,128.08 479.482,128.08 481.02,128.08 482.558,128.08 484.096,128.08 485.414,128.08 485.414,127.717 485.634,127.717 487.172,127.717 488.71,127.717 490.248,127.717 491.786,127.717 493.324,127.717 494.862,127.717 496.4,127.717 496.4,127.385 497.938,127.385 499.476,127.385 501.014,127.385 502.552,127.385 504.09,127.385 505.628,127.385 507.166,127.385 507.386,127.385 507.386,127.083 508.704,127.083 510.242,127.083 511.78,127.083 513.318,127.083 514.856,127.083 516.394,127.083 517.932,127.083 518.371,127.083 518.371,126.809 519.47,126.809 521.008,126.809 522.546,126.809 524.084,126.809 525.622,126.809 527.16,126.809 528.698,126.809 529.357,126.809 529.357,126.558 530.236,126.558 531.774,126.558 533.312,126.558 534.85,126.558 536.388,126.558 537.926,126.558 539.464,126.558 540.343,126.558 540.343,126.33 541.002,126.33 542.54,126.33 544.078,126.33 545.616,126.33 547.154,126.33 548.692,126.33 550.23,126.33 551.329,126.33 551.329,126.122 551.768,126.122 553.306,126.122 554.844,126.122 556.382,126.122 557.92,126.122 559.458,126.122 560.996,126.122 562.314,126.122 562.314,125.933 562.534,125.933 564.072,125.933 565.61,125.933 567.148,125.933 568.686,125.933 570.224,125.933 571.762,125.933 573.3,125.933 573.3,125.761 574.838,125.761 576.376,125.761 577.914,125.761 579.452,125.761 580.99,125.761 582.528,125.761 584.066,125.761 584.286,125.761 584.286,125.604 585.604,125.604 587.142,125.604 588.68,125.604 590.218,125.604 591.756,125.604 593.294,125.604 594.832,125.604 595.271,125.604 595.271,125.461 596.37,125.461 597.908,125.461 599.446,125.461 600.984,125.461 602.522,125.461 604.06,125.461 605.598,125.461 606.257,125.461 606.257,125.331 607.136,125.331 608.674,125.331 610.212,125.331 611.75,125.331 613.288,125.331 614.826,125.331 616.364,125.331 617.243,125.331 617.243,125.212 617.902,125.212 619.44,125.212 620.978,125.212 622.516,125.212 624.054,125.212 625.592,125.212 627.13,125.212 628.229,125.212 628.229,125.104 628.668,125.104 630.206,125.104 631.744,125.104 633.282,125.104 634.82,125.104 636.358,125.104 637.896,125.104 639.214,125.104 639.214,125.006 639.434,125.006 640.972,125.006 642.51,125.006 644.048,125.006 645.586,125.006 647.124,125.006 648.662,125.006 650.2,125.006 650.2,124.916 651.738,124.916 653.276,124.916 654.814,124.916 656.352,124.916 657.89,124.916 659.428,124.916 660.966,124.916 661.186,124.916 661.186,124.834 662.504,124.834 664.042,124.834 665.58,124.834 667.118,124.834 668.656,124.834 670.194,124.834 671.732,124.834 672.171,124.834 672.171,124.76 673.27,124.76 674.808,124.76 676.346,124.76 677.884,124.76 679.422,124.76 680.96,124.76 682.498,124.76 683.157,124.76 683.157,124.692 684.036,124.692 685.574,124.692 687.112,124.692 688.65,124.692 690.188,124.692 691.726,124.692 693.264,124.692 694.143,124.692 694.143,124.63 694.802,124.63 696.34,124.63 697.878,124.63 699.416,124.63 700.954,124.63 702.492,124.63 704.03,124.63 705.129,124.63 705.129,124.574 705.568,124.574 707.106,124.574 708.644,124.574 710.182,124.574 711.72,124.574 713.258,124.574 714.796,124.574 716.114,124.574 716.114,124.523 716.334,124.523 717.872,124.523 719.41,124.523 720.948,124.523 722.486,124.523 724.024,124.523 725.562,124.523 727.1,124.523 727.1,124.476 728.638,124.476 730.176,124.476 731.714,124.476 733.252,124.476 734.79,124.476 736.328,124.476 737.866,124.476 738.086,124.476 738.086,124.434 739.404,124.434 740.942,124.434 742.48,124.434 744.018,124.434 745.556,124.434 747.094,124.434 748.632,124.434 749.071,124.434 749.071,124.395 750.17,124.395 751.708,124.395 753.246,124.395 754.784,124.395 756.322,124.395 757.86,124.395 759.398,124.395 760.057,124.395 760.057,124.36 760.936,124.36 762.474,124.36 764.012,124.36 765.55,124.36 767.088,124.36 768.626,124.36 770.164,124.36 771.043,124.36 771.043,124.328 771.702,124.328 773.24,124.328 774.778,124.328 776.316,124.328 777.854,124.328 779.392,124.328 780.93,124.328 782.029,124.328 782.029,124.299 782.468,124.299 784.006,124.299 785.544,124.299 787.082,124.299 788.62,124.299 790.158,124.299 791.696,124.299 793.014,124.299 793.014,124.272 793.234,124.272 794.772,124.272 796.31,124.272 797.848,124.272 799.386,124.272 800.924,124.272 802.462,124.272 804,124.272 804,124.248 " />
</g>

<g fill="none" stroke="#000000" stroke-opacity="1" stroke-width="1" stroke-linecap="square" stroke-linejoin="bevel" transform="matrix(0.885417,0,0,0.885417,0,0)"
font-family="Sans Serif" font-size="10.625" font-weight="400" font-style="normal" 
>
</g>

<g fill="none" stroke="#000000" stroke-opacity="1" stroke-width="1" stroke-linecap="square" stroke-linejoin="bevel" transform="matrix(0.885417,0,0,0.885417,0,0)"
font-family="Sans Serif" font-size="10.625" font-weight="400" font-style="normal" 
>
</g>

<g fill="none" stroke="#000000" stroke-opacity="1" stroke-width="1" stroke-linecap="square" stroke-linejoin="bevel" transform="matrix(0.885417,0,0,0.885417,0,0)"
font-family="Sans Serif" font-size="10.625" font-weight="400" font-style="normal" 
>
</g>

<g fill="none" stroke="#55aa00" stroke-opacity="1" stroke-width="1" stroke-linecap="square" stroke-linejoin="bevel" transform="matrix(0.885417,0,0,0.885417,0,0)"
font-family="Sans Serif" font-size="10.625" font-weight="400" font-style="normal" 
>
<polyline fill="none" vector-effect="none" points="35,204 36.538,204 38.076,204 39.614,204 41.152,204 42.69,204 44.228,204 45.766,204 45.9857,204 47.304,204 48.842,204 50.38,204 51.918,204 53.456,204 54.994,204 56.532,204 56.9714,204 58.07,204 59.608,204 61.146,204 62.684,204 64.222,204 65.76,204 67.298,204 67.9571,204 68.836,204 70.374,204 71.912,204 73.45,204 74.988,204 76.526,204 78.064,204 78.9429,204 79.602,204 81.14,204 82.678,204 84.216,204 85.754,204 87.292,204 88.83,204 89.9286,204 90.368,204 91.906,204 93.444,204 94.982,204 96.52,204 98.058,204 99.596,204 100.914,204 101.134,204 102.672,204 104.21,204 105.748,204 107.286,204 108.824,204 110.362,204 111.9,204 113.438,204 114.976,204 116.514,204 118.052,204 119.59,204 121.128,204 122.666,204 122.886,204 124.204,204 125.742,204 127.28,204 128.818,204 130.356,204 131.894,204 133.432,204 133.871,204 134.97,204 136.508,204 138.046,204 139.584,204 141.122,204 142.66,204 144.198,204 144.857,204 144.857,204 144.857,164 145.736,164 147.274,164 148.812,164 150.35,164 151.888,164 153.426,164 154.964,164 155.843,164 155.843,44 156.502,44 158.04,44 159.578,44 161.116,44 162.654,44 164.192,44 165.73,44 166.829,44 166.829,92 167.268,92 168.806,92 170.344,92 171.882,92 173.42,92 174.958,92 176.496,92 177.814,92 177.814,112.8 178.034,112.8 179.572,112.8 181.11,112.8 182.648,112.8 184.186,112.8 185.724,112.8 187.262,112.8 188.8,112.8 188.8,121.68 190.338,121.68 191.876,121.68 193.414,121.68 194.952,121.68 196.49,121.68 198.028,121.68 199.566,121.68 199.786,121.68 199.786,125.348 201.104,125.348 202.642,125.348 204.18,125.348 205.718,125.348 207.256,125.348 208.794,125.348 210.332,125.348 210.771,125.348 210.771,126.748 211.87,126.748 213.408,126.748 214.946,126.748 216.484,126.748 218.022,126.748 219.56,126.748 221.098,126.748 221.757,126.748 221.757,127.17 222.636,127.17 224.174,127.17 225.712,127.17 227.25,127.17 228.788,127.17 230.326,127.17 231.864,127.17 232.743,127.17 232.743,127.181 233.402,127.181 234.94,127.181 236.478,127.181 238.016,127.181 239.554,127.181 241.092,127.181 242.63,127.181 243.729,127.181 243.729,127.026 244.168,127.026 245.706,127.026 247.244,127.026 248.782,127.026 250.32,127.026 251.858,127.026 253.396,127.026 254.714,127.026 254.714,126.813 254.934,126.813 256.472,126.813 258.01,126.813 259.548,126.813 261.086,126.813 262.624,126.813 264.162,126.813 265.7,126.813 265.7,126.587 267.238,126.587 268.776,126.587 270.314,126.587 271.852,126.587 273.39,126.587 274.928,126.587 276.466,126.587 276.686,126.587 276.686,126.367 278.004,126.367 279.542,126.367 281.08,126.367 282.618,126.367 284.156,126.367 285.694,126.367 287.232,126.367 287.671,126.367 287.671,126.161 288.77,126.161 290.308,126.161 291.846,126.161 293.384,126.161 294.922,126.161 296.46,126.161 297.998,126.161 298.657,126.161 298.657,125.97 299.536,125.97 301.074,125.97 302.612,125.97 304.15,125.97 305.688,125.97 307.226,125.97 308.764,125.97 309.643,125.97 309.643,125.796 310.302,125.796 311.84,125.796 313.378,125.796 314.916,125.796 316.454,125.796 317.992,125.796 319.53,125.796 320.629,125.796 320.629,125.636 321.068,125.636 322.606,125.636 324.144,125.636 325.682,125.636 327.22,125.636 328.758,125.636 330.296,125.636 331.614,125.636 331.614,125.49 331.834,125.49 333.372,125.49 334.91,125.49 336.448,125.49 337.986,125.49 339.524,125.49 341.062,125.49 342.6,125.49 342.6,125.357 344.138,125.357 345.676,125.357 347.214,125.357 348.752,125.357 350.29,125.357 351.828,125.357 353.366,125.357 353.586,125.357 353.586,125.236 354.904,125.236 356.442,125.236 357.98,125.236 359.518,125.236 361.056,125.236 362.594,125.236 364.132,125.236 364.571,125.236 364.571,125.126 365.67,125.126 367.208,125.126 368.746,125.126 370.284,125.126 371.822,125.126 373.36,125.126 374.898,125.126 375.557,125.126 375.557,125.026 376.436,125.026 377.974,125.026 379.512,125.026 381.05,125.026 382.588,125.026 384.126,125.026 385.664,125.026 386.543,125.026 386.543,124.934 387.202,124.934 388.74,124.934 390.278,124.934 391.816,124.934 393.354,124.934 394.892,124.934 396.43,124.934 397.529,124.934 397.529,124.851 397.968,124.851 399.506,124.851 401.044,124.851 402.582,124.851 404.12,124.851 405.658,124.851 407.196,124.851 408.514,124.851 408.514,124.775 408.734,124.775 410.272,124.775 411.81,124.775 413.348,124.775 414.886,124.775 416.424,124.775 417.962,124.775 419.5,124.775 419.5,124.706 421.038,124.706 422.576,124.706 424.114,124.706 425.652,124.706 427.19,124.706 428.728,124.706 430.266,124.706 430.486,124.706 430.486,124.643 431.804,124.643 433.342,124.643 434.88,124.643 436.418,124.643 437.956,124.643 439.494,124.643 441.032,124.643 441.471,124.643 441.471,124.586 442.57,124.586 444.108,124.586 445.646,124.586 447.184,124.586 448.722,124.586 450.26,124.586 451.798,124.586 452.457,124.586 452.457,124.534 453.336,124.534 454.874,124.534 456.412,124.534 457.95,124.534 459.488,124.534 461.026,124.534 462.564,124.534 463.443,124.534 463.443,124.486 464.102,124.486 465.64,124.486 467.178,124.486 468.716,124.486 470.254,124.486 471.792,124.486 473.33,124.486 474.429,124.486 474.429,124.443 474.868,124.443 476.406,124.443 477.944,124.443 479.482,124.443 481.02,124.443 482.558,124.443 484.096,124.443 485.414,124.443 485.414,124.403 485.634,124.403 487.172,124.403 488.71,124.403 490.248,124.403 491.786,124.403 493.324,124.403 494.862,124.403 496.4,124.403 496.4,124.367 497.938,124.367 499.476,124.367 501.014,124.367 502.552,124.367 504.09,124.367 505.628,124.367 507.166,124.367 507.386,124.367 507.386,124.335 508.704,124.335 510.242,124.335 511.78,124.335 513.318,124.335 514.856,124.335 516.394,124.335 517.932,124.335 518.371,124.335 518.371,124.305 519.47,124.305 521.008,124.305 522.546,124.305 524.084,124.305 525.622,124.305 527.16,124.305 528.698,124.305 529.357,124.305 529.357,124.278 530.236,124.278 531.774,124.278 533.312,124.278 534.85,124.278 536.388,124.278 537.926,124.278 539.464,124.278 540.343,124.278 540.343,124.253 541.002,124.253 542.54,124.253 544.078,124.253 545.616,124.253 547.154,124.253 548.692,124.253 550.23,124.253 551.329,124.253 551.329,124.23 551.768,124.23 553.306,124.23 554.844,124.23 556.382,124.23 557.92,124.23 559.458,124.23 560.996,124.23 562.314,124.23 562.314,124.21 562.534,124.21 564.072,124.21 565.61,124.21 567.148,124.21 568.686,124.21 570.224,124.21 571.762,124.21 573.3,124.21 573.3,124.191 574.838,124.191 576.376,124.191 577.914,124.191 579.452,124.191 580.99,124.191 582.528,124.191 584.066,124.191 584.286,124.191 584.286,124.174 585.604,124.174 587.142,124.174 588.68,124.174 590.218,124.174 591.756,124.174 593.294,124.174 594.832,124.174 595.271,124.174 595.271,124.158 596.37,124.158 597.908,124.158 599.446,124.158 600.984,124.158 602.522,124.158 604.06,124.158 605.598,124.158 606.257,124.158 606.257,124.144 607.136,124.144 608.674,124.144 610.212,124.144 611.75,124.144 613.288,124.144 614.826,124.144 616.364,124.144 617.243,124.144 617.243,124.131 617.902,124.131 619.44,124.131 620.978,124.131 622.516,124.131 624.054,124.131 625.592,124.131 627.13,124.131 628.229,124.131 628.229,124.12 628.668,124.12 630.206,124.12 631.744,124.12 633.282,124.12 634.82,124.12 636.358,124.12 637.896,124.12 639.214,124.12 639.214,124.109 639.434,124.109 640.972,124.109 642.51,124.109 644.048,124.109 645.586,124.109 647.124,124.109 648.662,124.109 650.2,124.109 650.2,124.099 651.738,124.099 653.276,124.099 654.814,124.099 656.352,124.099 657.89,124.099 659.428,124.099 660.966,124.099 661.186,124.099 661.186,124.091 662.504,124.091 664.042,124.091 665.58,124.091 667.118,124.091 668.656,124.091 670.194,124.091 671.732,124.091 672.171,124.091 672.171,124.082 673.27,124.082 674.808,124.082 676.346,124.082 677.884,124.082 679.422,124.082 680.96,124.082 682.498,124.082 683.157,124.082 683.157,124.075 684.036,124.075 685.574,124.075 687.112,124.075 688.65,124.075 690.188,124.075 691.726,124.075 693.264,124.075 694.143,124.075 694.143,124.068 694.802,124.068 696.34,124.068 697.878,124.068 699.416,124.068 700.954,124.068 702.492,124.068 704.03,124.068 705.129,124.068 705.129,124.062 705.568,124.062 707.106,124.062 708.644,124.062 710.182,124.062 711.72,124.062 713.258,124.062 714.796,124.062 716.114,124.062 716.114,124.057 716.334,124.057 717.872,124.057 719.41,124.057 720.948,124.057 722.486,124.057 724.024,124.057 725.562,124.057 727.1,124.057 727.1,124.052 728.638,124.052 730.176,124.052 731.714,124.052 733.252,124.052 734.79,124.052 736.328,124.052 737.866,124.052 738.086,124.052 738.086,124.047 739.404,124.047 740.942,124.047 742.48,124.047 744.018,124.047 745.556,124.047 747.094,124.047 748.632,124.047 749.071,124.047 749.071,124.043 750.17,124.043 751.708,124.043 753.246,124.043 754.784,124.043 756.322,124.043 757.86,124.043 759.398,124.043 760.057,124.043 760.057,124.039 760.936,124.039 762.474,124.039 764.012,124.039 765.55,124.039 767.088,124.039 768.626,124.039 770.164,124.039 771.043,124.039 771.043,124.036 771.702,124.036 773.24,124.036 774.778,124.036 776.316,124.036 777.854,124.036 779.392,124.036 780.93,124.036 782.029,124.036 782.029,124.032 782.468,124.032 784.006,124.032 785.544,124.032 787.082,124.032 788.62,124.032 790.158,124.032 791.696,124.032 793.014,124.032 793.014,124.03 793.234,124.03 794.772,124.03 796.31,124.03 797.848,124.03 799.386,124.03 800.924,124.03 802.462,124.03 804,124.03 804,124.027 " />
</g>

<g fill="none" stroke="#000000" stroke-opacity="1" stroke-width="1" stroke-linecap="square" stroke-linejoin="bevel" transform="matrix(0.885417,0,0,0.885417,0,0)"
font-family="Sans Serif" font-size="10.625" font-weight="400" font-style="normal" 
>
</g>

<g fill="none" stroke="#000000" stroke-opacity="1" stroke-width="1" stroke-linecap="square" stroke-linejoin="bevel" transform="matrix(0.885417,0,0,0.885417,0,0)"
font-family="Sans Serif" font-size="10.625" font-weight="400" font-style="normal" 
>
</g>

<g fill="none" stroke="#000000" stroke-opacity="1" stroke-width="1" stroke-linecap="square" stroke-linejoin="bevel" transform="matrix(0.885417,0,0,0.885417,0,0)"
font-family="Sans Serif" font-size="10.625" font-weight="400" font-style="normal" 
>
</g>

<g fill="none" stroke="#000000" stroke-opacity="1" stroke-width="1" stroke-linecap="square" stroke-linejoin="bevel" transform="matrix(0.885417,0,0,0.885417,0,0)"
font-family="Sans Serif" font-size="10.625" font-weight="400" font-style="normal" 
>
</g>

<g fill="none" stroke="#000000" stroke-opacity="1" stroke-width="1" stroke-linecap="square" stroke-linejoin="bevel" transform="matrix(0.885417,0,0,0.885417,32.7604,1.77083)"
font-family="Sans Serif" font-size="10.625" font-weight="400" font-style="normal" 
>
</g>

<g fill="none" stroke="#ff0000" stroke-opacity="1" stroke-width="1" stroke-linecap="butt" stroke-linejoin="bevel" transform="matrix(1,0,0,1,0,0)"
font-family="Sans Serif" font-size="10.625" font-weight="400" font-style="normal" 
>
<path vector-effect="none" fill-rule="evenodd" d="M32.7604,15.0521 L59.3229,15.0521"/>
</g>

<g fill="none" stroke="#000000" stroke-opacity="1" stroke-width="1" stroke-linecap="square" stroke-linejoin="bevel" transform="matrix(0.885417,0,0,0.885417,32.7604,1.77083)"
font-family="Sans Serif" font-size="10.625" font-weight="400" font-style="normal" 
>
</g>

<g fill="none" stroke="#000000" stroke-opacity="1" stroke-width="1" stroke-linecap="square" stroke-linejoin="bevel" transform="matrix(0.885417,0,0,0.885417,0,0)"
font-family="Sans Serif" font-size="10.625" font-weight="400" font-style="normal" 
>
</g>

<g fill="none" stroke="#000000" stroke-opacity="1" stroke-width="1" stroke-linecap="square" stroke-linejoin="bevel" transform="matrix(0.885417,0,0,0.885417,0,0)"
font-family="Sans Serif" font-size="12" font-weight="400" font-style="normal" 
>
</g>

<g fill="none" stroke="#000000" stroke-opacity="1" stroke-width="1" stroke-linecap="square" stroke-linejoin="bevel" transform="matrix(0.885417,0,0,0.885417,0,0)"
font-family="Sans Serif" font-size="12" font-weight="400" font-style="normal" 
>
<text fill="#000000" fill-opacity="1" stroke="none" xml:space="preserve" x="71" y="21" font-family="Sans Serif" font-size="12" font-weight="400" font-style="normal" 
 >PI_pos.w</text>
</g>

<g fill="none" stroke="#000000" stroke-opacity="1" stroke-width="1" stroke-linecap="square" stroke-linejoin="bevel" transform="matrix(0.885417,0,0,0.885417,0,0)"
font-family="Sans Serif" font-size="10.625" font-weight="400" font-style="normal" 
>
</g>

<g fill="none" stroke="#000000" stroke-opacity="1" stroke-width="1" stroke-linecap="square" stroke-linejoin="bevel" transform="matrix(0.885417,0,0,0.885417,0,0)"
font-family="Sans Serif" font-size="10.625" font-weight="400" font-style="normal" 
>
</g>

<g fill="none" stroke="#000000" stroke-opacity="1" stroke-width="1" stroke-linecap="square" stroke-linejoin="bevel" transform="matrix(0.885417,0,0,0.885417,0,0)"
font-family="Sans Serif" font-size="10.625" font-weight="400" font-style="normal" 
>
</g>

<g fill="none" stroke="#000000" stroke-opacity="1" stroke-width="1" stroke-linecap="square" stroke-linejoin="bevel" transform="matrix(0.885417,0,0,0.885417,0,0)"
font-family="Sans Serif" font-size="10.625" font-weight="400" font-style="normal" 
>
</g>

<g fill="none" stroke="#000000" stroke-opacity="1" stroke-width="1" stroke-linecap="square" stroke-linejoin="bevel" transform="matrix(0.885417,0,0,0.885417,119.531,1.77083)"
font-family="Sans Serif" font-size="10.625" font-weight="400" font-style="normal" 
>
</g>

<g fill="none" stroke="#0000ff" stroke-opacity="1" stroke-width="1" stroke-linecap="butt" stroke-linejoin="bevel" transform="matrix(1,0,0,1,0,0)"
font-family="Sans Serif" font-size="10.625" font-weight="400" font-style="normal" 
>
<path vector-effect="none" fill-rule="evenodd" d="M119.531,15.0521 L146.094,15.0521"/>
</g>

<g fill="none" stroke="#000000" stroke-opacity="1" stroke-width="1" stroke-linecap="square" stroke-linejoin="bevel" transform="matrix(0.885417,0,0,0.885417,119.531,1.77083)"
font-family="Sans Serif" font-size="10.625" font-weight="400" font-style="normal" 
>
</g>

<g fill="none" stroke="#000000" stroke-opacity="1" stroke-width="1" stroke-linecap="square" stroke-linejoin="bevel" transform="matrix(0.885417,0,0,0.885417,0,0)"
font-family="Sans Serif" font-size="10.625" font-weight="400" font-style="normal" 
>
</g>

<g fill="none" stroke="#000000" stroke-opacity="1" stroke-width="1" stroke-linecap="square" stroke-linejoin="bevel" transform="matrix(0.885417,0,0,0.885417,0,0)"
font-family="Sans Serif" font-size="12" font-weight="400" font-style="normal" 
>
</g>

<g fill="none" stroke="#000000" stroke-opacity="1" stroke-width="1" stroke-linecap="square" stroke-linejoin="bevel" transform="matrix(0.885417,0,0,0.885417,0,0)"
font-family="Sans Serif" font-size="12" font-weight="400" font-style="normal" 
>
<text fill="#000000" fill-opacity="1" stroke="none" xml:space="preserve" x="169" y="21" font-family="Sans Serif" font-size="12" font-weight="400" font-style="normal" 
 >P_inc.y</text>
</g>

<g fill="none" stroke="#000000" stroke-opacity="1" stroke-width="1" stroke-linecap="square" stroke-linejoin="bevel" transform="matrix(0.885417,0,0,0.885417,0,0)"
font-family="Sans Serif" font-size="10.625" font-weight="400" font-style="normal" 
>
</g>

<g fill="none" stroke="#000000" stroke-opacity="1" stroke-width="1" stroke-linecap="square" stroke-linejoin="bevel" transform="matrix(0.885417,0,0,0.885417,0,0)"
font-family="Sans Serif" font-size="10.625" font-weight="400" font-style="normal" 
>
</g>

<g fill="none" stroke="#000000" stroke-opacity="1" stroke-width="1" stroke-linecap="square" stroke-linejoin="bevel" transform="matrix(0.885417,0,0,0.885417,0,0)"
font-family="Sans Serif" font-size="10.625" font-weight="400" font-style="normal" 
>
</g>

<g fill="none" stroke="#000000" stroke-opacity="1" stroke-width="1" stroke-linecap="square" stroke-linejoin="bevel" transform="matrix(0.885417,0,0,0.885417,0,0)"
font-family="Sans Serif" font-size="10.625" font-weight="400" font-style="normal" 
>
</g>

<g fill="none" stroke="#000000" stroke-opacity="1" stroke-width="1" stroke-linecap="square" stroke-linejoin="bevel" transform="matrix(0.885417,0,0,0.885417,197.448,1.77083)"
font-family="Sans Serif" font-size="10.625" font-weight="400" font-style="normal" 
>
</g>

<g fill="none" stroke="#55aa00" stroke-opacity="1" stroke-width="1" stroke-linecap="butt" stroke-linejoin="bevel" transform="matrix(1,0,0,1,0,0)"
font-family="Sans Serif" font-size="10.625" font-weight="400" font-style="normal" 
>
<path vector-effect="none" fill-rule="evenodd" d="M197.448,15.0521 L224.01,15.0521"/>
</g>

<g fill="none" stroke="#000000" stroke-opacity="1" stroke-width="1" stroke-linecap="square" stroke-linejoin="bevel" transform="matrix(0.885417,0,0,0.885417,197.448,1.77083)"
font-family="Sans Serif" font-size="10.625" font-weight="400" font-style="normal" 
>
</g>

<g fill="none" stroke="#000000" stroke-opacity="1" stroke-width="1" stroke-linecap="square" stroke-linejoin="bevel" transform="matrix(0.885417,0,0,0.885417,0,0)"
font-family="Sans Serif" font-size="10.625" font-weight="400" font-style="normal" 
>
</g>

<g fill="none" stroke="#000000" stroke-opacity="1" stroke-width="1" stroke-linecap="square" stroke-linejoin="bevel" transform="matrix(0.885417,0,0,0.885417,0,0)"
font-family="Sans Serif" font-size="12" font-weight="400" font-style="normal" 
>
</g>

<g fill="none" stroke="#000000" stroke-opacity="1" stroke-width="1" stroke-linecap="square" stroke-linejoin="bevel" transform="matrix(0.885417,0,0,0.885417,0,0)"
font-family="Sans Serif" font-size="12" font-weight="400" font-style="normal" 
>
<text fill="#000000" fill-opacity="1" stroke="none" xml:space="preserve" x="257" y="21" font-family="Sans Serif" font-size="12" font-weight="400" font-style="normal" 
 >P_inc.u</text>
</g>

<g fill="none" stroke="#000000" stroke-opacity="1" stroke-width="1" stroke-linecap="square" stroke-linejoin="bevel" transform="matrix(0.885417,0,0,0.885417,0,0)"
font-family="Sans Serif" font-size="10.625" font-weight="400" font-style="normal" 
>
</g>

<g fill="none" stroke="#000000" stroke-opacity="1" stroke-width="1" stroke-linecap="square" stroke-linejoin="bevel" transform="matrix(0.885417,0,0,0.885417,0,0)"
font-family="Sans Serif" font-size="10.625" font-weight="400" font-style="normal" 
>
</g>

<g fill="none" stroke="#000000" stroke-opacity="1" stroke-width="1" stroke-linecap="square" stroke-linejoin="bevel" transform="matrix(0.885417,0,0,0.885417,0,0)"
font-family="Sans Serif" font-size="10.625" font-weight="400" font-style="normal" 
>
</g>

<g fill="none" stroke="#000000" stroke-opacity="1" stroke-width="1" stroke-linecap="square" stroke-linejoin="bevel" transform="matrix(0,-0.885417,0.885417,0,0,185.052)"
font-family="DejaVu Sans" font-size="11.8056" font-weight="400" font-style="normal" 
>
</g>

<g fill="none" stroke="#000000" stroke-opacity="1" stroke-width="1" stroke-linecap="square" stroke-linejoin="bevel" transform="matrix(0,-0.885417,0.885417,0,0,185.052)"
font-family="DejaVu Sans" font-size="12.9861" font-weight="400" font-style="normal" 
>
</g>

<g fill="none" stroke="#000000" stroke-opacity="1" stroke-width="1" stroke-linecap="square" stroke-linejoin="bevel" transform="matrix(0,-0.885417,0.885417,0,0,185.052)"
font-family="DejaVu Sans" font-size="12.9861" font-weight="400" font-style="normal" 
>
</g>

<g fill="none" stroke="#000000" stroke-opacity="1" stroke-width="1" stroke-linecap="square" stroke-linejoin="bevel" transform="matrix(0,-0.885417,0.885417,0,0,185.052)"
font-family="DejaVu Sans" font-size="11.8056" font-weight="400" font-style="normal" 
>
</g>

<g fill="none" stroke="#000000" stroke-opacity="1" stroke-width="1" stroke-linecap="square" stroke-linejoin="bevel" transform="matrix(0.885417,0,0,0.885417,0,0)"
font-family="Sans Serif" font-size="10.625" font-weight="400" font-style="normal" 
>
</g>

<g fill="none" stroke="#000000" stroke-opacity="1" stroke-width="1" stroke-linecap="square" stroke-linejoin="bevel" transform="matrix(0.885417,0,0,0.885417,0,0)"
font-family="DejaVu Sans" font-size="11.8056" font-weight="400" font-style="normal" 
>
</g>

<g fill="none" stroke="#000000" stroke-opacity="1" stroke-width="1" stroke-linecap="square" stroke-linejoin="bevel" transform="matrix(0.885417,0,0,0.885417,0,0)"
font-family="DejaVu Sans" font-size="11.8056" font-weight="400" font-style="normal" 
>
</g>

<g fill="none" stroke="#000000" stroke-opacity="1" stroke-width="1" stroke-linecap="square" stroke-linejoin="bevel" transform="matrix(0.885417,0,0,0.885417,0,0)"
font-family="DejaVu Sans" font-size="11.8056" font-weight="400" font-style="normal" 
>
</g>

<g fill="none" stroke="#000000" stroke-opacity="1" stroke-width="1" stroke-linecap="square" stroke-linejoin="bevel" transform="matrix(0.885417,0,0,0.885417,11.2752,176.198)"
font-family="DejaVu Sans" font-size="11.8056" font-weight="400" font-style="normal" 
>
</g>

<g fill="none" stroke="#000000" stroke-opacity="1" stroke-width="1" stroke-linecap="square" stroke-linejoin="bevel" transform="matrix(0.885417,0,0,0.885417,11.2752,176.198)"
font-family="DejaVu Sans" font-size="13" font-weight="400" font-style="normal" 
>
</g>

<g fill="none" stroke="#000000" stroke-opacity="1" stroke-width="1" stroke-linecap="square" stroke-linejoin="bevel" transform="matrix(0.885417,0,0,0.885417,11.2752,176.198)"
font-family="DejaVu Sans" font-size="13" font-weight="400" font-style="normal" 
>
</g>

<g fill="none" stroke="#000000" stroke-opacity="1" stroke-width="1" stroke-linecap="square" stroke-linejoin="bevel" transform="matrix(0.885417,0,0,0.885417,11.2752,176.198)"
font-family="DejaVu Sans" font-size="13" font-weight="400" font-style="normal" 
>
<text fill="#000000" fill-opacity="1" stroke="none" xml:space="preserve" x="0" y="10" font-family="DejaVu Sans" font-size="13" font-weight="400" font-style="normal" 
 >0</text>
</g>

<g fill="none" stroke="#000000" stroke-opacity="1" stroke-width="1" stroke-linecap="square" stroke-linejoin="bevel" transform="matrix(0.885417,0,0,0.885417,11.2752,176.198)"
font-family="DejaVu Sans" font-size="13" font-weight="400" font-style="normal" 
>
</g>

<g fill="none" stroke="#000000" stroke-opacity="1" stroke-width="1" stroke-linecap="square" stroke-linejoin="bevel" transform="matrix(0.885417,0,0,0.885417,11.2752,176.198)"
font-family="DejaVu Sans" font-size="11.8056" font-weight="400" font-style="normal" 
>
</g>

<g fill="none" stroke="#000000" stroke-opacity="1" stroke-width="1" stroke-linecap="square" stroke-linejoin="bevel" transform="matrix(0.885417,0,0,0.885417,11.2752,176.198)"
font-family="DejaVu Sans" font-size="11.8056" font-weight="400" font-style="normal" 
>
</g>

<g fill="none" stroke="#000000" stroke-opacity="1" stroke-width="1" stroke-linecap="square" stroke-linejoin="bevel" transform="matrix(0.885417,0,0,0.885417,0,0)"
font-family="DejaVu Sans" font-size="11.8056" font-weight="400" font-style="normal" 
>
</g>

<g fill="none" stroke="#000000" stroke-opacity="1" stroke-width="1" stroke-linecap="square" stroke-linejoin="bevel" transform="matrix(0.885417,0,0,0.885417,0.304362,147.865)"
font-family="DejaVu Sans" font-size="11.8056" font-weight="400" font-style="normal" 
>
</g>

<g fill="none" stroke="#000000" stroke-opacity="1" stroke-width="1" stroke-linecap="square" stroke-linejoin="bevel" transform="matrix(0.885417,0,0,0.885417,0.304362,147.865)"
font-family="DejaVu Sans" font-size="13" font-weight="400" font-style="normal" 
>
</g>

<g fill="none" stroke="#000000" stroke-opacity="1" stroke-width="1" stroke-linecap="square" stroke-linejoin="bevel" transform="matrix(0.885417,0,0,0.885417,0.304362,147.865)"
font-family="DejaVu Sans" font-size="13" font-weight="400" font-style="normal" 
>
<text fill="#000000" fill-opacity="1" stroke="none" xml:space="preserve" x="0" y="10" font-family="DejaVu Sans" font-size="13" font-weight="400" font-style="normal" 
 >0.2</text>
</g>

<g fill="none" stroke="#000000" stroke-opacity="1" stroke-width="1" stroke-linecap="square" stroke-linejoin="bevel" transform="matrix(0.885417,0,0,0.885417,0.304362,147.865)"
font-family="DejaVu Sans" font-size="11.8056" font-weight="400" font-style="normal" 
>
</g>

<g fill="none" stroke="#000000" stroke-opacity="1" stroke-width="1" stroke-linecap="square" stroke-linejoin="bevel" transform="matrix(0.885417,0,0,0.885417,0.304362,147.865)"
font-family="DejaVu Sans" font-size="11.8056" font-weight="400" font-style="normal" 
>
</g>

<g fill="none" stroke="#000000" stroke-opacity="1" stroke-width="1" stroke-linecap="square" stroke-linejoin="bevel" transform="matrix(0.885417,0,0,0.885417,0,0)"
font-family="DejaVu Sans" font-size="11.8056" font-weight="400" font-style="normal" 
>
</g>

<g fill="none" stroke="#000000" stroke-opacity="1" stroke-width="1" stroke-linecap="square" stroke-linejoin="bevel" transform="matrix(0.885417,0,0,0.885417,0.304362,119.531)"
font-family="DejaVu Sans" font-size="11.8056" font-weight="400" font-style="normal" 
>
</g>

<g fill="none" stroke="#000000" stroke-opacity="1" stroke-width="1" stroke-linecap="square" stroke-linejoin="bevel" transform="matrix(0.885417,0,0,0.885417,0.304362,119.531)"
font-family="DejaVu Sans" font-size="13" font-weight="400" font-style="normal" 
>
</g>

<g fill="none" stroke="#000000" stroke-opacity="1" stroke-width="1" stroke-linecap="square" stroke-linejoin="bevel" transform="matrix(0.885417,0,0,0.885417,0.304362,119.531)"
font-family="DejaVu Sans" font-size="13" font-weight="400" font-style="normal" 
>
<text fill="#000000" fill-opacity="1" stroke="none" xml:space="preserve" x="0" y="10" font-family="DejaVu Sans" font-size="13" font-weight="400" font-style="normal" 
 >0.4</text>
</g>

<g fill="none" stroke="#000000" stroke-opacity="1" stroke-width="1" stroke-linecap="square" stroke-linejoin="bevel" transform="matrix(0.885417,0,0,0.885417,0.304362,119.531)"
font-family="DejaVu Sans" font-size="11.8056" font-weight="400" font-style="normal" 
>
</g>

<g fill="none" stroke="#000000" stroke-opacity="1" stroke-width="1" stroke-linecap="square" stroke-linejoin="bevel" transform="matrix(0.885417,0,0,0.885417,0.304362,119.531)"
font-family="DejaVu Sans" font-size="11.8056" font-weight="400" font-style="normal" 
>
</g>

<g fill="none" stroke="#000000" stroke-opacity="1" stroke-width="1" stroke-linecap="square" stroke-linejoin="bevel" transform="matrix(0.885417,0,0,0.885417,0,0)"
font-family="DejaVu Sans" font-size="11.8056" font-weight="400" font-style="normal" 
>
</g>

<g fill="none" stroke="#000000" stroke-opacity="1" stroke-width="1" stroke-linecap="square" stroke-linejoin="bevel" transform="matrix(0.885417,0,0,0.885417,0.304362,91.1979)"
font-family="DejaVu Sans" font-size="11.8056" font-weight="400" font-style="normal" 
>
</g>

<g fill="none" stroke="#000000" stroke-opacity="1" stroke-width="1" stroke-linecap="square" stroke-linejoin="bevel" transform="matrix(0.885417,0,0,0.885417,0.304362,91.1979)"
font-family="DejaVu Sans" font-size="13" font-weight="400" font-style="normal" 
>
</g>

<g fill="none" stroke="#000000" stroke-opacity="1" stroke-width="1" stroke-linecap="square" stroke-linejoin="bevel" transform="matrix(0.885417,0,0,0.885417,0.304362,91.1979)"
font-family="DejaVu Sans" font-size="13" font-weight="400" font-style="normal" 
>
<text fill="#000000" fill-opacity="1" stroke="none" xml:space="preserve" x="0" y="10" font-family="DejaVu Sans" font-size="13" font-weight="400" font-style="normal" 
 >0.6</text>
</g>

<g fill="none" stroke="#000000" stroke-opacity="1" stroke-width="1" stroke-linecap="square" stroke-linejoin="bevel" transform="matrix(0.885417,0,0,0.885417,0.304362,91.1979)"
font-family="DejaVu Sans" font-size="11.8056" font-weight="400" font-style="normal" 
>
</g>

<g fill="none" stroke="#000000" stroke-opacity="1" stroke-width="1" stroke-linecap="square" stroke-linejoin="bevel" transform="matrix(0.885417,0,0,0.885417,0.304362,91.1979)"
font-family="DejaVu Sans" font-size="11.8056" font-weight="400" font-style="normal" 
>
</g>

<g fill="none" stroke="#000000" stroke-opacity="1" stroke-width="1" stroke-linecap="square" stroke-linejoin="bevel" transform="matrix(0.885417,0,0,0.885417,0,0)"
font-family="DejaVu Sans" font-size="11.8056" font-weight="400" font-style="normal" 
>
</g>

<g fill="none" stroke="#000000" stroke-opacity="1" stroke-width="1" stroke-linecap="square" stroke-linejoin="bevel" transform="matrix(0.885417,0,0,0.885417,0.304362,62.8646)"
font-family="DejaVu Sans" font-size="11.8056" font-weight="400" font-style="normal" 
>
</g>

<g fill="none" stroke="#000000" stroke-opacity="1" stroke-width="1" stroke-linecap="square" stroke-linejoin="bevel" transform="matrix(0.885417,0,0,0.885417,0.304362,62.8646)"
font-family="DejaVu Sans" font-size="13" font-weight="400" font-style="normal" 
>
</g>

<g fill="none" stroke="#000000" stroke-opacity="1" stroke-width="1" stroke-linecap="square" stroke-linejoin="bevel" transform="matrix(0.885417,0,0,0.885417,0.304362,62.8646)"
font-family="DejaVu Sans" font-size="13" font-weight="400" font-style="normal" 
>
<text fill="#000000" fill-opacity="1" stroke="none" xml:space="preserve" x="0" y="10" font-family="DejaVu Sans" font-size="13" font-weight="400" font-style="normal" 
 >0.8</text>
</g>

<g fill="none" stroke="#000000" stroke-opacity="1" stroke-width="1" stroke-linecap="square" stroke-linejoin="bevel" transform="matrix(0.885417,0,0,0.885417,0.304362,62.8646)"
font-family="DejaVu Sans" font-size="11.8056" font-weight="400" font-style="normal" 
>
</g>

<g fill="none" stroke="#000000" stroke-opacity="1" stroke-width="1" stroke-linecap="square" stroke-linejoin="bevel" transform="matrix(0.885417,0,0,0.885417,0.304362,62.8646)"
font-family="DejaVu Sans" font-size="11.8056" font-weight="400" font-style="normal" 
>
</g>

<g fill="none" stroke="#000000" stroke-opacity="1" stroke-width="1" stroke-linecap="square" stroke-linejoin="bevel" transform="matrix(0.885417,0,0,0.885417,0,0)"
font-family="DejaVu Sans" font-size="11.8056" font-weight="400" font-style="normal" 
>
</g>

<g fill="none" stroke="#000000" stroke-opacity="1" stroke-width="1" stroke-linecap="square" stroke-linejoin="bevel" transform="matrix(0.885417,0,0,0.885417,11.2752,34.5312)"
font-family="DejaVu Sans" font-size="11.8056" font-weight="400" font-style="normal" 
>
</g>

<g fill="none" stroke="#000000" stroke-opacity="1" stroke-width="1" stroke-linecap="square" stroke-linejoin="bevel" transform="matrix(0.885417,0,0,0.885417,11.2752,34.5312)"
font-family="DejaVu Sans" font-size="13" font-weight="400" font-style="normal" 
>
</g>

<g fill="none" stroke="#000000" stroke-opacity="1" stroke-width="1" stroke-linecap="square" stroke-linejoin="bevel" transform="matrix(0.885417,0,0,0.885417,11.2752,34.5312)"
font-family="DejaVu Sans" font-size="13" font-weight="400" font-style="normal" 
>
</g>

<g fill="none" stroke="#000000" stroke-opacity="1" stroke-width="1" stroke-linecap="square" stroke-linejoin="bevel" transform="matrix(0.885417,0,0,0.885417,11.2752,34.5312)"
font-family="DejaVu Sans" font-size="13" font-weight="400" font-style="normal" 
>
<text fill="#000000" fill-opacity="1" stroke="none" xml:space="preserve" x="0" y="10" font-family="DejaVu Sans" font-size="13" font-weight="400" font-style="normal" 
 >1</text>
</g>

<g fill="none" stroke="#000000" stroke-opacity="1" stroke-width="1" stroke-linecap="square" stroke-linejoin="bevel" transform="matrix(0.885417,0,0,0.885417,11.2752,34.5312)"
font-family="DejaVu Sans" font-size="13" font-weight="400" font-style="normal" 
>
</g>

<g fill="none" stroke="#000000" stroke-opacity="1" stroke-width="1" stroke-linecap="square" stroke-linejoin="bevel" transform="matrix(0.885417,0,0,0.885417,11.2752,34.5312)"
font-family="DejaVu Sans" font-size="11.8056" font-weight="400" font-style="normal" 
>
</g>

<g fill="none" stroke="#000000" stroke-opacity="1" stroke-width="1" stroke-linecap="square" stroke-linejoin="bevel" transform="matrix(0.885417,0,0,0.885417,11.2752,34.5312)"
font-family="DejaVu Sans" font-size="11.8056" font-weight="400" font-style="normal" 
>
</g>

<g fill="none" stroke="#000000" stroke-opacity="1" stroke-width="1" stroke-linecap="square" stroke-linejoin="bevel" transform="matrix(0.885417,0,0,0.885417,0,0)"
font-family="DejaVu Sans" font-size="11.8056" font-weight="400" font-style="normal" 
>
</g>

<g fill="none" stroke="#000000" stroke-opacity="1" stroke-width="1" stroke-linecap="square" stroke-linejoin="bevel" transform="matrix(0.885417,0,0,0.885417,0,0)"
font-family="DejaVu Sans" font-size="11.8056" font-weight="400" font-style="normal" 
>
</g>

<g fill="none" stroke="#000000" stroke-opacity="1" stroke-width="1" stroke-linecap="butt" stroke-linejoin="bevel" transform="matrix(0.885417,0,0,0.885417,0,0)"
font-family="DejaVu Sans" font-size="11.8056" font-weight="400" font-style="normal" 
>
<polyline fill="none" vector-effect="non-scaling-stroke" points="34,196 30,196 " />
<polyline fill="none" vector-effect="non-scaling-stroke" points="34,180 30,180 " />
<polyline fill="none" vector-effect="non-scaling-stroke" points="34,164 30,164 " />
<polyline fill="none" vector-effect="non-scaling-stroke" points="34,148 30,148 " />
<polyline fill="none" vector-effect="non-scaling-stroke" points="34,132 30,132 " />
<polyline fill="none" vector-effect="non-scaling-stroke" points="34,116 30,116 " />
<polyline fill="none" vector-effect="non-scaling-stroke" points="34,100 30,100 " />
<polyline fill="none" vector-effect="non-scaling-stroke" points="34,84 30,84 " />
<polyline fill="none" vector-effect="non-scaling-stroke" points="34,68 30,68 " />
<polyline fill="none" vector-effect="non-scaling-stroke" points="34,52 30,52 " />
<polyline fill="none" vector-effect="non-scaling-stroke" points="34,188 28,188 " />
<polyline fill="none" vector-effect="non-scaling-stroke" points="34,156 28,156 " />
<polyline fill="none" vector-effect="non-scaling-stroke" points="34,124 28,124 " />
<polyline fill="none" vector-effect="non-scaling-stroke" points="34,92 28,92 " />
<polyline fill="none" vector-effect="non-scaling-stroke" points="34,60 28,60 " />
<polyline fill="none" vector-effect="non-scaling-stroke" points="34,204 26,204 " />
<polyline fill="none" vector-effect="non-scaling-stroke" points="34,172 26,172 " />
<polyline fill="none" vector-effect="non-scaling-stroke" points="34,140 26,140 " />
<polyline fill="none" vector-effect="non-scaling-stroke" points="34,108 26,108 " />
<polyline fill="none" vector-effect="non-scaling-stroke" points="34,76 26,76 " />
<polyline fill="none" vector-effect="non-scaling-stroke" points="34,44 26,44 " />
</g>

<g fill="none" stroke="#000000" stroke-opacity="1" stroke-width="1" stroke-linecap="square" stroke-linejoin="bevel" transform="matrix(0.885417,0,0,0.885417,0,0)"
font-family="DejaVu Sans" font-size="11.8056" font-weight="400" font-style="normal" 
>
</g>

<g fill="none" stroke="#000000" stroke-opacity="1" stroke-width="1" stroke-linecap="butt" stroke-linejoin="bevel" transform="matrix(0.885417,0,0,0.885417,0,0)"
font-family="DejaVu Sans" font-size="11.8056" font-weight="400" font-style="normal" 
>
<polyline fill="none" vector-effect="non-scaling-stroke" points="34,44 34,204 " />
</g>

<g fill="none" stroke="#000000" stroke-opacity="1" stroke-width="1" stroke-linecap="square" stroke-linejoin="bevel" transform="matrix(0.885417,0,0,0.885417,0,0)"
font-family="DejaVu Sans" font-size="11.8056" font-weight="400" font-style="normal" 
>
</g>

<g fill="none" stroke="#000000" stroke-opacity="1" stroke-width="1" stroke-linecap="square" stroke-linejoin="bevel" transform="matrix(0.885417,0,0,0.885417,0,0)"
font-family="DejaVu Sans" font-size="11.8056" font-weight="400" font-style="normal" 
>
</g>

<g fill="none" stroke="#000000" stroke-opacity="1" stroke-width="1" stroke-linecap="square" stroke-linejoin="bevel" transform="matrix(0.885417,0,0,0.885417,0,0)"
font-family="Sans Serif" font-size="10.625" font-weight="400" font-style="normal" 
>
</g>

<g fill="none" stroke="#000000" stroke-opacity="1" stroke-width="1" stroke-linecap="square" stroke-linejoin="bevel" transform="matrix(0.885417,0,0,0.885417,26.5625,203.646)"
font-family="DejaVu Sans" font-size="11.8056" font-weight="400" font-style="normal" 
>
</g>

<g fill="none" stroke="#000000" stroke-opacity="1" stroke-width="1" stroke-linecap="square" stroke-linejoin="bevel" transform="matrix(0.885417,0,0,0.885417,26.5625,203.646)"
font-family="DejaVu Sans" font-size="12.9861" font-weight="400" font-style="normal" 
>
</g>

<g fill="none" stroke="#000000" stroke-opacity="1" stroke-width="1" stroke-linecap="square" stroke-linejoin="bevel" transform="matrix(0.885417,0,0,0.885417,26.5625,203.646)"
font-family="DejaVu Sans" font-size="15" font-weight="400" font-style="normal" 
>
</g>

<g fill="none" stroke="#000000" stroke-opacity="1" stroke-width="1" stroke-linecap="square" stroke-linejoin="bevel" transform="matrix(0.885417,0,0,0.885417,26.5625,203.646)"
font-family="DejaVu Sans" font-size="15" font-weight="400" font-style="normal" 
>
<text fill="#000000" fill-opacity="1" stroke="none" xml:space="preserve" x="362.438" y="15" font-family="DejaVu Sans" font-size="15" font-weight="400" font-style="normal" 
 >time (s)</text>
</g>

<g fill="none" stroke="#000000" stroke-opacity="1" stroke-width="1" stroke-linecap="square" stroke-linejoin="bevel" transform="matrix(0.885417,0,0,0.885417,26.5625,203.646)"
font-family="DejaVu Sans" font-size="12.9861" font-weight="400" font-style="normal" 
>
</g>

<g fill="none" stroke="#000000" stroke-opacity="1" stroke-width="1" stroke-linecap="square" stroke-linejoin="bevel" transform="matrix(0.885417,0,0,0.885417,26.5625,203.646)"
font-family="DejaVu Sans" font-size="11.8056" font-weight="400" font-style="normal" 
>
</g>

<g fill="none" stroke="#000000" stroke-opacity="1" stroke-width="1" stroke-linecap="square" stroke-linejoin="bevel" transform="matrix(0.885417,0,0,0.885417,0,0)"
font-family="Sans Serif" font-size="10.625" font-weight="400" font-style="normal" 
>
</g>

<g fill="none" stroke="#000000" stroke-opacity="1" stroke-width="1" stroke-linecap="square" stroke-linejoin="bevel" transform="matrix(0.885417,0,0,0.885417,0,0)"
font-family="DejaVu Sans" font-size="11.8056" font-weight="400" font-style="normal" 
>
</g>

<g fill="none" stroke="#000000" stroke-opacity="1" stroke-width="1" stroke-linecap="square" stroke-linejoin="bevel" transform="matrix(0.885417,0,0,0.885417,0,0)"
font-family="DejaVu Sans" font-size="11.8056" font-weight="400" font-style="normal" 
>
</g>

<g fill="none" stroke="#000000" stroke-opacity="1" stroke-width="1" stroke-linecap="square" stroke-linejoin="bevel" transform="matrix(0.885417,0,0,0.885417,0,0)"
font-family="DejaVu Sans" font-size="11.8056" font-weight="400" font-style="normal" 
>
</g>

<g fill="none" stroke="#000000" stroke-opacity="1" stroke-width="1" stroke-linecap="square" stroke-linejoin="bevel" transform="matrix(0.885417,0,0,0.885417,27.3303,193.021)"
font-family="DejaVu Sans" font-size="11.8056" font-weight="400" font-style="normal" 
>
</g>

<g fill="none" stroke="#000000" stroke-opacity="1" stroke-width="1" stroke-linecap="square" stroke-linejoin="bevel" transform="matrix(0.885417,0,0,0.885417,27.3303,193.021)"
font-family="DejaVu Sans" font-size="13" font-weight="400" font-style="normal" 
>
</g>

<g fill="none" stroke="#000000" stroke-opacity="1" stroke-width="1" stroke-linecap="square" stroke-linejoin="bevel" transform="matrix(0.885417,0,0,0.885417,27.3303,193.021)"
font-family="DejaVu Sans" font-size="13" font-weight="400" font-style="normal" 
>
</g>

<g fill="none" stroke="#000000" stroke-opacity="1" stroke-width="1" stroke-linecap="square" stroke-linejoin="bevel" transform="matrix(0.885417,0,0,0.885417,27.3303,193.021)"
font-family="DejaVu Sans" font-size="13" font-weight="400" font-style="normal" 
>
<text fill="#000000" fill-opacity="1" stroke="none" xml:space="preserve" x="0" y="10" font-family="DejaVu Sans" font-size="13" font-weight="400" font-style="normal" 
 >0</text>
</g>

<g fill="none" stroke="#000000" stroke-opacity="1" stroke-width="1" stroke-linecap="square" stroke-linejoin="bevel" transform="matrix(0.885417,0,0,0.885417,27.3303,193.021)"
font-family="DejaVu Sans" font-size="13" font-weight="400" font-style="normal" 
>
</g>

<g fill="none" stroke="#000000" stroke-opacity="1" stroke-width="1" stroke-linecap="square" stroke-linejoin="bevel" transform="matrix(0.885417,0,0,0.885417,27.3303,193.021)"
font-family="DejaVu Sans" font-size="11.8056" font-weight="400" font-style="normal" 
>
</g>

<g fill="none" stroke="#000000" stroke-opacity="1" stroke-width="1" stroke-linecap="square" stroke-linejoin="bevel" transform="matrix(0.885417,0,0,0.885417,27.3303,193.021)"
font-family="DejaVu Sans" font-size="11.8056" font-weight="400" font-style="normal" 
>
</g>

<g fill="none" stroke="#000000" stroke-opacity="1" stroke-width="1" stroke-linecap="square" stroke-linejoin="bevel" transform="matrix(0.885417,0,0,0.885417,0,0)"
font-family="DejaVu Sans" font-size="11.8056" font-weight="400" font-style="normal" 
>
</g>

<g fill="none" stroke="#000000" stroke-opacity="1" stroke-width="1" stroke-linecap="square" stroke-linejoin="bevel" transform="matrix(0.885417,0,0,0.885417,120.94,193.021)"
font-family="DejaVu Sans" font-size="11.8056" font-weight="400" font-style="normal" 
>
</g>

<g fill="none" stroke="#000000" stroke-opacity="1" stroke-width="1" stroke-linecap="square" stroke-linejoin="bevel" transform="matrix(0.885417,0,0,0.885417,120.94,193.021)"
font-family="DejaVu Sans" font-size="13" font-weight="400" font-style="normal" 
>
</g>

<g fill="none" stroke="#000000" stroke-opacity="1" stroke-width="1" stroke-linecap="square" stroke-linejoin="bevel" transform="matrix(0.885417,0,0,0.885417,120.94,193.021)"
font-family="DejaVu Sans" font-size="13" font-weight="400" font-style="normal" 
>
<text fill="#000000" fill-opacity="1" stroke="none" xml:space="preserve" x="0" y="10" font-family="DejaVu Sans" font-size="13" font-weight="400" font-style="normal" 
 >10</text>
</g>

<g fill="none" stroke="#000000" stroke-opacity="1" stroke-width="1" stroke-linecap="square" stroke-linejoin="bevel" transform="matrix(0.885417,0,0,0.885417,120.94,193.021)"
font-family="DejaVu Sans" font-size="11.8056" font-weight="400" font-style="normal" 
>
</g>

<g fill="none" stroke="#000000" stroke-opacity="1" stroke-width="1" stroke-linecap="square" stroke-linejoin="bevel" transform="matrix(0.885417,0,0,0.885417,120.94,193.021)"
font-family="DejaVu Sans" font-size="11.8056" font-weight="400" font-style="normal" 
>
</g>

<g fill="none" stroke="#000000" stroke-opacity="1" stroke-width="1" stroke-linecap="square" stroke-linejoin="bevel" transform="matrix(0.885417,0,0,0.885417,0,0)"
font-family="DejaVu Sans" font-size="11.8056" font-weight="400" font-style="normal" 
>
</g>

<g fill="none" stroke="#000000" stroke-opacity="1" stroke-width="1" stroke-linecap="square" stroke-linejoin="bevel" transform="matrix(0.885417,0,0,0.885417,218.21,193.021)"
font-family="DejaVu Sans" font-size="11.8056" font-weight="400" font-style="normal" 
>
</g>

<g fill="none" stroke="#000000" stroke-opacity="1" stroke-width="1" stroke-linecap="square" stroke-linejoin="bevel" transform="matrix(0.885417,0,0,0.885417,218.21,193.021)"
font-family="DejaVu Sans" font-size="13" font-weight="400" font-style="normal" 
>
</g>

<g fill="none" stroke="#000000" stroke-opacity="1" stroke-width="1" stroke-linecap="square" stroke-linejoin="bevel" transform="matrix(0.885417,0,0,0.885417,218.21,193.021)"
font-family="DejaVu Sans" font-size="13" font-weight="400" font-style="normal" 
>
<text fill="#000000" fill-opacity="1" stroke="none" xml:space="preserve" x="0" y="10" font-family="DejaVu Sans" font-size="13" font-weight="400" font-style="normal" 
 >20</text>
</g>

<g fill="none" stroke="#000000" stroke-opacity="1" stroke-width="1" stroke-linecap="square" stroke-linejoin="bevel" transform="matrix(0.885417,0,0,0.885417,218.21,193.021)"
font-family="DejaVu Sans" font-size="11.8056" font-weight="400" font-style="normal" 
>
</g>

<g fill="none" stroke="#000000" stroke-opacity="1" stroke-width="1" stroke-linecap="square" stroke-linejoin="bevel" transform="matrix(0.885417,0,0,0.885417,218.21,193.021)"
font-family="DejaVu Sans" font-size="11.8056" font-weight="400" font-style="normal" 
>
</g>

<g fill="none" stroke="#000000" stroke-opacity="1" stroke-width="1" stroke-linecap="square" stroke-linejoin="bevel" transform="matrix(0.885417,0,0,0.885417,0,0)"
font-family="DejaVu Sans" font-size="11.8056" font-weight="400" font-style="normal" 
>
</g>

<g fill="none" stroke="#000000" stroke-opacity="1" stroke-width="1" stroke-linecap="square" stroke-linejoin="bevel" transform="matrix(0.885417,0,0,0.885417,315.479,193.021)"
font-family="DejaVu Sans" font-size="11.8056" font-weight="400" font-style="normal" 
>
</g>

<g fill="none" stroke="#000000" stroke-opacity="1" stroke-width="1" stroke-linecap="square" stroke-linejoin="bevel" transform="matrix(0.885417,0,0,0.885417,315.479,193.021)"
font-family="DejaVu Sans" font-size="13" font-weight="400" font-style="normal" 
>
</g>

<g fill="none" stroke="#000000" stroke-opacity="1" stroke-width="1" stroke-linecap="square" stroke-linejoin="bevel" transform="matrix(0.885417,0,0,0.885417,315.479,193.021)"
font-family="DejaVu Sans" font-size="13" font-weight="400" font-style="normal" 
>
<text fill="#000000" fill-opacity="1" stroke="none" xml:space="preserve" x="0" y="10" font-family="DejaVu Sans" font-size="13" font-weight="400" font-style="normal" 
 >30</text>
</g>

<g fill="none" stroke="#000000" stroke-opacity="1" stroke-width="1" stroke-linecap="square" stroke-linejoin="bevel" transform="matrix(0.885417,0,0,0.885417,315.479,193.021)"
font-family="DejaVu Sans" font-size="11.8056" font-weight="400" font-style="normal" 
>
</g>

<g fill="none" stroke="#000000" stroke-opacity="1" stroke-width="1" stroke-linecap="square" stroke-linejoin="bevel" transform="matrix(0.885417,0,0,0.885417,315.479,193.021)"
font-family="DejaVu Sans" font-size="11.8056" font-weight="400" font-style="normal" 
>
</g>

<g fill="none" stroke="#000000" stroke-opacity="1" stroke-width="1" stroke-linecap="square" stroke-linejoin="bevel" transform="matrix(0.885417,0,0,0.885417,0,0)"
font-family="DejaVu Sans" font-size="11.8056" font-weight="400" font-style="normal" 
>
</g>

<g fill="none" stroke="#000000" stroke-opacity="1" stroke-width="1" stroke-linecap="square" stroke-linejoin="bevel" transform="matrix(0.885417,0,0,0.885417,412.748,193.021)"
font-family="DejaVu Sans" font-size="11.8056" font-weight="400" font-style="normal" 
>
</g>

<g fill="none" stroke="#000000" stroke-opacity="1" stroke-width="1" stroke-linecap="square" stroke-linejoin="bevel" transform="matrix(0.885417,0,0,0.885417,412.748,193.021)"
font-family="DejaVu Sans" font-size="13" font-weight="400" font-style="normal" 
>
</g>

<g fill="none" stroke="#000000" stroke-opacity="1" stroke-width="1" stroke-linecap="square" stroke-linejoin="bevel" transform="matrix(0.885417,0,0,0.885417,412.748,193.021)"
font-family="DejaVu Sans" font-size="13" font-weight="400" font-style="normal" 
>
<text fill="#000000" fill-opacity="1" stroke="none" xml:space="preserve" x="0" y="10" font-family="DejaVu Sans" font-size="13" font-weight="400" font-style="normal" 
 >40</text>
</g>

<g fill="none" stroke="#000000" stroke-opacity="1" stroke-width="1" stroke-linecap="square" stroke-linejoin="bevel" transform="matrix(0.885417,0,0,0.885417,412.748,193.021)"
font-family="DejaVu Sans" font-size="11.8056" font-weight="400" font-style="normal" 
>
</g>

<g fill="none" stroke="#000000" stroke-opacity="1" stroke-width="1" stroke-linecap="square" stroke-linejoin="bevel" transform="matrix(0.885417,0,0,0.885417,412.748,193.021)"
font-family="DejaVu Sans" font-size="11.8056" font-weight="400" font-style="normal" 
>
</g>

<g fill="none" stroke="#000000" stroke-opacity="1" stroke-width="1" stroke-linecap="square" stroke-linejoin="bevel" transform="matrix(0.885417,0,0,0.885417,0,0)"
font-family="DejaVu Sans" font-size="11.8056" font-weight="400" font-style="normal" 
>
</g>

<g fill="none" stroke="#000000" stroke-opacity="1" stroke-width="1" stroke-linecap="square" stroke-linejoin="bevel" transform="matrix(0.885417,0,0,0.885417,510.018,193.021)"
font-family="DejaVu Sans" font-size="11.8056" font-weight="400" font-style="normal" 
>
</g>

<g fill="none" stroke="#000000" stroke-opacity="1" stroke-width="1" stroke-linecap="square" stroke-linejoin="bevel" transform="matrix(0.885417,0,0,0.885417,510.018,193.021)"
font-family="DejaVu Sans" font-size="13" font-weight="400" font-style="normal" 
>
</g>

<g fill="none" stroke="#000000" stroke-opacity="1" stroke-width="1" stroke-linecap="square" stroke-linejoin="bevel" transform="matrix(0.885417,0,0,0.885417,510.018,193.021)"
font-family="DejaVu Sans" font-size="13" font-weight="400" font-style="normal" 
>
<text fill="#000000" fill-opacity="1" stroke="none" xml:space="preserve" x="0" y="10" font-family="DejaVu Sans" font-size="13" font-weight="400" font-style="normal" 
 >50</text>
</g>

<g fill="none" stroke="#000000" stroke-opacity="1" stroke-width="1" stroke-linecap="square" stroke-linejoin="bevel" transform="matrix(0.885417,0,0,0.885417,510.018,193.021)"
font-family="DejaVu Sans" font-size="11.8056" font-weight="400" font-style="normal" 
>
</g>

<g fill="none" stroke="#000000" stroke-opacity="1" stroke-width="1" stroke-linecap="square" stroke-linejoin="bevel" transform="matrix(0.885417,0,0,0.885417,510.018,193.021)"
font-family="DejaVu Sans" font-size="11.8056" font-weight="400" font-style="normal" 
>
</g>

<g fill="none" stroke="#000000" stroke-opacity="1" stroke-width="1" stroke-linecap="square" stroke-linejoin="bevel" transform="matrix(0.885417,0,0,0.885417,0,0)"
font-family="DejaVu Sans" font-size="11.8056" font-weight="400" font-style="normal" 
>
</g>

<g fill="none" stroke="#000000" stroke-opacity="1" stroke-width="1" stroke-linecap="square" stroke-linejoin="bevel" transform="matrix(0.885417,0,0,0.885417,607.287,193.021)"
font-family="DejaVu Sans" font-size="11.8056" font-weight="400" font-style="normal" 
>
</g>

<g fill="none" stroke="#000000" stroke-opacity="1" stroke-width="1" stroke-linecap="square" stroke-linejoin="bevel" transform="matrix(0.885417,0,0,0.885417,607.287,193.021)"
font-family="DejaVu Sans" font-size="13" font-weight="400" font-style="normal" 
>
</g>

<g fill="none" stroke="#000000" stroke-opacity="1" stroke-width="1" stroke-linecap="square" stroke-linejoin="bevel" transform="matrix(0.885417,0,0,0.885417,607.287,193.021)"
font-family="DejaVu Sans" font-size="13" font-weight="400" font-style="normal" 
>
<text fill="#000000" fill-opacity="1" stroke="none" xml:space="preserve" x="0" y="10" font-family="DejaVu Sans" font-size="13" font-weight="400" font-style="normal" 
 >60</text>
</g>

<g fill="none" stroke="#000000" stroke-opacity="1" stroke-width="1" stroke-linecap="square" stroke-linejoin="bevel" transform="matrix(0.885417,0,0,0.885417,607.287,193.021)"
font-family="DejaVu Sans" font-size="11.8056" font-weight="400" font-style="normal" 
>
</g>

<g fill="none" stroke="#000000" stroke-opacity="1" stroke-width="1" stroke-linecap="square" stroke-linejoin="bevel" transform="matrix(0.885417,0,0,0.885417,607.287,193.021)"
font-family="DejaVu Sans" font-size="11.8056" font-weight="400" font-style="normal" 
>
</g>

<g fill="none" stroke="#000000" stroke-opacity="1" stroke-width="1" stroke-linecap="square" stroke-linejoin="bevel" transform="matrix(0.885417,0,0,0.885417,0,0)"
font-family="DejaVu Sans" font-size="11.8056" font-weight="400" font-style="normal" 
>
</g>

<g fill="none" stroke="#000000" stroke-opacity="1" stroke-width="1" stroke-linecap="square" stroke-linejoin="bevel" transform="matrix(0.885417,0,0,0.885417,704.556,193.021)"
font-family="DejaVu Sans" font-size="11.8056" font-weight="400" font-style="normal" 
>
</g>

<g fill="none" stroke="#000000" stroke-opacity="1" stroke-width="1" stroke-linecap="square" stroke-linejoin="bevel" transform="matrix(0.885417,0,0,0.885417,704.556,193.021)"
font-family="DejaVu Sans" font-size="13" font-weight="400" font-style="normal" 
>
</g>

<g fill="none" stroke="#000000" stroke-opacity="1" stroke-width="1" stroke-linecap="square" stroke-linejoin="bevel" transform="matrix(0.885417,0,0,0.885417,704.556,193.021)"
font-family="DejaVu Sans" font-size="13" font-weight="400" font-style="normal" 
>
<text fill="#000000" fill-opacity="1" stroke="none" xml:space="preserve" x="0" y="10" font-family="DejaVu Sans" font-size="13" font-weight="400" font-style="normal" 
 >70</text>
</g>

<g fill="none" stroke="#000000" stroke-opacity="1" stroke-width="1" stroke-linecap="square" stroke-linejoin="bevel" transform="matrix(0.885417,0,0,0.885417,704.556,193.021)"
font-family="DejaVu Sans" font-size="11.8056" font-weight="400" font-style="normal" 
>
</g>

<g fill="none" stroke="#000000" stroke-opacity="1" stroke-width="1" stroke-linecap="square" stroke-linejoin="bevel" transform="matrix(0.885417,0,0,0.885417,704.556,193.021)"
font-family="DejaVu Sans" font-size="11.8056" font-weight="400" font-style="normal" 
>
</g>

<g fill="none" stroke="#000000" stroke-opacity="1" stroke-width="1" stroke-linecap="square" stroke-linejoin="bevel" transform="matrix(0.885417,0,0,0.885417,0,0)"
font-family="DejaVu Sans" font-size="11.8056" font-weight="400" font-style="normal" 
>
</g>

<g fill="none" stroke="#000000" stroke-opacity="1" stroke-width="1" stroke-linecap="square" stroke-linejoin="bevel" transform="matrix(0.885417,0,0,0.885417,0,0)"
font-family="DejaVu Sans" font-size="11.8056" font-weight="400" font-style="normal" 
>
</g>

<g fill="none" stroke="#000000" stroke-opacity="1" stroke-width="1" stroke-linecap="butt" stroke-linejoin="bevel" transform="matrix(0.885417,0,0,0.885417,0,0)"
font-family="DejaVu Sans" font-size="11.8056" font-weight="400" font-style="normal" 
>
<polyline fill="none" vector-effect="non-scaling-stroke" points="56.9714,205 56.9714,209 " />
<polyline fill="none" vector-effect="non-scaling-stroke" points="78.9429,205 78.9429,209 " />
<polyline fill="none" vector-effect="non-scaling-stroke" points="100.914,205 100.914,209 " />
<polyline fill="none" vector-effect="non-scaling-stroke" points="122.886,205 122.886,209 " />
<polyline fill="none" vector-effect="non-scaling-stroke" points="166.829,205 166.829,209 " />
<polyline fill="none" vector-effect="non-scaling-stroke" points="188.8,205 188.8,209 " />
<polyline fill="none" vector-effect="non-scaling-stroke" points="210.771,205 210.771,209 " />
<polyline fill="none" vector-effect="non-scaling-stroke" points="232.743,205 232.743,209 " />
<polyline fill="none" vector-effect="non-scaling-stroke" points="276.686,205 276.686,209 " />
<polyline fill="none" vector-effect="non-scaling-stroke" points="298.657,205 298.657,209 " />
<polyline fill="none" vector-effect="non-scaling-stroke" points="320.629,205 320.629,209 " />
<polyline fill="none" vector-effect="non-scaling-stroke" points="342.6,205 342.6,209 " />
<polyline fill="none" vector-effect="non-scaling-stroke" points="386.543,205 386.543,209 " />
<polyline fill="none" vector-effect="non-scaling-stroke" points="408.514,205 408.514,209 " />
<polyline fill="none" vector-effect="non-scaling-stroke" points="430.486,205 430.486,209 " />
<polyline fill="none" vector-effect="non-scaling-stroke" points="452.457,205 452.457,209 " />
<polyline fill="none" vector-effect="non-scaling-stroke" points="496.4,205 496.4,209 " />
<polyline fill="none" vector-effect="non-scaling-stroke" points="518.371,205 518.371,209 " />
<polyline fill="none" vector-effect="non-scaling-stroke" points="540.343,205 540.343,209 " />
<polyline fill="none" vector-effect="non-scaling-stroke" points="562.314,205 562.314,209 " />
<polyline fill="none" vector-effect="non-scaling-stroke" points="606.257,205 606.257,209 " />
<polyline fill="none" vector-effect="non-scaling-stroke" points="628.229,205 628.229,209 " />
<polyline fill="none" vector-effect="non-scaling-stroke" points="650.2,205 650.2,209 " />
<polyline fill="none" vector-effect="non-scaling-stroke" points="672.171,205 672.171,209 " />
<polyline fill="none" vector-effect="non-scaling-stroke" points="716.114,205 716.114,209 " />
<polyline fill="none" vector-effect="non-scaling-stroke" points="738.086,205 738.086,209 " />
<polyline fill="none" vector-effect="non-scaling-stroke" points="760.057,205 760.057,209 " />
<polyline fill="none" vector-effect="non-scaling-stroke" points="782.029,205 782.029,209 " />
<polyline fill="none" vector-effect="non-scaling-stroke" points="35,205 35,213 " />
<polyline fill="none" vector-effect="non-scaling-stroke" points="144.857,205 144.857,213 " />
<polyline fill="none" vector-effect="non-scaling-stroke" points="254.714,205 254.714,213 " />
<polyline fill="none" vector-effect="non-scaling-stroke" points="364.571,205 364.571,213 " />
<polyline fill="none" vector-effect="non-scaling-stroke" points="474.429,205 474.429,213 " />
<polyline fill="none" vector-effect="non-scaling-stroke" points="584.286,205 584.286,213 " />
<polyline fill="none" vector-effect="non-scaling-stroke" points="694.143,205 694.143,213 " />
<polyline fill="none" vector-effect="non-scaling-stroke" points="804,205 804,213 " />
</g>

<g fill="none" stroke="#000000" stroke-opacity="1" stroke-width="1" stroke-linecap="square" stroke-linejoin="bevel" transform="matrix(0.885417,0,0,0.885417,0,0)"
font-family="DejaVu Sans" font-size="11.8056" font-weight="400" font-style="normal" 
>
</g>

<g fill="none" stroke="#000000" stroke-opacity="1" stroke-width="1" stroke-linecap="butt" stroke-linejoin="bevel" transform="matrix(0.885417,0,0,0.885417,0,0)"
font-family="DejaVu Sans" font-size="11.8056" font-weight="400" font-style="normal" 
>
<polyline fill="none" vector-effect="non-scaling-stroke" points="35,205 804,205 " />
</g>

<g fill="none" stroke="#000000" stroke-opacity="1" stroke-width="1" stroke-linecap="square" stroke-linejoin="bevel" transform="matrix(0.885417,0,0,0.885417,0,0)"
font-family="DejaVu Sans" font-size="11.8056" font-weight="400" font-style="normal" 
>
</g>

<g fill="none" stroke="#000000" stroke-opacity="1" stroke-width="1" stroke-linecap="square" stroke-linejoin="bevel" transform="matrix(0.885417,0,0,0.885417,0,0)"
font-family="DejaVu Sans" font-size="11.8056" font-weight="400" font-style="normal" 
>
</g>

<g fill="none" stroke="#000000" stroke-opacity="1" stroke-width="1" stroke-linecap="square" stroke-linejoin="bevel" transform="matrix(0.885417,0,0,0.885417,0,0)"
font-family="Sans Serif" font-size="10.625" font-weight="400" font-style="normal" 
>
</g>

<g fill="none" stroke="#000000" stroke-opacity="1" stroke-width="1" stroke-linecap="square" stroke-linejoin="bevel" transform="matrix(1,0,0,1,0,0)"
font-family="Sans Serif" font-size="10.625" font-weight="400" font-style="normal" 
>
</g>
</g>
</svg>
